/* XPM */
static char *_835_7725fc2ba6780222d92d304576b801fbb8432ea0f63f2a99bb7c90ee32f7068b[] = {
/* columns rows colors chars-per-pixel */
"64 64 52 1 ",
"  c black",
". c gray11",
"X c #202020",
"o c gray14",
"O c #252525",
"+ c gray15",
"@ c #272727",
"# c #282828",
"$ c gray16",
"% c #2A2A2A",
"& c gray17",
"* c #2C2C2C",
"= c #2D2D2D",
"- c gray18",
"; c #2F2F2F",
": c gray19",
"> c #313131",
", c gray22",
"< c #700000",
"1 c #7C0000",
"2 c #706C00",
"3 c #6C4824",
"4 c gray25",
"5 c #484848",
"6 c #4C4C4C",
"7 c gray33",
"8 c gray36",
"9 c #646464",
"0 c gray44",
"q c #7C7C7C",
"w c #880000",
"e c #980000",
"r c #A40000",
"t c #B00000",
"y c #BC0000",
"u c #C80000",
"i c #D40000",
"p c #E00000",
"a c #BC7848",
"s c #FC5C5C",
"d c #848400",
"f c #9C9C00",
"g c #B4AC00",
"h c #CCC400",
"j c #FCF400",
"k c #FCF85C",
"l c gray55",
"z c #989898",
"x c gray66",
"c c #B4B4B4",
"v c #C0C0C0",
"b c #D0D0D0",
/* pixels */
"5555555555556565555555565555555555655555555555555656555555556555",
"5555655555555656555555556555555555565555565555555565655555555655",
"5556565655565565555565555655555655556555656565556556555556555565",
"555555f5656555555555665565555556655655555556565655555555f5655655",
",,,,,ah,,,,,,,,,,,,,,,,,,,,,,,,,,,,,,,,,,,,,,,,,,,,,,,,,ha,,,,,,",
"*=;ahhjdhhh  hhhhhhhhhhhhhhhhhhhhhhhhhhhhhhhhhhhhh  hhhkjhha;;;-",
"=--333h3333x   3333333333333333333333333333333333  x 333g333X-;-",
"*=--=-2XXXXXii<   ;:::::>>>>>:>>::>>>>>>:::::;   <<  XXX2XXXX;--",
"=*=-==X=-;;:iitt<<<<                         <<<<w<X:;;-X===--;-",
"==-=====--;;iittrew1<<1wrub burw<l 0<<<1eryppiitrw<X----==-----=",
"=====***=--;iittrew1<<1wrub burw<l 0<<<1eryppiitrw<X-=====---===",
"*====*===;--iittrew1<<1wrub burw<l 0<<<1eryppiitrw<X===========*",
"=*=======---iittrew1<<1wrub burw<l 0<<<1eryppiitrw<X=****=====**",
"*****&***-==iittrew1<<1wrub burw<l 0<<<1eryppiitrw<X*****=*****&",
"&**&*&***=*=iittrew1<<1wrub burw<l 0<<<1eryppiitrw<X*&&&******&&",
"&*&&&&&&&***iittrew1<<1wrub burw<l 0<<<1eryppiitrw<X&&&&&*****&&",
"&&&&&%%&&***iittrew1<<1wrub burw<l 0<<<1eryppiitrw<X%%%&*&&&&&%$",
"&&%%%%%%%%&&iittrew1<<1wrsb burw<l 0<<<1eryppiitrw<X%&%&%&%%%%$#",
"%%%$$$$%$$%%iittrew1<<1wsbb bvvcxl 00,<1eryppiitrw<X%%%%&%%%%%#@",
"$$$#$$$$#$$$iittrew1<<15cb* bvvcxlq  75 eryppiitrw<X$$$%%%%%$$#@",
"@@@@###$#$$$iittrew1<<5z  b0       00  05ryppiitrw<X$$%%%$$$##@+",
"$@#########$iittrew1<5z 5b* bvvcxlq  75 q5yppiitrw<X#$$$$####@+O",
"######@@@###iittrew1<l 5c bb*  9xlq05 55 lyppiitrw<X########@@+o",
"#$$####@##$$iittrew1q 5z bb9   *xlq007 05 xppiitrw<X#$$$$####@+o",
"$$$$#$#$$%%%iittrew,q z cb9   *9xl*  75 q x0piitrw<X%$%%%$$$#@@o",
"%%%$$$$$$%%%iittrew9 l zc9*  *9cx*    50 l vpiiyrw<X%%%%%$$$$$#@",
"&%%%$$$%%&&&bbbxl099 l zq *  *9c*      0 5 vvvcxq95X&&&&&%%$$$$%",
"&&%%%$%%%&&&77      q zzc9*   **        5 x ,**    X&&&&&%%%%%%%",
"&%&&&&&&&&**bbbxl099q zzcb9             q xvvvcxq95X*****&&%%%%%",
"&%%&&&&&&***iittrew9q zzcbb9       0    q xvpiitew<X****&&&%%%&&",
"&&&%&&&&***=iittrew9q z 9bbb*     ,00   q xvpiitew<X=****&&&&&**",
"&&&&&&*=====iittrew9q z  9b9       ,0750q xvpiitew<X===***&*****",
"*&*&&&&*===-bbbxl099q z   *    *    ,750q xvvvcxq95X-====*******",
"**&&&**===--77      q z*  *   9c*    7505 x ,**    X--===***====",
"***&*===----bbbxl999 5 z* *  9vcx*    50 l vvvcxq95X;--==*==-===",
"*======-----iittrew9 l zc9* 9vvcx*    50 l vpiitrw<X;-------=-==",
"=====-=--;;-iittrew1q z cbbbbvvc*    75 q x9piitrw<X:;;---------",
"==---=----;-iittrew1q zz bbbbvvc    07 05 vppiitrw<X;;-----;;;--",
"&**=----;-;-iittrew1<l zc bbbvvc*  0  55 l5ppiitrw<X::;;-;;;;;--",
"@$&$====%&&*iittrew1<sz cb* bvvcxlq  7  q9yppiitrw<X:;;:::::;;--",
"999999999999iittrew1<<sz  bb       00  09ryppiitrw<X999999999999",
"556556655555iittrew1<<1scq* bvvcxl5  755eryppiitrw<X565656555555",
"565555655555iittrew1<<1wr0b bvvcxl 00,<1eryppiitrw<X655565656555",
"556555555556iittrew1<<1wrub burw<l 0<<<1eryppiitrw<X555555565555",
"555655555555iittrew1<<1wrub burw<l 0<<<1eryppiitrw<X555555555555",
"555656565556iittrew1<<1wrub burw<l 0<<<1eryppiitrw<X555556555565",
"............iittrew1<<1wrub burw<l 0<<<1eryppiitrw<X............",
"############iittrew1<<1wrub burw<l 0<<<1eryppiitrw<X############",
"************iittrew1<<1wrub burw<l 0<<<1eryppiitrw<X************",
"*67780000000iittrew1<<1wrub burw<l 0<<<1eryppiitrw<X0000008776#*",
"*4q00870q007iittrew1<<1wrub burw<l 0<<<1eryppiitrw<X09999454,5#*",
"*4l99799q906iittrew1<<1wrub burw<l 0<<<1eryppiitrw<X90q0775445#*",
"*4q908980887iittrew1<<1wrub burw<l 0<<<1eryppiitrw<X0qq8975555#*",
"*4090q907988iittrew1<<1wrub burw<l 0<<<1eryppiitrw<X00q8996475#*",
"*400qqq90705iittrew1<<1wrub burw<l 0<<<1eryppiitrw<X8999897455#*",
"*4900qqq9705iittrew1<<1wrub burw<l 0<<<1eryppiitrw<X5789807565#*",
"*499qqqq768497XXXXXXXXXX<<q q<<<<, ,XXXX<<rppiitrwXX67989q9875#*",
"*49q0q0085778969857979999XXXXXXXXXXXXXXXXXXXXXXXXXX877090l0065#*",
"*48000q07678888975698889997575#**4qq0q78865,9869975979970q0085#*",
"*49q09006797788764697780997545#**4qq00880875664990587899q09085#*",
"*490q9q8887778975,898909997675#**40q09070975655998875809009975#*",
"*,,,:*###............####*:,,,#**,,,:*###............####*:,,,#*",
"*..............................**..............................*",
"****************************************************************"
};
