/* XPM */
static char *_e4b25885684421f8bdf297256ad2361[] = {
/* columns rows colors chars-per-pixel */
"64 64 94 2 ",
"   c black",
".  c #151104",
"X  c #171205",
"o  c #1A1505",
"O  c #1D1508",
"+  c #1F1709",
"@  c gray7",
"#  c #131313",
"$  c gray8",
"%  c #151515",
"&  c gray9",
"*  c #181818",
"=  c #191919",
"-  c gray10",
";  c #1B1B1B",
":  c gray11",
">  c #1D1D1D",
",  c #1E1E1E",
"<  c gray12",
"1  c #211709",
"2  c #241A0A",
"3  c #21190C",
"4  c #22190C",
"5  c #241B0E",
"6  c #261D0E",
"7  c #2A1D0C",
"8  c #281E0F",
"9  c #291F10",
"0  c #2A1F10",
"q  c #29200E",
"w  c #2B210E",
"e  c #2E200E",
"r  c #2C220E",
"t  c #30220E",
"y  c #31230F",
"u  c #32230F",
"i  c #2F2410",
"p  c #332410",
"a  c #322412",
"s  c #342410",
"d  c #352613",
"f  c #372814",
"g  c #3D2A13",
"h  c #3E2B13",
"j  c #382814",
"k  c #392915",
"l  c #392A15",
"z  c #3F2817",
"x  c #202020",
"c  c gray13",
"v  c #222222",
"b  c #232323",
"n  c gray14",
"m  c #252525",
"M  c gray15",
"N  c #282828",
"B  c gray16",
"V  c #2A2A2A",
"C  c gray17",
"Z  c #2C2C2C",
"A  c #2D2D2D",
"S  c gray18",
"D  c #2F2F2F",
"F  c #313131",
"G  c #323232",
"H  c #373737",
"J  c #3C3C3C",
"K  c #412D14",
"L  c #432E15",
"P  c #442F15",
"I  c #432B18",
"U  c #462D19",
"Y  c #482E1A",
"T  c #492F1A",
"R  c #4D3018",
"E  c #503219",
"W  c #513319",
"Q  c #52331A",
"!  c #53341A",
"~  c #57351D",
"^  c #55371E",
"/  c #5A371E",
"(  c #59391F",
")  c #5C391F",
"_  c #5E391F",
"`  c #633E24",
"'  c #683E24",
"]  c #6C4329",
"[  c #6D442A",
"{  c #714829",
"}  c #414141",
"|  c #494949",
" . c #515151",
".. c #5B5B5B",
/* pixels */
"D D D D D D D D D D D D F D F D D D D D D D D F D D D D D D D D D D F D D D D D D D D D D D D D D F D F D D D D D D D D F D D D ",
"D D D D F D D D D D D D D F D F D D D D D D D D F D D D D D D D D D D F D D D D D F D D D D D D D D F D F D D D D D D D D F D D ",
"D D D F D F D F D D D F D D F D D D D D F D D D D F D D D D D F D D D D F D D D F D F D F D D D F D D F D D D D D F D D D D F D ",
"D D D D D D F D F D F D D D D D D D D D F F D D F D D D D D D F F D D F D D D D D D D F D F D F D D D D D D D D D F F D D F D D ",
"n n n n n n n n n n n n n n n n n n n n n n n n n n n n n n n n n n n n n n n n n n n n n n n n n n n n n n n n n n n n n n n n ",
"> > < < < < < < < < < < < x x x < < < x x c c c c c c c x x x x c c c c c c c c c x x x x x x c x x x < < < < < < < < < < < < , ",
"> , , , < < , , , , , , < < x x < < x x x x c x c x x x x x x x x x x c x c x x c x < x x x x < x < x < < < < < < < < < < , < , ",
"> > , , > , , > > , < < < < < < < < < < < < < < x x x x x < x x < < x x x x x x < < < < < < < < < < < < < < < < , , > , , < , , ",
"> > > , > > > > , < < < < < < < < < , , , < < x x x x x < < < < < < < x x x x x < < < , , , < < < < < < < < < , > > > > , , < , ",
"> > , > > > > > , , < < < < < < , , , , <                                           < , , , < < < < < < , , , , > > , , , , , > ",
"> > > > > > > > > , , < < , , , , , , < <   N N B B B B B B B B B B B N N M m b v   , , < < , < < < < < , > > > > > , , , > > > ",
"> > > > > > > > > < , , , , , , > , > , ,   V C C C C > * # # # # * * C V N M n b   , > , , < , , , , , > > > > > > > > > > > > ",
"> > > > > > > > > , , , , , > > > > > > ,   Z Z A A $ A $ , G , = $ $ = Z V N m b   > > > , , , , , , > > > > > > > > > > > > > ",
"> > > > > : > > > , > > > > > > > > > > ,   Z S S S ] { L % < % - - % $ Z C N M b   > > , > > > > > > > > > > > > > > > > > > : ",
": > > : > : > > > > > > > > > > > > > > >   A S D ` [ [ [ P % % % % % % A C B M b   > > > > > > > > > > > : : : > > > > > > : : ",
": > : : : : : : : > > > > > > > > > > : >   A S D n 2 T [ P < P P % % % A C B M b   : > > > > > > > > > : : : : : > > > > > : : ",
": : : : : ; ; : : > > > : : : : : : : : >   A S D [ ( [ [ _ P 2 _ 2 % - A C B M b   > > > > > > > : : : ; ; ; : > : : : : : ; ; ",
": : ; ; ; ; ; ; ; ; : : : : : : : : : : >   A S _ T ! ( ` _ ( P T 2 % S A C B M b   > > > > : : : : ; : ; : ; : ; : ; ; ; ; ; - ",
"; ; ; ; ; ; ; ; ; ; ; ; : : : : ; ; ; ; :   A S D ! [ _ _ ! P s 0 2 - S A C B M b   ; : : : : : : ; ; ; ; ; ; ; : ; ; ; ; ; - = ",
"; ; ; - ; ; ; ; - ; ; ; : : ; ; ; ; ; ; ;   A S D ! _ ' _ P l ' T 2 D S A C B M b   ; ; ; ; ; ; ; ; ; ; ; ; ; ; ; ; ; ; ; ; - = ",
"= = = = - - - ; - ; ; ; ; ; ; ; ; ; ; ; ;   A S D _ ( P s l ( ' T i 0 S A C B M b   ; ; ; ; ; ; ; ; ; ; ; ; ; ; ; ; ; ; - - = = ",
"; = - - - - - - - - - ; ; ; ; - ; - - - -   A S D D D D l P T s s 0 i 9 8 C B M b   ; ; ; ; - - - - - - - ; ; ; ; - - - - = = * ",
"- - - - - - = = = - - - - - - - - - - - =   A S D D D T ! l P 0 i P _ ) K d 5 M b   ; ; ; - - - = = = - - - - - - - - - = = = & ",
"- ; ; - - - - = - - ; ; ; ; - - - - - - -   A S D D ! ! ! P 2 P P P i k K h a 4 b   ; ; ; ; - - - - - - - ; ; ; ; - - - - = = & ",
"; ; ; ; - ; - ; ; ; ; ; ; ; ; ; ; ; ; ; -   A S D i ! l P 0 P P P s i k f d e 7 b   ; ; ; ; ; ; ; - ; ; ; ; ; ; ; ; ; ; - = = & ",
"; ; ; ; ; ; ; ; ; ; ; ; ; ; ; ; ; ; ; ; ;   A S l s i l s P P P l 2 P Q K d a 4 b   ; ; ; ; ; ; ; ; ; ; ; ; ; ; ; ; ; ; ; ; - = ",
": ; ; ; ; ; ; ; ; : : : : : ; ; ; ; ; ; ;   A S l s 0 l T ! P P i 2 ! L K t e O b   : : ; ; ; ; ; ; ; : : : : : : ; ; ; ; ; ; ; ",
": : ; ; ; ; ; ; ; : : : : : : : : ; ; ; ;   A S l 0 l T ! T 0 s 2 o ! Q f h q . b   > > : ; ; ; ; : : : : : : : : ; ; ; ; ; ; ; ",
": ; : : : : : : : : > > > > > : : : ; ; :   A k s 0 l T T 0 2 o o s P Q u h 5 . b   > > : : : : : : : > > > > > > : : ; ; ; ; ; ",
": ; ; : : : : : : > > > > > > : : : : : >   A k P 0 P T T 2 o o ` ! s L K t 5 O b   > > > : : : : > > > > > > > : : : ; ; ; : : ",
": : : ; : : : : > > > > > > > > > > > > >   A p s s P T s 2 o ( T _ P L f t X O b   > > > > : > > > > > > > > > > : : : : : > > ",
": : : : : : > > > > > > > > > > > : > > >   Z W L k k k k o ) L Y Y k j y w + 3 b   > > > > > > > > > > > > > > > > : > > > > > ",
"> : > : : : : > > > > , > > > > > > > > ,   Z Z A ^ K f U E / E f K f y r 1 N m b   , , > > > > > , , , , > > > > > > > > > > > ",
"> > : : : > > > > > , , > > > > > , , < <   V C C C ~ R R R R R I t t 6 g z M n b   , , , > , , , , , , , , > > > > > > > > > > ",
"> > > : > > > > , , , , , , , , , , < < <   N N B B B B B B B B B B B N N M m b v   , , , , , < < < < < < , , > > > > > , > > > ",
"> > > > > > > , , , , , , , , , , < < < <                                           < < < < < < < < < < < , , , , , , , > , > > ",
"> > > > > , > , , < < , , , , , < < < < < < x x x < < < < < < < x x x x x x x x < < < < < < < < < < < < < < < , , , , , , , , , ",
"> > , , , > , , , , < , , , , < < < x x x x x < x < < < < < x x x x x x x x x x < < < < < < x x x < < < < < , , , , , < < < , , ",
": > > > , , , , < , < , < < < < x x x x x c c x x x < < x x x x c c c c c c x x x < < < x x x x x < x < < < < < , < < < < < , , ",
"= ; : ; > > > > ; : : > : > < < , < < < < < c c < x < < < x c c c c c c c c c x x x x x c c c c x x x < < < < < < < < < < < , , ",
"} } } } } } } } } } } } } } } } } } } } } } } } } } } } } } } } } } } } } } } } } } } } } } } } } } } } } } } } } } } } } } } } ",
"D D F D D F F D D D D D D D D D F D F D F D D D D D D D F D D F F D D D D D D F D D F F D D D D D D D D D F D F D F D D D D D D ",
"D F D D D D F D D D D D F D D F D D D F D F D F D D D F D D D D F D D D D D F D D D D F D D D D D F D D F D D D F D F D F D D D ",
"D D F D D D D D D D D F D F D D D D D D D D F D D D D D F D D D D D D D D D D F D D D D D D D D F D F D D D D D D D D F D D D D ",
"D D D F D D D D D D D D F D F D D D D D D D D D D D D D D F D D D D D D D D D D F D D D D D D D D F D F D D D D D D D D D D D D ",
"D D D F D F D F D D D F D D F D D D D D F D D D D F D D D D D F D D D D F D D D F D F D F D D D F D D F D D D D D F D D D D F D ",
"@ @ @ @ @ @ @ @ @ @ @ @ @ @ @ @ @ @ @ @ @ @ @ @ @ @ @ @ @ @ @ @ @ @ @ @ @ @ @ @ @ @ @ @ @ @ @ @ @ @ @ @ @ @ @ @ @ @ @ @ @ @ @ @ ",
"- - - - - - - - - - - - - - - - - - - - - - - - - - - - - - - - - - - - - - - - - - - - - - - - - - - - - - - - - - - - - - - - ",
"> > > > > > > > > > > > > > > > > > > > > > > > > > > > > > > > > > > > > > > > > > > > > > > > > > > > > > > > > > > > > > > > ",
"> F H H J | | | | | | | | | | | | | | | | | | | | | J H H F - > > F H H J | | | | | | | | | | | | | | | | | | | | | J H H F - > ",
"> V  .| | J H |  .| | H F H } | |  . . .} } F } J J J H V D - > > V } | | | } F D F } H J } J V H F | J | } } } } V D V n D - > ",
"> V ..} } H } }  .} | F D D } H | | | J H } H J H J J F n D - > > V J ..|  .} H V J H H J J D D } F J H } |  .| H H D V V D - > ",
"> V  .} | J } J | J J H F D F } | } J J } | J H D } H V n D - > > V J | } | | J V D H D J F D J | H J J |  . .J } H D D D D - > ",
"> V | } |  .} | H } J J H F J } | } J } } } J F D } H D V D - > > V | } } |  .J F H F H J H F H } J F J | |  .J } } F V H D - > ",
"> V | |  . . .} | H | D H H H }  .H J } } } | H H } D D D D - > > V | } } | J H H F D } H J J J | } F } J } } } J } H V D D - > ",
"> V } | |  . . .} H | D H H F J | F } J } H } } J H H D F D - > > V | } }  .J J H D F } H } } H J } F | D H J } J | H D F D - > ",
"> V } }  . . . .H F J V } H H } | H H } H F } | H J J D H D - > > V ..| |  .} H F D H H J } } F } H H } F H } J }  .} J H D - > ",
"> V }  .|  .| | J D H H J } F } J D H } H } } } } } H V F D - > > V  . . .| } H D n D V J J } } | F H J H H | } | ..| | F D - > ",
"> V J | | |  .| H F H J J J J } H D F } J J J } } } H D H D - > > V  . .|  .H J J F D n } J F } } H D } H } } H |  .| | J D - > ",
"> V }  .| } | | F H } H H J J H F V F } H H J | } } H D V D - > > V  . .| | J J | J H D F F V } } | D J H J } }  .| } | J D - > ",
"> V } |  .}  .J J J H H H J } H D n J } J } | } } } H F H D - > > V |  .| } | H | } H D F D D } } J J H D J | } | | } } H D - > ",
"> n n n < > - - - @ @ @ @ @ @ @ @ @ @ @ @ - - - - > < n n n - > > n n n < > - - - @ @ @ @ @ @ @ @ @ @ @ @ - - - - > < n n n - > ",
"> @ @ @ @ @ @ @ @ @ @ @ @ @ @ @ @ @ @ @ @ @ @ @ @ @ @ @ @ @ @ > > @ @ @ @ @ @ @ @ @ @ @ @ @ @ @ @ @ @ @ @ @ @ @ @ @ @ @ @ @ @ > ",
"> > > > > > > > > > > > > > > > > > > > > > > > > > > > > > > > > > > > > > > > > > > > > > > > > > > > > > > > > > > > > > > > "
};
