/* XPM */
static char *_b5af90f9d664091ccb7d2ef6d88e790[] = {
/* columns rows colors chars-per-pixel */
"64 64 186 2 ",
"   c #090909",
".  c #101010",
"X  c gray7",
"o  c #131313",
"O  c gray8",
"+  c #151515",
"@  c #161616",
"#  c gray9",
"$  c #181818",
"%  c #191919",
"&  c gray10",
"*  c #1B1B1B",
"=  c gray11",
"-  c #1D1D1D",
";  c #1E1E1E",
":  c gray12",
">  c #202020",
",  c gray13",
"<  c #222222",
"1  c #232323",
"2  c gray14",
"3  c #252525",
"4  c gray15",
"5  c #272727",
"6  c #282828",
"7  c gray16",
"8  c #2A2A2A",
"9  c gray17",
"0  c #2C2C2C",
"q  c #2D2D2D",
"w  c #2F2F2F",
"e  c gray19",
"r  c #313131",
"t  c #323232",
"y  c gray20",
"u  c #343434",
"i  c #353535",
"p  c gray21",
"a  c #373737",
"s  c gray22",
"d  c #393939",
"f  c #3A3A3A",
"g  c gray23",
"h  c #3C3C3C",
"j  c gray24",
"k  c #3E3E3E",
"l  c #3F3F3F",
"z  c gray25",
"x  c #414141",
"c  c gray26",
"v  c #434343",
"b  c #444444",
"n  c gray27",
"m  c #464646",
"M  c gray28",
"N  c #484848",
"B  c #494949",
"V  c #4B4B4B",
"C  c gray30",
"Z  c #4E4E4E",
"A  c gray31",
"S  c #505050",
"D  c #515151",
"F  c #535353",
"G  c gray33",
"H  c #555555",
"J  c #565656",
"K  c gray34",
"L  c gray35",
"P  c #5A5A5A",
"I  c gray36",
"U  c #5D5D5D",
"Y  c gray37",
"T  c #5F5F5F",
"R  c gray38",
"E  c #626262",
"W  c #646464",
"Q  c #656565",
"!  c gray40",
"~  c #676767",
"^  c #686868",
"/  c DimGray",
"(  c #6A6A6A",
")  c gray42",
"_  c #6C6C6C",
"`  c #6D6D6D",
"'  c gray43",
"]  c #6F6F6F",
"[  c gray44",
"{  c #717171",
"}  c #727272",
"|  c gray45",
" . c #747474",
".. c gray46",
"X. c #767676",
"o. c #777777",
"O. c gray47",
"+. c #797979",
"@. c gray48",
"#. c #7B7B7B",
"$. c #7C7C7C",
"%. c gray49",
"&. c #7E7E7E",
"*. c gray50",
"=. c #808080",
"-. c #818181",
";. c gray51",
":. c #838383",
">. c #848484",
",. c gray52",
"<. c #868686",
"1. c #888888",
"2. c #898989",
"3. c gray54",
"4. c #8B8B8B",
"5. c gray55",
"6. c #8D8D8D",
"7. c #8E8E8E",
"8. c gray56",
"9. c #909090",
"0. c gray57",
"q. c #929292",
"w. c #939393",
"e. c gray58",
"r. c #959595",
"t. c gray59",
"y. c #979797",
"u. c #989898",
"i. c gray60",
"p. c #9A9A9A",
"a. c gray61",
"s. c #9D9D9D",
"d. c gray62",
"f. c #9F9F9F",
"g. c #A0A0A0",
"h. c gray63",
"j. c #A2A2A2",
"k. c gray64",
"l. c #A4A4A4",
"z. c #A5A5A5",
"x. c gray65",
"c. c #A7A7A7",
"v. c gray66",
"b. c #A9A9A9",
"n. c #AAAAAA",
"m. c gray67",
"M. c #ACACAC",
"N. c gray68",
"B. c #AEAEAE",
"V. c #AFAFAF",
"C. c gray69",
"Z. c #B1B1B1",
"A. c #B2B2B2",
"S. c gray70",
"D. c #B4B4B4",
"F. c gray71",
"G. c #B6B6B6",
"H. c #B7B7B7",
"J. c gray72",
"K. c #B9B9B9",
"L. c gray73",
"P. c #BBBBBB",
"I. c #BCBCBC",
"U. c gray74",
"Y. c gray",
"T. c gray75",
"R. c #C0C0C0",
"E. c #C1C1C1",
"W. c gray76",
"Q. c #C3C3C3",
"!. c gray77",
"~. c #C5C5C5",
"^. c #C6C6C6",
"/. c gray78",
"(. c #C8C8C8",
"). c gray79",
"_. c #CACACA",
"`. c #CBCBCB",
"'. c gray80",
"]. c #CDCDCD",
"[. c #CECECE",
"{. c gray81",
"}. c #D0D0D0",
"|. c #D2D2D2",
" X c LightGray",
".X c gray84",
/* pixels */
"j j j j j j j j j j j j x j x j j j j j j j j x j j j j j j j j j j x j j j j j j j j j j j j j j x j x j j j j j j j j x j j j ",
"j j j j x j j j j j j j j x j x j j j j j j j j x j j j j j j j j j j x j j j j j x j j j j j j j j x j x j j j j j j j j x j j ",
"j j j x j x j x j j j x j j x j j j j j x j j j j x j j j j j x j j j j x j j j x j x j x j j j x j j x j j j j j x j j j j x j ",
"j j j j j j x j x j x j j j j j j j j j x x j j x j j j j j j x x j j x j j j j j j j x j x j x j j j j j j j j j x x j j x j j ",
"e e e e e e e e e e e e e e e e e e e e e e e e e e e e e e e e e e e e e e e e e e e e e e e e e e e e e e e e e e e e e e e e ",
"3 4 6 6 6 6 6 6 6 6 6 7 7 8 8 8 7 7 7 8 8 9 9 9 9 9 9 9 8 8 8 8 9 9 9 9 9 9 9 9 9 8 8 8 8 8 8 9 8 8 8 7 7 7 6 6 6 6 6 7 6 6 6 5 ",
"4 5 5 5 6 6 5 5 5 5 5 5 6 7 8 8 7 7 8 8 8 8 9 8 9 8 8 8 8 8 8 8 8 8 8 9 8 9 8 8 9 8 7 8 8 8 8 7 8 7 8 7 7 7 6 6 6 6 6 6 6 5 6 5 ",
"3 4 5 5 4 5 5 4 4 5 6 6 6 7 7 7 7 7 6 7 7 7 7 7 8 8 8 8 8 7 8 8 7 7 8 8 8 8 8 8 7 7 7 7 7 6 6 7 7 7 7 7 7 7 6 6 5 5 4 5 5 6 5 5 ",
"4 3 4 5 4 4 4 4 5 6 6 7 7 7 7 6 O O O O O O O O O O O O O O O O O O O O O O O O O O O O O O 6 6 7 7 7 7 7 6 6 5 4 4 4 4 5 5 6 5 ",
"4 4 5 4 4 4 4 4 5 5 6 6 6 6 6 6 O l.l.j.l.v.k.5.F : > , * + & - : , : e } g.c.k.h.k.h.d.g.O 6 7 6 6 6 6 5 5 5 5 4 4 5 5 5 5 5 4 ",
"4 4 4 4 4 3 3 3 4 5 5 6 6 5 5 5 O b.v.v.v.m.1.x 3 = 2 > ; * * : , % : r f F d.l.k.z.l.z.z.O 5 6 6 6 6 6 5 4 4 4 4 4 5 5 5 4 4 4 ",
"3 4 4 4 4 3 4 4 4 6 5 5 5 5 5 5 O b.b.v.M.k.F : < = - , # & > > > # , t 4 r =.l.k.g.g.h.h.O 6 5 5 5 5 5 4 4 4 4 4 4 4 4 4 4 4 3 ",
"4 3 4 4 4 4 4 4 4 5 5 5 5 5 4 4 O v.c.z.B.:.2 * < : = $ $ $ + % : & - 2 , 5 c 6.l.u.i.u.a.O 5 5 5 5 5 4 4 3 3 3 3 4 4 4 4 4 3 3 ",
"3 3 3 3 3 3 3 3 3 5 4 4 4 4 4 3 O c.c.c.q.S > * & * % X # = # 2 : $ * * : 9 0 K u.j.d.d.g.O 4 4 4 4 4 4 3 3 3 3 3 4 3 3 3 3 3 3 ",
"3 3 3 3 3 3 3 3 3 4 3 4 3 3 3 3 O z.x.b.! - > 1 = % @ & # @ $ - # o = ; < 2 : 9  .l.k.j.h.O 4 4 4 4 4 3 3 3 3 3 3 3 3 3 3 3 3 3 ",
"3 3 3 3 3 3 3 3 3 3 3 3 3 3 3 3 O h.j.k.H * : - * = & : & 1 t p 9 $ $ : 1 , # > F r.g.d.s.O 3 3 3 3 3 3 3 3 3 3 3 3 3 3 3 3 3 3 ",
"3 3 3 3 3 2 2 3 3 3 3 3 3 3 3 3 O f.d.' y > > : - : , 9 v  .u.g.y./ g & - 3 , 6 f | g.f.i.O 3 3 3 3 3 3 2 2 2 3 3 3 3 3 3 3 2 1 ",
"3 3 2 2 2 2 2 2 2 2 3 3 3 3 3 3 O d.k.Y & : < : ; 3 n ) 5.v.B.C.D.A.q.r O < 6 2 f +.h.g.f.O 3 3 3 3 2 3 2 3 2 3 2 3 2 2 2 2 1 < ",
"2 2 2 1 1 1 1 2 1 1 2 2 3 3 3 3 O u.p.( % - < & : H 5.c.B.B.B.B.B.C.F.P . - : 3 k #.g.f.g.O 3 3 3 2 2 2 2 2 2 2 3 2 2 2 2 2 < , ",
"1 1 1 < 1 1 1 1 < 1 1 1 3 3 2 2 O q.<.T : , < @ , -.v.B.Z.V.V.C.v.l.P.#.+ - 2 , u [ g.g.h.O 2 2 2 2 1 1 1 1 1 2 2 2 2 2 1 1 < , ",
", , , , < < < 1 < 1 1 1 2 2 1 1 O t.1.( 8 : - @ , %.q.1.t.D.D.>.T ] y.w.1 + 8 2 9 ` d.s.s.O 2 1 1 1 1 1 1 1 2 2 2 1 1 1 < < , > ",
"1 , < < < < < < < < < 1 1 1 1 < O s.3._ 0 ; * : 5 W ] I R f.Z.@.Y ] 0.D.K & ; < g a.F.A.s.O < < < < < < < 1 1 1 1 < < < < , > : ",
"< < < < < < , , , < < < < < < < O k.8.2.y & : O i ;.o.U W <.B.2.` -.s.T.4.M - - H Y.).!.c.O < < , , , < < < < < < < < < , , > : ",
"< 1 1 < < < < , < < 1 1 1 1 < < O z.9.s.C O O : A y.<.$.&.0.B.C.s.g.M.!.e.[ 5 * #.(.^.W.n.O < < < < < < < 1 1 1 1 < < < < , > : ",
"1 1 1 1 < 1 < 1 1 2 2 2 2 2 2 2 O n.0.n.t.u   f L s.z.d.s.s.M.H.M.M.G.).-.{ e p B.`.Q.W.B.O 1 1 1 < 1 1 2 1 2 2 2 1 1 1 < , , : ",
"2 2 2 1 1 1 1 1 1 2 2 2 2 2 2 2 O C.r.M.F...O u m w.C.N.j.x.F.L.m.N.P.~.W s i O.T.Q.U.F.k.O 1 1 1 1 2 2 2 2 2 2 2 1 1 1 1 1 < , ",
"3 2 2 2 1 1 1 2 2 3 3 3 3 3 2 2 O D.u.N.D.n.] x 6 +.F.V.s.2.3.>.y.l.J.x.c ; D B.R.W.K.B.s.O 2 2 1 2 2 3 3 3 3 3 3 2 2 1 1 1 1 2 ",
"3 3 2 2 2 1 2 2 2 3 3 3 3 3 3 3 O G.w.M.D.b.C.q.; m v.p.J d H b x L ,.Q 6 C t.j.F.C.S.U.M.O 2 2 2 3 3 3 3 3 3 3 3 2 2 2 2 2 2 2 ",
"3 2 3 3 3 3 3 3 3 3 3 3 3 3 3 3 O D.e.z.b.q.2.x.A % W T 7 U y.5.( N b u 6 | p.7.j.<.i.D.g.O 3 3 3 3 3 3 3 3 3 3 3 3 3 2 2 2 2 2 ",
"3 2 2 3 3 3 3 3 3 3 3 3 3 3 3 3 O t.y.v.n.v.c.V.y.q , r I 8.5.w.z.] u 2 v z.F.D.G.N.z.p.&.O 3 3 3 3 3 3 3 3 3 3 3 3 3 2 2 2 3 3 ",
"3 3 3 2 3 3 3 3 3 3 3 4 4 4 3 3 O B.P.Q.~./.).`.`.I O : X.d.I  .V.O.6 > W (.}.~.!.~.~.Y.F.O 3 3 3 4 4 4 4 3 3 3 3 3 3 3 3 3 3 3 ",
"3 3 3 3 3 3 3 4 4 4 4 4 4 4 4 3 O }.].`._.).}._.W.#.O O B 7.6.w.4.M , 9 ..6.V. X.X{.'.].[.O 3 4 4 4 4 4 4 4 4 3 3 3 3 3 3 3 3 3 ",
"3 3 3 3 3 3 3 3 4 4 4 5 4 4 4 3 O ~.[. X|.~.R.F.l.[ : @ - g Y L p : 3 ~ L.Y Z =.k.T.[.].(.O 4 4 4 5 5 5 5 4 4 4 4 3 3 3 3 3 3 3 ",
"3 3 3 3 3 3 3 4 4 4 5 5 4 4 4 4 O E.^.|.}.!.A.6.M B G < - @ - : > 4 f k.).G s l V J O.C.`.O 5 5 5 5 5 5 5 5 4 4 4 3 3 3 4 4 4 4 ",
"3 3 3 3 3 4 4 4 5 5 5 5 5 5 5 5 O W.z.M.l.a.] p < c X.M 7 % O & 9 h W I.p.p k f v z p m E O 5 6 6 6 6 6 6 5 5 4 4 3 4 4 5 4 4 4 ",
"3 4 4 4 4 4 4 5 5 5 5 5 5 5 5 5 O W.d.=.H d 6 q 0 9 ( *.c u 5 s C ^ N.f.n 6 v p z l p p f O 7 6 6 6 6 6 6 5 5 5 5 5 5 5 4 5 4 4 ",
"4 4 4 4 4 5 4 5 5 6 6 5 5 5 5 5 O z.] n e 0 r e w 8 u +.,.+.] ) X.s.e.n 8 r z p l l g a s O 6 7 7 7 7 7 7 6 6 5 5 5 5 5 5 5 5 5 ",
"4 4 5 5 5 4 5 5 5 5 6 5 5 5 5 6 O O O O O O O O O O O O O O O O O O O O O O O O O O O O O O 8 8 8 7 7 7 6 6 5 5 5 5 5 6 6 6 5 5 ",
"3 3 3 4 5 5 5 5 6 5 6 5 6 6 7 7 8 8 8 8 8 9 9 8 8 8 7 7 8 8 8 8 9 9 9 9 9 9 8 8 8 7 7 7 8 8 8 8 8 7 8 7 7 7 6 6 5 6 6 6 6 6 5 5 ",
", 1 3 1 4 4 4 4 2 3 3 3 3 3 6 6 5 7 7 7 7 7 9 9 7 8 7 7 7 8 9 9 9 9 9 9 9 9 9 8 8 8 8 8 9 9 9 9 8 8 8 7 7 6 6 7 7 7 7 7 6 6 5 5 ",
"H H H H H H H H H H H H H H H H H H H H H H H H H H H H H H H H H H H H H H H H H H H H H H H H H H H H H H H H H H H H H H H H ",
"j j x j j x x j j j j j j j j j x j x j x j j j j j j j x j j x x j j j j j j x j j x x j j j j j j j j j x j x j x j j j j j j ",
"j x j j j j x j j j j j x j j x j j j x j x j x j j j x j j j j x j j j j j x j j j j x j j j j j x j j x j j j x j x j x j j j ",
"j j x j j j j j j j j x j x j j j j j j j j x j j j j j x j j j j j j j j j j x j j j j j j j j x j x j j j j j j j j x j j j j ",
"j j j x j j j j j j j j x j x j j j j j j j j j j j j j j x j j j j j j j j j j x j j j j j j j j x j x j j j j j j j j j j j j ",
"j j j x j x j x j j j x j j x j j j j j x j j j j x j j j j j x j j j j x j j j x j x j x j j j x j j x j j j j j x j j j j x j ",
"$ $ $ $ $ $ $ $ $ $ $ $ $ $ $ $ $ $ $ $ $ $ $ $ $ $ $ $ $ $ $ $ $ $ $ $ $ $ $ $ $ $ $ $ $ $ $ $ $ $ $ $ $ $ $ $ $ $ $ $ $ $ $ $ ",
"< < < < < < < < < < < < < < < < < < < < < < < < < < < < < < < < < < < < < < < < < < < < < < < < < < < < < < < < < < < < < < < < ",
"3 3 3 3 3 3 3 3 3 3 3 3 3 3 3 3 3 3 3 3 3 3 3 3 3 3 3 3 3 3 3 3 3 3 3 3 3 3 3 3 3 3 3 3 3 3 3 3 3 3 3 3 3 3 3 3 3 3 3 3 3 3 3 3 ",
"3 x M M Z T T T T T T T T T T T T T T T T T T T T T Z M M x < 3 3 x M M Z T T T T T T T T T T T T T T T T T T T T T Z M M x < 3 ",
"3 p ( T T Z M T ( T T M x M H T T ( ( ( H H x H Z Z Z M p j < 3 3 p H T T T H x j x H M Z H Z p M x T Z T H H H H p j p e j < 3 ",
"3 p o.H H M H H ( H T x j j H M T T T Z M H M Z M Z Z x e j < 3 3 p Z o.T ( H M p Z M M Z Z j j H x Z M H T ( T M M j p p j < 3 ",
"3 p ( H T Z H Z T Z Z M x j x H T H Z Z H T Z M j H M p e j < 3 3 p Z T H T T Z p j M j Z x j Z T M Z Z T ( ( Z H M j j j j < 3 ",
"3 p T H T ( H T M H Z Z M x Z H T H Z H H H Z x j H M j p j < 3 3 p T H H T ( Z x M x M Z M x M H Z x Z T T ( Z H H x p M j < 3 ",
"3 p T T ( ( ( H T M T j M M M H ( M Z H H H T M M H j j j j < 3 3 p T H H T Z M M x j H M Z Z Z T H x H Z H H H Z H M p j j < 3 ",
"3 p H T T ( ( ( H M T j M M x Z T x H Z H M H H Z M M j x j < 3 3 p T H H ( Z Z M j x H M H H M Z H x T j M Z H Z T M j x j < 3 ",
"3 p H H ( ( ( ( M x Z p H M M H T M M H M x H T M Z Z j M j < 3 3 p o.T T ( H M x j M M Z H H x H M M H x M H Z H ( H Z M j < 3 ",
"3 p H ( T ( T T Z j M M Z H x H Z j M H M H H H H H M p x j < 3 3 p ( ( ( T H M j e j p Z Z H H T x M Z M M T H T o.T T x j < 3 ",
"3 p Z T T T ( T M x M Z Z Z Z H M j x H Z Z Z H H H M j M j < 3 3 p ( ( T ( M Z Z x j e H Z x H H M j H M H H M T ( T T Z j < 3 ",
"3 p H ( T H T T x M H M M Z Z M x p x H M M Z T H H M j p j < 3 3 p ( ( T T Z Z T Z M j x x p H H T j Z M Z H H ( T H T Z j < 3 ",
"3 p H T ( H ( Z Z Z M M M Z H M j e Z H Z H T H H H M x M j < 3 3 p T ( T H T M T H M j x j j H H Z Z M j Z T H T T H H M j < 3 ",
"3 e e e 7 3 < < < $ $ $ $ $ $ $ $ $ $ $ $ < < < < 3 7 e e e < 3 3 e e e 7 3 < < < $ $ $ $ $ $ $ $ $ $ $ $ < < < < 3 7 e e e < 3 ",
"3 $ $ $ $ $ $ $ $ $ $ $ $ $ $ $ $ $ $ $ $ $ $ $ $ $ $ $ $ $ $ 3 3 $ $ $ $ $ $ $ $ $ $ $ $ $ $ $ $ $ $ $ $ $ $ $ $ $ $ $ $ $ $ 3 ",
"3 3 3 3 3 3 3 3 3 3 3 3 3 3 3 3 3 3 3 3 3 3 3 3 3 3 3 3 3 3 3 3 3 3 3 3 3 3 3 3 3 3 3 3 3 3 3 3 3 3 3 3 3 3 3 3 3 3 3 3 3 3 3 3 "
};
