/* XPM */
static char *_68_6381c913b9dfd7da02a201b16749ad1f0c49df8b80eabc47d6c01430b893ae6e[] = {
/* columns rows colors chars-per-pixel */
"64 64 147 2 ",
"   c #030506",
".  c #070C0F",
"X  c #1C1406",
"o  c #1C160A",
"O  c #0B0E10",
"+  c #121212",
"@  c #1B1714",
"#  c #1D1D1D",
"$  c #2F0804",
"%  c #3D0100",
"&  c #340B04",
"*  c #340C0D",
"=  c #23160B",
"-  c #241B0D",
";  c #2A1E0F",
":  c #3B1408",
">  c #3A1C0B",
",  c #231C13",
"<  c #2D1E1A",
"1  c #371913",
"2  c #2E200C",
"3  c #2F2010",
"4  c #22201D",
"5  c #342513",
"6  c #3A2611",
"7  c #3C2A14",
"8  c #32251B",
"9  c #352A1B",
"0  c #3C2D1C",
"q  c #241F20",
"w  c #2C1F22",
"e  c #222222",
"r  c #2E2325",
"t  c #2C2728",
"y  c #2E2E2E",
"u  c #3C2025",
"i  c #332B22",
"p  c #35272A",
"a  c #333333",
"s  c #393532",
"d  c #3C3C3C",
"f  c #4C0000",
"g  c #570300",
"h  c #5A0100",
"j  c #550F0F",
"k  c #5E0808",
"l  c #441209",
"z  c #4F1F0F",
"x  c #5E190E",
"c  c #4F1917",
"v  c #6A1B17",
"b  c #422C16",
"n  c #492D17",
"m  c #452E18",
"M  c #5A2516",
"N  c #4F3217",
"B  c #463119",
"V  c #4C321B",
"C  c #54351D",
"Z  c #59371D",
"A  c #57381F",
"S  c #5B391E",
"D  c #733400",
"F  c #6B331F",
"G  c #651524",
"H  c #6B1827",
"J  c #621D2A",
"K  c #6D1C2B",
"L  c #771225",
"P  c #781225",
"I  c #751628",
"U  c #44242A",
"Y  c #4D232B",
"T  c #57212A",
"R  c #5A212C",
"E  c #4B3624",
"W  c #42372D",
"Q  c #45392E",
"!  c #4C392B",
"~  c #553721",
"^  c #553924",
"/  c #5C3A21",
"(  c #423A31",
")  c #463D3D",
"_  c #652322",
"`  c #633D24",
"'  c #683F24",
"]  c #622E30",
"[  c #494900",
"{  c #535300",
"}  c #5E5E00",
"|  c #5F412C",
" . c #4E4136",
".. c #44403C",
"X. c #4F443D",
"o. c #5C4333",
"O. c #51453D",
"+. c #58473B",
"@. c #654026",
"#. c #6A4126",
"$. c #64412C",
"%. c #6D442A",
"&. c #72462A",
"*. c #74492C",
"=. c #7B4C2E",
"-. c #644734",
";. c #6A4831",
":. c #7D4E30",
">. c #78553F",
",. c #3B3E40",
"<. c #3A4646",
"1. c #414141",
"2. c #494949",
"3. c #515151",
"4. c #5C5759",
"5. c #515859",
"6. c #5B5B5B",
"7. c #734D46",
"8. c #735E51",
"9. c #821529",
"0. c #8C162C",
"q. c #83192E",
"w. c #8C182E",
"e. c #93172E",
"r. c #924400",
"t. c #9E4D01",
"y. c #A14E00",
"u. c #A15713",
"i. c #A15915",
"p. c #814F31",
"a. c #845231",
"s. c #8A5534",
"d. c #8F5837",
"f. c #82573C",
"g. c #8E5A3A",
"h. c #925936",
"j. c #9B5C37",
"k. c #935C3B",
"l. c #985C3A",
"z. c #99613F",
"x. c #A0633E",
"c. c #A6683E",
"v. c #86624B",
"b. c #9A6746",
"n. c #97664A",
"m. c #A56A48",
"M. c #A67049",
/* pixels */
"y y y y y y y y y y y a a y a y y a y y a y y a y y y y y y y y y y a y y y y y y y a y y y y y y y y a y y y y a y y y a y y y ",
"a y a y a y y a y y y y y y y a y y y y y y y y a y y y y y a y y a y a y y y a y a y y y a a y y a a y a y y y y y y y y a y y ",
"y y y a y a y a a y a y y y y y y y y y a y y a y a a y y a y a y y y y a y y y y y a y a y y y a y y a y a y a y a y y y y a y ",
"y y y y y y a a y y a y y y a y a y y a y a y y a y y y y y y a a y y a y y a y a y y a y y a y y y y y y y y a y a a y a y a y ",
"e e e e t e e e e e e e e e e e e e e e e e e e e e e e e e e e e e e e e e e e e e e e e e e e e e e e e e e e e e e e e e e e ",
"# e 4 e # e # e e # e e e e e e # e e e e e e e e e e e e e e # e e e e e e e e e # e e e e e e e e e e e e # e e e e # # e e e ",
"# # e # e e # # e # # # # e e # e # e # e e e e e e e # e e e e e e # e e e e e e e e e e # # e # # e # # e # # # e e e e # # # ",
"# # # # # # # # # # e # e # # e # e # e # # e e e # # e e # # e e # e # e # e # e # # # # e e # # e # e e # # e # # # # # # e # ",
"# # # # # # # e # e # # e # e # e # # # i.t.t.y.t.t.t.t.t.t.y.y.t.t.t.t.t.t.t.y.y.y.t.e e # # e # e # e e # # e # # # # # # e # ",
"# # e # # # # # # # e # # e # e # # e # i.t e e t t e y # # # # e t e y e e e e e e D # # # e # e # e # # e # # # # # e e # # # ",
"# # # # # # # # # # e e # e # # # e # e i.e e y t e o.< . + # + + + y e e y e e e e D e # e # e # # e # # # # # # e # # # # # # ",
"# # e # # # # # # e # # # # # e # # # # i.y y e e y k.;.8 i d # + @ O y y e y y e e D # # e # # # e # e # # # # # # # # # e # # ",
"# # e # # # # # # e # e # e # # # # # e i.e y e t 8.c.M.>.$.# . + # @ @ t y e e e e D # # # e # # e # # # # # # # # # # # # # # ",
"# # # # # # # # # # # # # # # # # # # # i.t t t t -.=.b.c.s.7 - @ + + + y e y e e e D e # # # # # # # # # # # # # # # # # # # # ",
"# # # # # # # # # # # # # # # # # # # # i.y e y t Q 2 =.m.x.p.%. .o   + y e y y e e D # # # # # e # # # # # # # e # # # # # # # ",
"# # # # # # # # # # # # # e # # # e # # i.e y t 8.n.*.h.z.g.a.:.&.2   e e y e e e e D # # e # # # # # # # # # # # # e # # # # # ",
"# # # # + # # # # # # # # # # # # # # # u.t t t v.v.a.h.h.a.:.=.:.-   t t t t r r 4 D # # # # # # # # # # + # # # # # # # # # # ",
"# # # # # # + # # # # # + # # # # + # # t.e e y t 8 *.h.d.:.*.*.0 o + U Y R J H H J D # # # # # # # # # # # # # # # + # # # # + ",
"# # + # + # # # # # # # # # # # # # # # t.t t y t | h.l.p.#.S A 7 ; q.w.w.w.0.9.9.L D # # # # # # # # # # # # # # + # # # # # # ",
"# # # # # # # # # + # # # # # # # # + # t.e t y U g.j.l.&.Z S =.%.7 e.e.e.e.e.9.9.L D # # # + # # + # # # + # # # # # # + # # + ",
"# + # + # # # # # # # # # # # # # # + # y.T _ q.w.f.a.@.C C p.s.*.b 9 e.e.e.0.0.9.P D # # + # # # # # # # # # # # # # + # # # # ",
"# # # # # + + # # + + # + # # + + # # # y.w.e.e.e.e.O.^ S #.=./ b b B 0 ( e.0.0.P P D # # # # # # + + # + # + # + # # # # + # + ",
"# + + # + # # # # # # + # # # # # # # # y.e.e.e.e.e.X.%.#.' / b 7 / @.` / V 9 9.I G D # # # # # # # # # # + # # # # # # # + + # ",
"# # # # # # # + + # # # # # # + + # # # y.e.e.e.e.s ` &.%.S 5 V ` / ~ ` #.` n 3 u w D # + # # + # + + # # # # # + # + # # # # + ",
"# # # # # # # + # # # + # + # # # # # # y.e.e.e.e.0 S %.@.V V ` #.C b C C C n 6 9 # D # # # # # # # # + + # # # # # + # # + # + ",
"# + # # + # # # # # # # # # # # # # # + t.e.e.e.W b V V V C #.#.` 5 b ` / C m 6 9 e D # + # # # + # # # # # # # # # # # # # # # ",
"# # # + # # # # # # # # # # # # # + # # y.e.e.e.E b 6 V / #.@.#.C 6 / %.#.S C ; , e D # # # # + # # # # # # # # # + # # # # # # ",
"# # # # # # + # # # # # # # # # # # # # y.e.w.q.C 7 7 / #.#.#.S m V #.#.' C C ; , e D # # # # # # # # # # # # # # # # # @ # # + ",
"# # # # # # # # # # # # # # # # # # # # t.K T  .C 7 V @.%.#.C 7 2  .#.%.Z A V - @ e D # # # # # # # # # # # # # # # # # # # # + ",
"# + # # # # # # # # # # # # # # # # # # y.p t ! N 7 A S 5 b 7 8 ..5.7.F V ` B X e e D # # # # # # # # # # # # # # # # # # # # # ",
"# # # # + # # # # # # # # # # # # # # # r.t t ~ C b S #.m 5 > 8 <.1.4.v z ` b X e e D # # # # # # # # # # # # # # # # # # # # # ",
"# # # # # # # # # # # # # # # # # # # # r.t  .S B b @.%.V m x c y <.) k g l - X e e D # # # # # # # # # # # # # # # # # # # # # ",
"# # # # # # # # e # # # # # # # # # # # r.t o.C m V ` ` ~ $.&.M J ] j h f $ = - e e D # # # # # # # e # # # # # # e # # e # # # ",
"# # # # # # # # # # # # # # # # # e # # r.t %./ C ~ n / :.*.:./ > g h f f $ ; ; e e D q # # # # e # # # # e # # # # # # # # # # ",
"# e # # # # # # # # # e e # # e # e # e r.e o.&.%.S C &.%.&.p.#.B : f % & ; 6 b e e D # q # # e e # e # # # e # # # # # # # # # ",
"# # # # # # # # # e # e # # # # # # e # r.t t e +.| ` %.$.@.;.$.~ 5 * 1 b E ! 4 e e D # e # e # # e # e e # # # # # e # # e # # ",
"# # # # # e # e # # e # # # e # e # e # r.[ [ [ [ [ [ { { { { } } } } } } } } } } } D e e # e # e # # # e # e # e # # # e # # # ",
"# # # e # # # # # e e # # e # e # e e e e # # e e # e # e # e # # e e # q q # e # # e # # # e q # e e # # e # # # # e # # e # e ",
"# # # # e # # # e # # # # # # q # e # e e e e e e # # e # e e # e e e e e e e e # e e # e e # e e e # e e # e e # e # e # # # # ",
"# # # # # # # # # # # # # # e # # # e # # e # e # e e # e # e q e e e e # e e # e e # e # e e e e # e # # e # # e # e # e e # e ",
",.1.1.1.1.1.1.1.1.1.1.1.1.1.<.) <.1.<.) <.1.1.1.1.1.1.1.1.1.1.1.<.1.1.1.1.1.1.1.1.1.1.1.1.1.1.1.1.1.1.1.1.1.1.1.<.1.1.1.1.1.1.1.",
"y y a y y a a y y y y y y a y y a a y y y y y y y a y y a y y a y y y y y y y a y y a a y a y y y y a y y a y y y y a y y y y y ",
"y a y y y y y y a y y y a y y a y y y a y y y a y y y a y y y y a y y y y a a y y a y y y y y y y a y y a y y a a y a y a y y a ",
"y a y y y y a y y y y a y y a y y y a y a y a y y y y y a y y a y y a y y y y a y y y y y y a y a y a y y y y y y y y y y y y y ",
"y y y y y y a y a y y y a y a y y y y y y y y y y y y a y y y y y y y y y y y y a y y y y a y y y a y a y y y y y y a y y y y y ",
"y a y a a y y a y y y a y y a y y a y y a y y y y a y y y a y y y y y y y a y y a y y y a y y y y y y y y a a y y a y y y a a y ",
"+ + O + + + + + + + + + + + + + + + + + + + @ + O + + O + + + + + + + + + + + O + + + + + + + + + O + + + O + + + + + + + + + + ",
"# # # @ # # + # + # # # + # # + # # # + # @ # # # @ # # # # # # # # @ # # # @ # # + # # # + # # # # # # @ # # + # # + # # @ # # ",
"# # # # # # # # # # e # # # # # # # # # # q # # # , e # # # # # # # # # # # # # # # # # # # # # # # # # # # , # # # # # # # # # ",
"# y d a d 2.2.2.2.2.2.2.2.2.2.2.2.2.2.2.2.2.2.2.2.2.d d a y # # # a a d d 2.2.2.2.2.2.2.2.2.2.2.2.2.2.2.2.2.2.2.2.2.,.a d y # # ",
"# t 3.2.2.d a 2.3.2.2.a y d <.2.2.3.3.3.1.1.a 1.d d d a y y # # # t 1.2.2.2.1.a a a 1.a d 1.d t d y 2.d 2.1.1.1.1.t y t e y # # ",
"# t 6.1...d 1.1.3.1.2.a y y 1.s 2.2.2.d a 1.a ,.a d d a e y # # # y d 6.2.3.1.a t d d a d d y y 1.a d a 1.2.3.2.d d y t t y # # ",
"# t 3.1.2.d 1.d 2.d d a a y a 1.2.1.d d 1.2.d d y <.d t e y # # # y d 2.1.2.2.d t y a a d y y d 2.a d d 2.3.3.d <.a y y y y # # ",
"# t 2.<.2.3.1.2.d 1.d d a a d 1.2.1.d 1.1.d d a y 1.a y y y # # # t 2.<.1.2.3.d a a a a d a a d 1.d a d 2.2.3.d 1.<.a t d y # # ",
"# t 2.2.3.3.3.1.2.a 2.y a d a 1.3.a d 1.1.1.2.a d 1.y y y y # # # y 2.) 1.2.d d a a a <.d d d d 2.1.a 1.d 1.1.1.d 1.a y y y # # ",
"# y <.2.2.3.3.3.1.a 2.y d a a d 2.a 1.d d d 1.1.d a d y a y + # # t 2.,.1.3.d d a y a d a 1.1.d d 1.y 2.y a ,.1.d 2.d y a y + # ",
"# t 1.1.3.3.3.3.d y d t ,.a d 1.2.a a ..d y 1.2.s d d y a y # # # t 5.2.2.3.<.s a y d a d 1.1.y 1.d d 1.a a 1.,.1.3.1.d a y # # ",
"# t 1.3.2.3.2.2.d y d a d 1.a 1.d y d <.a 1.1.1.1.<.a y a y # # # y 3.3.3.2.1.a y e y t d d 1.1.2.y a ,.a d 2.1.2.6.2.2.a y # # ",
"4 y d 2.2.2.3.2.d y a d d d d d a a a 1.d d d 1.1.1.a a a a + # # t 3.3.2.3.d ,.d a y q 1.d y 1.1.a y 1.d 1.1.a 2.3.2.2.,.y # # ",
"# t 1.3.2.,.2.2.y d 1.d a d d d a t y 1.d a d 2.1.1.a y y y # # # t 3.3.2.2.d d 2.,.a y a a y ,.1.2.y d a d 1.1.3.2.1.2.d y @ # ",
"# t <.2.3.1.3.d d d d a a d 1.d a e d 1.d ) 2.<.1.1.a a d y # # # y 2.3.2.1.2.a 2.,.d y a y y 1.1.d d d y ,.2.1.2.2.1.<.a y # # ",
"# e e e e # # # @ + + + + + + + + + + + O # @ # # # e e e e # # # t e e 4 # # # # + + + + + + + + + + + + @ # @ # # # t e t # # ",
"4 O + + + + + + O + + + + + + + + + + + + + + + + + + + + + + # # O + + + + + + + + + + + + + + + + + + + + + + + + + + + + O # ",
"# # # e # # # # # # # # # # # # # # # # # # # # # # # # # # # # 4 # # # # # # # # # # # # # # # # # # @ # # # # # # # # # # # # "
};
