/* XPM */
static char *_068ceb306ca4ea6865fad2960e3bd1f[] = {
/* columns rows colors chars-per-pixel */
"64 64 154 2 ",
"   c #030506",
".  c #070C0F",
"X  c #0B0D0D",
"o  c #1A1306",
"O  c #1B1509",
"+  c #121212",
"@  c #1B1714",
"#  c #1D1912",
"$  c #171818",
"%  c #1D1D1D",
"&  c #2C0704",
"*  c #370201",
"=  c #3D0000",
"-  c #310A03",
";  c #310B0C",
":  c #22160B",
">  c #241A0C",
",  c #2B1E0D",
"<  c #391307",
"1  c #391B0B",
"2  c #231C12",
"3  c #221E1F",
"4  c #2A1D1D",
"5  c #341812",
"6  c #35230E",
"7  c #2E2112",
"8  c #2F241D",
"9  c #352513",
"0  c #392612",
"q  c #3C2A14",
"w  c #31261A",
"e  c #3C2718",
"r  c #352A1A",
"t  c #3A2B1B",
"y  c #2A1F22",
"u  c #381D23",
"i  c #222222",
"p  c #2B2425",
"a  c #292728",
"s  c #2E2E2E",
"d  c #322B22",
"f  c #342729",
"g  c #333333",
"h  c #393532",
"j  c #3C3C3C",
"k  c #4A0000",
"l  c #560200",
"z  c #5A0000",
"x  c #540F0F",
"c  c #5E0808",
"v  c #421108",
"b  c #4F1F0F",
"n  c #5E190E",
"m  c #4F1917",
"M  c #6A1B17",
"N  c #412C16",
"B  c #482C16",
"V  c #452D18",
"C  c #492F18",
"Z  c #592416",
"A  c #4F3217",
"S  c #443019",
"D  c #4C321B",
"F  c #53351D",
"G  c #59371E",
"H  c #57381F",
"J  c #5B3A1F",
"K  c #733400",
"L  c #6B331F",
"P  c #5E1422",
"I  c #5B1E2A",
"U  c #641524",
"Y  c #6D1525",
"T  c #6D1C2B",
"R  c #731124",
"E  c #781225",
"W  c #7D1528",
"Q  c #44242A",
"!  c #4D222A",
"~  c #552029",
"^  c #58202B",
"/  c #413122",
"(  c #4D3724",
")  c #44352B",
"_  c #45392E",
"`  c #4C3A2A",
"'  c #533722",
"]  c #5C3A21",
"[  c #5D3D2A",
"{  c #413930",
"}  c #463D3D",
"|  c #642321",
" . c #602E2F",
".. c #633D24",
"X. c #683F25",
"o. c #623E29",
"O. c #494900",
"+. c #535300",
"@. c #5E5E00",
"#. c #5E422C",
"$. c #4E4136",
"%. c #44403C",
"&. c #4F443D",
"*. c #574233",
"=. c #5B4232",
"-. c #52443B",
";. c #674026",
":. c #6A4126",
">. c #64422C",
",. c #6D4429",
"<. c #71462A",
"1. c #74492C",
"2. c #7B4C2E",
"3. c #674732",
"4. c #684630",
"5. c #7D4E30",
"6. c #76533E",
"7. c #7F553A",
"8. c #3B3E40",
"9. c #3A4646",
"0. c #414141",
"q. c #494949",
"w. c #515151",
"e. c #5C5759",
"r. c #515859",
"t. c #5B5B5B",
"y. c #734D46",
"u. c #735E51",
"i. c #821429",
"p. c #8D162C",
"a. c #83192E",
"s. c #8B192E",
"d. c #93172E",
"f. c #924400",
"g. c #9E4D01",
"h. c #A14E00",
"j. c #A15713",
"k. c #A15915",
"l. c #824F31",
"z. c #845231",
"x. c #8A5534",
"c. c #8F5837",
"v. c #84573D",
"b. c #8E5A3A",
"n. c #925936",
"m. c #9B5C37",
"M. c #935C3B",
"N. c #985C3A",
"B. c #99613F",
"V. c #A2653E",
"C. c #86624B",
"Z. c #9A6746",
"A. c #97664A",
"S. c #A56D48",
/* pixels */
"s s s s s s s g s s s s g s s s s s g s s s s g s s s s s s s g s s g s s s s s s s g s s s g s s g s g s s s s s g s s g s s g ",
"s g s s g s s s s s s s s g s g s s s s s g s s g s g s s g s s s s s g s s s g s s s s s g s s s s s s g s s s s s g s s s s s ",
"s s g s s g s g s s s g s s g s s s s s g s s s s g s s s s s g s s s s g s s s g s g s g s s s g s s g g s s s s g s s s s g s ",
"s g s s s s s s g s g s s s s s g s s g s g s s g s s s s s s g g s s g s g s s s s s g s s s g s s s s s s s g s g s s s g s s ",
"i i i i a i i a i i i i a i a i i i i i i i i i i i i i i i i i i i i i i i i i i i i i i i i i i i i i i a i i i i i i i i i a ",
"% % i % % i % i i % i i i % i i % i i i i i i i i i i i i i % i i i i i i i i i i i i i i i i i i i % i % i i % i i i % i % i % ",
"% 3 3 3 i % % % % i % % % i i % % % % i i i i i i % i i i % i i i i i i % i i i i % % i i i i % i % i % i % i % % i i i i % % % ",
"% 3 % % % % i % % % i % i % i % i % i % i % i i i i % i % i i % % % % i i i % i i % i % i % % i % i % i % i % i % % % % % % % i ",
"% % % i % % % % % i i % i % i % i % % % k.g.g.g.h.g.h.g.h.h.h.h.g.g.h.h.g.g.g.h.h.g.g.i % i % % i % % i i i i % % % % % % % i % ",
"% % % % % % % % % % % % % i % i % % i % k.a i i i a i a % $ $ $ i i i a i i i i i i K i % % i % % % i % % % % % % % % i i % % % ",
"% % % % i % % % % % % i i % % % i % % i k.i a i a a =.2 X + % + . $ a a a i i i i % K % % i i % i % % i % % % % % % % % % i % % ",
"% % % % % % % i % i i % % % % i % % % % k.a a a a a n.4.d d j % + $ + a a a i i i i K % i % % % i % i % % % % % % i % % % % % % ",
"i % % % % % % % % % i % % i % % % % % % k.a a a a 6.B.S.7.[ $ . + $ # $ a a a i i % K % % i % i % % i % % % % % % % % % % % % % ",
"% % % % % % % % % % % % % % % % % % i % k.a s a a 3.5.Z.V.x.e 2 # + + + a a a i i % K % % % % % % % % % % % % % % % % % % % % % ",
"% % % % % % % % % % % % i % % % % % % % k.a a a a _ 6 5.S.V.z.,.$.O X + a a a a i % K % % % i % % % % % % % % % % % i % % % % % ",
"% % % % $ % % % % i % % % % % % % % % $ k.a a a u.A.1.b.B.b.z.5.1.>   i i a i i i % K % % % % % % % % % % % % % % i % % % % % % ",
"% % % % % % $ % % % % % % % % % $ 3 % % j.a a a C.Z.l.n.c.z.5.5.5.:   a a a p p y 8 K % % % % % % % % % $ % % % % % % % % % % % ",
"% % $ % $ % % % % $ % % % % % % % % % % h.a a a a w <.c.c.5.1.1.V O + Q ! I I U P U K % 3 % % % % % % % % % $ % % % $ % % $ % $ ",
"$ $ % % $ % $ % 3 % % % $ % % % $ $ % % h.a a a a #.n.N.z.:.] F q 2 a.s.s.s.i.W R R K % % % % % % $ % % $ % $ % % $ % % % % $ $ ",
"% % % $ % % $ % $ % $ $ % % $ % % % % $ h.a a f Q b.m.M.,.H G 2.<.q d.d.d.p.p.i.E Y K % % $ $ % % % % $ % % % % $ % % $ # % $ % ",
"$ $ $ $ $ $ % $ @ % % % % % % % % % % % h.~ | a.s.v.z.:.D F l.x.1.N d d.d.d.i.i.E R K % % % $ % $ % % % % $ % $ % $ % % $ $ $ % ",
"3 $ % $ % % $ % % $ $ % $ $ % $ $ $ $ $ h.s.d.d.d.d.-.' J ,.2.] N N N / { p.p.i.R R K $ % % % $ % $ $ $ $ % % % % % $ $ % $ $ $ ",
"$ % $ % $ % % $ $ % % $ % $ % $ % $ $ % g.d.d.d.d.d.&.,.:.X.] N 0 ..;.L G C r W Y P K % % $ $ $ $ $ $ % % % $ $ $ # $ % % $ % $ ",
"$ % % $ % $ % $ $ $ % % $ % $ % $ % % % g.d.d.d.d.h o.<.,.] 9 D ;.J F #.X...V , u 4 K % $ % % % $ % % $ $ % % % % % $ % $ $ $ $ ",
"% % $ % $ % $ $ % % % $ % % $ $ % % $ % h.d.d.d.d.r J ,.;.D D ..:.D V H F D V 0 w % K $ % % % $ $ % % $ % % % $ % $ $ % $ $ $ $ ",
"$ % $ % % $ 3 % % $ % % % $ % % $ % $ % h.p.d.d._ N D D D F X.;...0 N J J F N 0 w % K % $ % % $ % $ % % $ $ % % % % % % % % % # ",
"% @ % % $ % % % $ % % % % % % $ % $ % % h.p.d.d.( N 0 D ] :.X.X.F 9 J ,.X.F C , 7 % K % % % % % % $ $ % % % % % % % $ $ $ % % % ",
"% % 3 $ % % $ $ % % 3 $ % % % % % % % $ h.p.s.a.D N q J :.:.;.J S D ,.,.X.F F , # 3 K % % $ $ % % % % % % % % % % $ % % % % $ % ",
"% % % % $ % % % % % % % % % % % % % $ % h.T ^ *.F q D ;.,.:.F N , ` X.<.G F S > $ 3 K % % % % % % % % % % 3 % 3 % % % % $ $ % % ",
"% $ % % % % % % % % % % 3 % % % % % % % h.f a ` A q F J 9 N q r 0.r.y.X.D ] V o 3 % K % % % % % % % % % % % % % % % % $ % % % % ",
"% % % $ % % $ % % % % % % % % % % % % 3 f.a a ' F N J :.V 9 1 8 0.0.e.M b ] N o i % K % % % % % % 3 % % % % % % % % % % % % % % ",
"% % % % % % 3 % % % 3 % % 3 3 % % % % % f.a $.J S S ;.,.D V n m s 9.} c l v > o % 8 K % % % % % % % % % % % % % % % % % % % % % ",
"% % % % % % % % % % % % % % % % % % % % f.a *.F V C ..] F >.,.Z |  .x l k * : > i % K % % % % % % % % % % % % % % % % % % % % % ",
"% % % % % % % % % % i % % % % % % % i % f.i ,.J F F B ] 5.,.2.] 1 l z k = & > , i % K i % % % i % i % i % % i % % % % % % % % % ",
"% % % % % % % % % % % i i % i % % i 3 3 f.i -.,.X.H F ,.:.,.5.X.V < k = - , 6 0 i % K % i % % % % i i % i % % % % % % % i % % i ",
"i % % % % % % % % i % % i % % % % % 3 i f.i i i -.[ ] o.[ [ #.[ ( w ; 5 t d ) 8 3 i K % % i i % i % i % % i % i i % % i % % % % ",
"% % % % % i % i % % i % % i % % i % i % f.O.O.O.O.O.O.+.+.+.+.@.@.@.@.@.@.@.@.@.@.@.K i % i % 3 % i % i % i % % i % i % % % % i ",
"% % i % % % % % % i i % % % % i % i i i i % % i % % % i 3 % i 3 i i % i 8 % 3 3 % % i % i % i 3 i % % i i % i % % % % % % i % % ",
"% % % % i % % % i % % % % i % 8 i i % i i i i % % i i % 3 i i % i % i i i i i 3 % i i % 3 i y % % % i % % i % % % i % i i % % i ",
"$ % % % % % % % % % % % % % % % % % i % 3 % i 3 y i % i i % i i i i % i i % i i i i % i % i i i i i % i i % % i i % % i % i % % ",
"9.8.0.0.0.0.0.0.%.0.0.0.0.0.0.0.9.0.0.0.0.0.0.0.0.0.0.0.0.0.0.0.9.9.} 0.0.0.0.0.0.0.0.0.0.0.0.0.0.0.0.0.0.0.0.0.9.0.0.0.0.0.0.0.",
"s s g s s g g s s g g s s s s s s s g s s s s s s g s s g s s g g s s s s g s g s s s g s g s s s s g s s s s g s g s s s s s g ",
"s g s s s g s s s s s s g s s g s s s g s g g s s s s g s s s s g s s s s s g s s s s g s s s g s g s s g s s s s s g s g s s s ",
"g s s s s s s s s s s g s g s s s g s s s s g s s s s s g s s s s s g s s s s g s s s s s s s s g s g s s s g s s s s g s g s s ",
"s s s s s s s s s s s s g s g s s g s s s s s s s s s s s g s s s s s s s g s s g s s s s g s s s g s g s g s s s s g s s s s s ",
"s g s g s g s g s s s g s s s s s s s s g s s s s s s g s s s g s s s g g s s s g s g s g s s s s s s s s s s s s g s s s s g s ",
"+ + + + + + + + + + + + + + + + + + + + + + + + + + + + + + + + + + + + + + + @ + + + + + + + @ + + + + + + + + + + + + + + + + ",
"% $ $ % $ $ % $ % $ % $ $ % $ % $ % $ % $ $ % % % $ % $ % $ $ % $ % $ $ $ $ $ $ $ $ % $ $ $ $ $ $ $ % $ $ % $ $ % $ $ $ % $ % $ ",
"3 % % % % % % % % % % % % % % % % % % % % % % % % % % % % % % % % % % % % % % y i % % % % % % % 3 3 % % % % % 3 % % % % % % % % ",
"% g h h j q.q.q.q.q.q.q.q.q.q.q.q.q.q.q.q.q.q.q.q.q.8.j g g % % % s j h 8.q.q.q.q.q.q.q.q.q.q.q.q.q.q.q.q.q.q.q.q.q.8.g h g % % ",
"% s w.q.q.8.g q.w.q.q.h s h 0.q.q.w.w.w.0.0.g 0.j j j g a g $ % % a 8.q.q.q.0.s s s 0.h 8.0.8.a g g q.j q.0.0.0.0.s s s i s $ % ",
"% a t.0.0.h 0.0.w.0.q.g s s 9.j q.q.q.j h 0.g 8.h } 8.s i s % % % s j t.q.w.0.g a 8.j h j j s s 0.g 8.h 0.q.w.q.h h s a s s % % ",
"% a w.0.q.j 0.j q.j 8.h g s s 0.q.0.j j 0.q.8.j s 0.8.a a s % % % s j q.0.q.q.j a g h s j s s 8.q.h j j q.w.w.j 9.h s s s s $ % ",
"% s q.0.q.w.0.q.g 0.8.8.j s 8.0.q.0.j 0.0.0.j s s 0.g s a s % % % a q.9.0.q.w.j g g g g 8.h g h 0.8.g j q.q.w.j 0.8.g s g g % % ",
"% s q.q.w.w.w.0.q.h q.s g h h 0.w.j j 0.0.0.q.h g 0.s s g s $ % % a q.0.0.q.8.h j s g 9.h 8.j 8.q.0.g 0.j 9.0.0.8.0.j a s s % % ",
"% a 9.q.q.w.w.w.0.j q.s j j s 8.q.s 0.j 0.g 0.0.8.j h s g s $ % % a q.0.0.w.8.8.h s s 0.h 0.9.h j 0.s q.s h j 0.j q.g s g s $ % ",
"% s 0.0.w.w.w.w.g s j a 0.h g 0.q.h j 0.h s 0.q.g j 8.s h s $ % % s t.q.q.w.0.j s s g j j 8.0.g 0.g h 0.g g 0.8.0.w.0.j h s % % ",
"% a 0.w.q.w.q.q.8.s j g j 0.g 0.j s h 9.j 0.0.0.0.9.j a g s % % % a w.w.w.q.0.g s a g a j j 0.0.q.g g j g h q.0.q.e.q.q.g s % % ",
"% a j q.q.q.w.q.j g g 8.j j 8.0.g s g 0.8.8.8.0.0.0.j s h s % % % s w.w.q.w.h 8.j s s a 0.j g 0.0.j s 0.8.0.0.h q.w.q.q.8.s $ % ",
"% s 0.w.q.0.q.q.s h 0.j g 8.8.h g a g 0.g h j q.0.0.g s a g % % % a w.w.q.q.j j q.8.h s g s a 0.8.q.s 8.h 8.0.0.w.q.0.q.j s % % ",
"% a 0.q.w.0.w.8.j j j g h 8.0.g s i j 0.j 0.q.8.0.0.h g j s $ % % s q.w.q.0.q.j q.0.g s g s s 0.0.8.8.h s j q.8.q.q.0.0.h s $ % ",
"% i i a % % % $ $ + + + + + + + + + + + + $ % % $ % % i a i $ % % i i i % % % $ % + + + + + + + + + + + + % $ % % % i i i a % % ",
"% + + + + + + + + + + + + + + + + + + + + + + + + $ + + + + + % % + + + + + + + + + + + + + + + + + + + + + + + + + + + + + + % ",
"% % % % % % % % % % i % % % % % % % % % % % % % % % % % % % % % % % % % % % % % % % % % % % % % % % % % % % % % % % % % % % % % "
};
