/* XPM */
static char *c21cc5c00e0e40d9bfd8b964681e79ac[] = {
/* columns rows colors chars-per-pixel */
"64 64 45 1 ",
"  c black",
". c #131313",
"X c #161616",
"o c gray9",
"O c #181818",
"+ c gray10",
"@ c #1B1B1B",
"# c gray11",
"$ c #1D1D1D",
"% c #1E1E1E",
"& c gray12",
"* c #202020",
"= c gray13",
"- c #222222",
"; c #232323",
": c gray14",
"> c #252525",
", c gray15",
"< c #272727",
"1 c #282828",
"2 c gray16",
"3 c #2A2A2A",
"4 c gray17",
"5 c #2C2C2C",
"6 c #2D2D2D",
"7 c gray18",
"8 c #2F2F2F",
"9 c gray19",
"0 c #313131",
"q c #323232",
"w c #353535",
"e c #373737",
"r c gray22",
"t c #3E3E3E",
"y c gray25",
"u c #434343",
"i c #464646",
"p c #484848",
"a c #4C4C4C",
"s c gray33",
"d c gray36",
"f c #646464",
"g c gray44",
"h c #7C7C7C",
"j c gray55",
/* pixels */
"ppppppppppppapappppppppappppppppppappppppppppppppapappppppppappp",
"ppppappppppppapappppppppappppppppppapppppappppppppapappppppppapp",
"pppapapapppappapppppappppapppppappppapppapapapppappapppppappppap",
"ppppppapapapppppppppaappappppppaappapppppppapapapppppppppaappapp",
"rrrrrrrrrrrrrrrrrrrrrrrrrrrrrrrrrrrrrrrrrrrrrrrrrrrrrrrrrrrrrrrr",
"568888888889900099900qqqqqqq0000qqqqqqqqq000000q0009998888898887",
"6777887777778900990000q0q0000000000q0q00q09000090909998888888787",
"5677677667888999998999990000090099000000999998899999998877677877",
"6567666678899998887778900000998888900000998777889999988766667787",
"6676666677888888777788999999987789999998888777898888777766777776",
"6666655567788777777888889988777789999888777788788888766666777666",
"5666656668777777676778888887777777888877777677877777666666666665",
"6566666667777766556677777777666677777776666667777776655556666655",
"5555545557666665556677777666656677777666666676666666555556555554",
"4554545556565555666666666644445555666665555666666665544455555544",
"4544444445555555555455654432122344555554444555555555444445555544",
"44444334455544444444554431<,>,,,<1224343445555555444333454444432",
"4433333333444444444454221,:;--=;:><11233445555444434343434333321",
"33322223223344443333432<>=*%:qeuueq:<23333344444433333334333331<",
"22212222122244333333331>-&#--7qeeq7--<2222333333332222233333221<",
"<<<<111212223322323321<:*$++:qeuueq:+1243332323222222233322211<,",
"2<1111111112222121111<>;*@OXq  qq  qX,24333222111111122221111<,>",
"111111<<<11111111111<,>;&@oXqX-22-XqX>1343332111<<<111111111<<,:",
"1221111<1122221111111,>;*#OX7te..et7X<<2223322111111122221111<,:",
"2222121223333333322211<>-%@+:9w++w9:+<33333332222122323332221<<:",
"33322222233333333322222<:=$++2eiie2+<23333333322223333333222221<",
"433322233444443333333331<:*$@2:XX:2,1344444433332334444443322223",
"4433323334444444433333332<:=&+$$$$+13455555543333444444443333333",
"43444444445555544433455432<>:;;;:,134555555544444445555554433333",
"43344444455555544444555654321<<<<1346666665554444555555544433344",
"4443444455566655555566666554422334566666666655455666655554444455",
"4444445666666665545667777776555556667777776666566666666555455555",
"5454444566676665556677777777766566777777777766666777766665555555",
"5544455666776666677888888877766677788888877776777777776665556666",
"5554566677777777778888889887777889999999887777788888877665667666",
"5666666777777777788999999888887899999999888888988888877777776766",
"6666676778877777889999000988888900000000998888899999988777777777",
"6677767777877778990000090999990000000000999999000999887777788877",
"455677778787889900000qq000990000qqqqqq00099900000909998878888877",
"<242666634454588799999qq909990qqqqqqqqq00000qqqq0009988999998877",
"ffffffffffffffffffffffffffffffffffffffffffffffffffffffffffffffff",
"ppappaapppppppppapapapppppppappaappppppappaapppppppppapapapppppp",
"pappppapppppappapppapapapppappppapppppappppapppppappapppapapappp",
"ppappppppppapappppppppapppppappppppppppappppppppapappppppppapppp",
"pppappppppppapappppppppppppppappppppppppappppppppapapppppppppppp",
"pppapapapppappapppppappppapppppappppapppapapapppappapppppappppap",
"################################################################",
"1111111111111111111111111111111111111111111111111111111111111111",
"5555555555555555555555555555555555555555555555555555555555555555",
"5assdgggggggggggggggggggggdssa155assdgggggggggggggggggggggdssa15",
"5yhggdsghggsasfgghhhffafdddsyp155yfgggfapafsdfdysagdgffffypyrp15",
"5yjffsffhfgappfsgggdsfsdsddarp155ydjghfsydssddppfadsfghgsspyyp15",
"5yhfgdfdgddsapafgfddfgdspfsyrp155ydgfggdypspdapdgsddghhdfspppp15",
"5ygfghfgsfddsadfgfdfffdapfspyp155ygffghdasasdsasfdadgghdffaysp15",
"5ygghhhfgsgpsssfhsdfffgssfpppp155ygffgdssapfsdddgfafdfffdfsypp15",
"5yfgghhhfsgpssadgafdfsffdsspap155ygffhddspafsffsdfagpsdfdgspap15",
"5yffhhhhsadyfssfgssfsafgsddpsp155yjgghfsapssdffafssfasfdfhfdsp15",
"5yfhghggdpssdfafdpsfsfffffsyap155yhhhgfsprpyddffgasdssgfgjggap15",
"5ydggghgsasddddfspafdddfffspsp155yhhghsddaprfdaffspfsffsghggdp15",
"5yfhgfggasfssddsayafssdgffspyp155yhhggddgdspaayffgpdsdffhgfgdp15",
"5yfghfhdddsssdfsprdfdfgfffsasp155yghgfgsgfspappffddspdgfggffsp15",
"5rrr95111############111159rrr155rrr95111############111159rrr15",
"5##############################55##############################5",
"5555555555555555555555555555555555555555555555555555555555555555"
};
