/* XPM */
static char *a04ebc1b80764d80ababcf55bf10d8d3[] = {
/* columns rows colors chars-per-pixel */
"64 64 180 2 ",
"   c #101010",
".  c gray7",
"X  c #131313",
"o  c gray8",
"O  c #151515",
"+  c #161616",
"@  c #181818",
"#  c #191919",
"$  c gray10",
"%  c #1B1B1B",
"&  c gray11",
"*  c #1D1D1D",
"=  c #1E1E1E",
"-  c gray12",
";  c #202020",
":  c gray13",
">  c #222222",
",  c #232323",
"<  c gray14",
"1  c #252525",
"2  c gray15",
"3  c #272727",
"4  c #282828",
"5  c gray16",
"6  c #2A2A2A",
"7  c gray17",
"8  c #2C2C2C",
"9  c #2D2D2D",
"0  c gray18",
"q  c #2F2F2F",
"w  c gray19",
"e  c #313131",
"r  c #323232",
"t  c gray20",
"y  c #343434",
"u  c #353535",
"i  c gray21",
"p  c #373737",
"a  c gray22",
"s  c #3A3A3A",
"d  c gray23",
"f  c gray24",
"g  c gray25",
"h  c #414141",
"j  c gray26",
"k  c #434343",
"l  c #444444",
"z  c gray27",
"x  c gray28",
"c  c #484848",
"v  c #494949",
"b  c gray29",
"n  c #4B4B4B",
"m  c #4C4C4C",
"M  c gray30",
"N  c #4E4E4E",
"B  c gray31",
"V  c #505050",
"C  c #515151",
"Z  c gray32",
"A  c #535353",
"S  c gray33",
"D  c #555555",
"F  c #565656",
"G  c gray34",
"H  c #585858",
"J  c gray35",
"K  c #5A5A5A",
"L  c #5B5B5B",
"P  c gray36",
"I  c #5D5D5D",
"U  c gray37",
"Y  c #5F5F5F",
"T  c #606060",
"R  c gray38",
"E  c gray39",
"W  c #646464",
"Q  c #656565",
"!  c gray40",
"~  c #676767",
"^  c #686868",
"/  c DimGray",
"(  c #6A6A6A",
")  c gray42",
"_  c #6C6C6C",
"`  c #6D6D6D",
"'  c gray43",
"]  c #6F6F6F",
"[  c gray44",
"{  c #717171",
"}  c #727272",
"|  c gray45",
" . c #747474",
".. c gray46",
"X. c #767676",
"o. c #777777",
"O. c gray47",
"+. c #797979",
"@. c gray48",
"#. c #7B7B7B",
"$. c #7C7C7C",
"%. c gray49",
"&. c #7E7E7E",
"*. c gray50",
"=. c #808080",
"-. c #818181",
";. c gray51",
":. c #838383",
">. c #848484",
",. c gray52",
"<. c #868686",
"1. c gray53",
"2. c #888888",
"3. c #898989",
"4. c gray54",
"5. c #8B8B8B",
"6. c gray55",
"7. c #8D8D8D",
"8. c #8E8E8E",
"9. c gray56",
"0. c #909090",
"q. c gray57",
"w. c #929292",
"e. c #939393",
"r. c gray58",
"t. c #959595",
"y. c gray59",
"u. c #979797",
"i. c #989898",
"p. c gray60",
"a. c #9A9A9A",
"s. c #9B9B9B",
"d. c gray61",
"f. c #9D9D9D",
"g. c gray62",
"h. c #9F9F9F",
"j. c #A0A0A0",
"k. c gray63",
"l. c #A2A2A2",
"z. c gray64",
"x. c #A4A4A4",
"c. c #A5A5A5",
"v. c gray65",
"b. c #A7A7A7",
"n. c gray66",
"m. c #A9A9A9",
"M. c #AAAAAA",
"N. c gray67",
"B. c #ACACAC",
"V. c gray68",
"C. c #AEAEAE",
"Z. c #AFAFAF",
"A. c gray69",
"S. c #B1B1B1",
"D. c #B2B2B2",
"F. c gray70",
"G. c #B4B4B4",
"H. c gray71",
"J. c #B6B6B6",
"K. c #B7B7B7",
"L. c gray72",
"P. c #B9B9B9",
"I. c gray73",
"U. c #BBBBBB",
"Y. c #BCBCBC",
"T. c gray74",
"R. c gray",
"E. c gray75",
"W. c gray76",
"Q. c #C3C3C3",
"!. c gray77",
"~. c #C5C5C5",
"^. c gray78",
"/. c #CBCBCB",
"(. c #CDCDCD",
"). c gray81",
"_. c #D0D0D0",
"`. c #D5D5D5",
"'. c #D7D7D7",
"]. c gray85",
/* pixels */
"f f f f f f f f f f f f h f h f f f f f f f f h f f f f f f f f f f h f f f f f f f f f f f f f f h f h f f f f f f f f h f f f ",
"f f f f h f f f f f f f f h f h f f f f f f f f h f f f f f f f f f f h f f f f f h f f f f f f f f h f h f f f f f f f f h f f ",
"f f f h f h f h f f f h f f h f f f f f h f f f f h f f f f f h f f f f h f f f h f h f h f f f h f f h f f f f f h f f f f h f ",
"f f f f f f h f h f h f f f f f f f f f h h f f h f f f f f f h h f f h f f f f f f f h f h f h f f f f f f f f f h h f f h f f ",
"w w w w w w w w w w w w w w w w w w w w w w w w w w w w w w w w w w w w w w w w w w w w w w w w w w w w w w w w w w w w w w w w ",
"1 2 4 4 4 4 4 4 4 4 4 5 5 6 6 6 5 5 5 6 6 7 7 7 7 7 7 7 6 6 6 6 7 7 7 7 7 7 7 7 7 6 6 6 6 6 6 7 6 6 6 5 5 5 4 4 4 4 4 5 4 4 4 3 ",
"2 3 3 3 4 4 3 3 3 3 3 3 4 5 6 6 5 5 6 6 6 6 7 6 7 6 6 6 6 6 6 6 6 6 6 7 6 7 6 6 7 6 5 6 6 6 6 5 6 5 6 5 5 5 4 4 4 4 4 4 4 3 4 3 ",
"1 2 3 3 2 3 3 2 2 3 4 4 4 5 5 5 5 5 4 5 5 5 5 5 6 6 6 6 6 5 6 6 5 5 6 6 6 6 6 6 5 5 5 5 5 4 4 5 5 5 5 5 5 5 4 4 3 3 2 3 3 4 3 3 ",
"2 1 2 3 2 2 2 2 3 4 4 5 5 5 5 4 o o o o o o o o o o o o o o o o o o o o o o o o o o o o o o 4 4 5 5 5 5 5 4 4 3 2 2 2 2 3 3 4 3 ",
"2 2 3 2 2 2 2 2 3 3 4 4 4 4 4 4 o #.*.$.O.} } ] } ( g ; $ $ $ * , 3 y n ] } ] ] ` / ) } ` o 4 5 4 4 4 4 3 3 3 3 2 2 3 3 3 3 3 2 ",
"2 2 2 2 2 1 1 1 2 3 3 4 4 3 3 3 o ' ) =.l.b.n.y.^ p - # % - $ = - 1 7 5 l ' ] ] ( W 6.K.Y.o 3 4 4 4 4 4 3 2 2 2 2 2 3 3 3 2 2 2 ",
"1 2 2 2 2 1 2 2 2 4 3 3 3 3 3 3 o } ` 9.].].].(.A $ , $ o * & % - : 2 1 , N { ' W ( Q.].].o 4 3 3 3 3 3 2 2 2 2 2 2 2 2 2 2 2 1 ",
"2 1 2 2 2 2 2 2 2 3 3 3 3 3 2 2 o } ] [ g.~.!.7.8 $ = - @ $ # # = = - = = y ^ ] T _ x.G.D.o 3 3 3 3 3 2 2 1 1 1 1 2 2 2 2 2 1 1 ",
"1 1 1 1 1 1 1 1 1 3 2 2 2 2 2 1 o ' ` ( / $.1.m o #   + X . o # = & $ O O 4 K / #.n.J.G.*.o 2 2 2 2 2 2 1 1 1 1 1 2 1 1 1 1 1 1 ",
"1 1 1 1 1 1 1 1 1 2 1 2 1 1 1 1 o ^ / / Q W #.G   # 1 p u y l H Y E U A e & M U e.'.]._.O.o 2 2 2 2 2 1 1 1 1 1 1 1 1 1 1 1 1 1 ",
"1 1 1 1 1 1 1 1 1 1 1 1 1 1 1 1 o W Q ~ ~ / ' v % x ..<.7.9.r.i.g.z.f.f. .1 h %.K.`.I.-.W o 1 1 1 1 1 1 1 1 1 1 1 1 1 1 1 1 1 1 ",
"1 1 1 1 1 < < 1 1 1 1 1 1 1 1 1 o W ~ ^ / ( ( z > U y.g.c.n.z.z.v.z.g.z.w.g h s.'.].a.J K o 1 1 1 1 1 1 < < < 1 1 1 1 1 1 1 < , ",
"1 1 < < < < < < < < 1 1 1 1 1 1 o L J J K P U k 4 ( w.q.c.C.b.b.N.A.x.z.t.x x ~ O.o.Y D S o 1 1 1 1 < 1 < 1 < 1 < 1 < < < < , > ",
"< < < , , , , < , , < < 1 1 1 1 o G x x v b N j j X.^ Y U #.j.m.p.X.R ^ #.H c B x b B C B o 1 1 1 < < < < < < < 1 < < < < < > : ",
", , , > , , , , > , , , 1 1 < < o U b v m z N Y H >.&.^ F J 4.j.` b P @.<.O.J c x v m M n o < < < < , , , , , < < < < < , , > : ",
": : : : > > > , > , , , < < , , o ) Z M A n C } | 3.3.! E [ 6.f.&.W F O.p.8.6.$.A c D W T o < , , , , , , , < < < , , , > > : ; ",
", : > > > > > > > > > , , , , > o ..F C R I P ..;.6.l.b.r.<.9.k.w.1.p.v.f.w.E.].U.3.3.u.p.o > > > > > > > , , , , > > > > : ; - ",
"> > > > > > : : : > > > > > > > o +.J A / ) Q  .4.8.k.m.k.w.9.g.g.u.z.M.g.f.Q._.F.r.f.0.r.o > > : : : > > > > > > > > > : : ; - ",
"> , , > > > > : > > , , , , > > o @.J S _ } _ X.9.6.f.M.k.3.5.u.t.a.x.v.a.f.A.Y.B.6.p.6.2.o > > > > > > > , , , , > > > > : ; - ",
", , , , > , > , , < < < < < < < o %.L F ] ..] %.f.7.e.l.j.e.8.0.w.f.k.h.1.] i.).U.+.=.5.-.o , , , > , , < , < < < , , , > : : - ",
"< < < , , , , , , < < < < < < < o =.I H } X.[ 6.P.a.6.p.e.7.y.t.w.0.p.p.#._ s.R.7._ <.2.O.o , , , , < < < < < < < , , , , , > : ",
"1 < < < , , , < < 1 1 1 1 1 < < o ;.J N ] X.] :.E.m.,.w.w.-.,.<.<.6.y.9.{ ` u.b.{ / 2.#.[ o < < , < < 1 1 1 1 1 1 < < , , , , < ",
"1 1 < < < , < < < 1 1 1 1 1 1 1 o ;.J n ' O.( U O.<.*.:.w.y.0.9.e.t.0.;.Q N W *.D N G s x o < < < 1 1 1 1 1 1 1 1 < < < < < < < ",
"1 < 1 1 1 1 1 1 1 1 1 1 1 1 1 1 o #.] { $.O.] U A ( <.%.&.u.j.g.u.6.9.,.U Y _ } ^ / W v t o 1 1 1 1 1 1 1 1 1 1 1 1 1 < < < < < ",
"1 < < 1 1 1 1 1 1 1 1 1 1 1 1 1 o O.*.w.u.w.e.w.p.y.5.3.&.+.O.#.;.6.u.w.( *.j.a.f.f.f.y.,.o 1 1 1 1 1 1 1 1 1 1 1 1 1 < < < 1 1 ",
"1 1 1 < 1 1 1 1 1 1 1 2 2 2 1 1 o c.v.N.B.V.F.E.T.f.3.q.9.0.6.6.r.u.u.d.<.+.k.C.N.B.C.A.S.o 1 1 1 2 2 2 2 1 1 1 1 1 1 1 1 1 1 1 ",
"1 1 1 1 1 1 1 2 2 2 2 2 2 2 2 1 o J.P.L.K.H.Z.N.0.>.4.t.0.w.f.u.r.u.y.u.=.L $.c.G.U.K.J.K.o 1 2 2 2 2 2 2 2 2 1 1 1 1 1 1 1 1 1 ",
"1 1 1 1 1 1 1 1 2 2 2 3 2 2 2 1 o c.k.E.^.W.5.b W 2.6.i.u.8.8.0.r.u.u.w.I d C <.T.C.d.n.n.o 2 2 2 3 3 3 3 2 2 2 2 1 1 1 1 1 1 1 ",
"1 1 1 1 1 1 1 2 2 2 3 3 2 2 2 2 o E.a.N.d.E 0 7 n #.w.u.f.s.p.p.p.u.q.U r q i J N.M.S.Q.!.o 3 3 3 3 3 3 3 3 2 2 2 1 1 1 2 2 2 2 ",
"1 1 1 1 1 2 2 2 3 3 3 3 3 3 3 3 o W.*.C t 2 7 5 1 d ! %.w.p.u.y.2.` n 8 8 q r e T #.Z./.E.o 3 4 4 4 4 4 4 3 3 2 2 1 2 2 3 2 2 2 ",
"1 2 2 2 2 2 2 3 3 3 3 3 3 3 3 3 o ( a 7 9 w 0 7 6 3 1 9 j V Z n a 3 2 7 6 e e 5 5 i ) H.x.o 5 4 4 4 4 4 4 3 3 3 3 3 3 3 2 3 2 2 ",
"2 2 2 2 2 3 2 3 3 4 4 3 3 3 3 3 o < 7 0 9 9 9 7 7 7 8 5 1 > : , 4 7 8 7 7 0 q 7 7 r 2 b ( o 4 5 5 5 5 5 5 4 4 3 3 3 3 3 3 3 3 3 ",
"2 2 3 3 3 2 3 3 3 3 4 3 3 3 3 4 o o o o o o o o o o o o o o o o o o o o o o o o o o o o o o 6 6 6 5 5 5 4 4 3 3 3 3 3 4 4 4 3 3 ",
"1 1 1 2 3 3 3 3 4 3 4 3 4 4 5 5 6 6 6 6 6 7 7 6 6 6 5 5 6 6 6 6 7 7 7 7 7 7 6 6 6 5 5 5 6 6 6 6 6 5 6 5 5 5 4 4 3 4 4 4 4 4 3 3 ",
": , 1 , 2 2 2 2 < 1 1 1 1 1 4 4 3 5 5 5 5 5 7 7 5 6 5 5 5 6 7 7 7 7 7 7 7 7 7 6 6 6 6 6 7 7 7 7 6 6 6 5 5 4 4 5 5 5 5 5 4 4 3 3 ",
"D D D D D D D D D D D D D D D D D D D D D D D D D D D D D D D D D D D D D D D D D D D D D D D D D D D D D D D D D D D D D D D D ",
"f f h f f h h f f f f f f f f f h f h f h f f f f f f f h f f h h f f f f f f h f f h h f f f f f f f f f h f h f h f f f f f f ",
"f h f f f f h f f f f f h f f h f f f h f h f h f f f h f f f f h f f f f f h f f f f h f f f f f h f f h f f f h f h f h f f f ",
"f f h f f f f f f f f h f h f f f f f f f f h f f f f f h f f f f f f f f f f h f f f f f f f f h f h f f f f f f f f h f f f f ",
"f f f h f f f f f f f f h f h f f f f f f f f f f f f f f h f f f f f f f f f f h f f f f f f f f h f h f f f f f f f f f f f f ",
"f f f h f h f h f f f h f f h f f f f f h f f f f h f f f f f h f f f f h f f f h f h f h f f f h f f h f f f f f h f f f f h f ",
"@ @ @ @ @ @ @ @ @ @ @ @ @ @ @ @ @ @ @ @ @ @ @ @ @ @ @ @ @ @ @ @ @ @ @ @ @ @ @ @ @ @ @ @ @ @ @ @ @ @ @ @ @ @ @ @ @ @ @ @ @ @ @ @ ",
"> > > > > > > > > > > > > > > > > > > > > > > > > > > > > > > > > > > > > > > > > > > > > > > > > > > > > > > > > > > > > > > > ",
"1 1 1 1 1 1 1 1 1 1 1 1 1 1 1 1 1 1 1 1 1 1 1 1 1 1 1 1 1 1 1 1 1 1 1 1 1 1 1 1 1 1 1 1 1 1 1 1 1 1 1 1 1 1 1 1 1 1 1 1 1 1 1 1 ",
"1 h x x N Y Y Y Y Y Y Y Y Y Y Y Y Y Y Y Y Y Y Y Y Y N x x h > 1 1 h x x N Y Y Y Y Y Y Y Y Y Y Y Y Y Y Y Y Y Y Y Y Y N x x h > 1 ",
"1 i ( Y Y N x Y ( Y Y x h x D Y Y ( ( ( D D h D N N N x i f > 1 1 i D Y Y Y D h f h D x N D N i x h Y N Y D D D D i f i w f > 1 ",
"1 i o.D D x D D ( D Y h f f D x Y Y Y N x D x N x N N h w f > 1 1 i N o.Y ( D x i N x x N N f f D h N x D Y ( Y x x f i i f > 1 ",
"1 i ( D Y N D N Y N N x h f h D Y D N N D Y N x f D x i w f > 1 1 i N Y D Y Y N i f x f N h f N Y x N N Y ( ( N D x f f f f > 1 ",
"1 i Y D Y ( D Y x D N N x h N D Y D N D D D N h f D x f i f > 1 1 i Y D D Y ( N h x h x N x h x D N h N Y Y ( N D D h i x f > 1 ",
"1 i Y Y ( ( ( D Y x Y f x x x D ( x N D D D Y x x D f f f f > 1 1 i Y D D Y N x x h f D x N N N Y D h D N D D D N D x i f f > 1 ",
"1 i D Y Y ( ( ( D x Y f x x h N Y h D N D x D D N x x f h f > 1 1 i Y D D ( N N x f h D x D D x N D h Y f x N D N Y x f h f > 1 ",
"1 i D D ( ( ( ( x h N i D x x D Y x x D x h D Y x N N f x f > 1 1 i o.Y Y ( D x h f x x N D D h D x x D h x D N D ( D N x f > 1 ",
"1 i D ( Y ( Y Y N f x x N D h D N f x D x D D D D D x i h f > 1 1 i ( ( ( Y D x f w f i N N D D Y h x N x x Y D Y o.Y Y h f > 1 ",
"1 i N Y Y Y ( Y x h x N N N N D x f h D N N N D D D x f x f > 1 1 i ( ( Y ( x N N h f w D N h D D x f D x D D x Y ( Y Y N f > 1 ",
"1 i D ( Y D Y Y h x D x x N N x h i h D x x N Y D D x f i f > 1 1 i ( ( Y Y N N Y N x f h h i D D Y f N x N D D ( Y D Y N f > 1 ",
"1 i D Y ( D ( N N N x x x N D x f w N D N D Y D D D x h x f > 1 1 i Y ( Y D Y x Y D x f h f f D D N N x f N Y D Y Y D D x f > 1 ",
"1 w w w 5 1 > > > @ @ @ @ @ @ @ @ @ @ @ @ > > > > 1 5 w w w > 1 1 w w w 5 1 > > > @ @ @ @ @ @ @ @ @ @ @ @ > > > > 1 5 w w w > 1 ",
"1 @ @ @ @ @ @ @ @ @ @ @ @ @ @ @ @ @ @ @ @ @ @ @ @ @ @ @ @ @ @ 1 1 @ @ @ @ @ @ @ @ @ @ @ @ @ @ @ @ @ @ @ @ @ @ @ @ @ @ @ @ @ @ 1 ",
"1 1 1 1 1 1 1 1 1 1 1 1 1 1 1 1 1 1 1 1 1 1 1 1 1 1 1 1 1 1 1 1 1 1 1 1 1 1 1 1 1 1 1 1 1 1 1 1 1 1 1 1 1 1 1 1 1 1 1 1 1 1 1 1 "
};
