/* XPM */
static char *_b90b99304184680d6844d0cb8eddd37_1[] = {
/* columns rows colors chars-per-pixel */
"54 96 64 1 ",
"  c #0000A8",
". c #D8D8FC",
"X c #B8BCFC",
"o c #9C9CFC",
"O c #7C80FC",
"+ c #5C60FC",
"@ c #4040FC",
"# c #2024FC",
"$ c #0000FC",
"% c #0000E0",
"& c #0000D4",
"* c #0000C8",
"= c #0000BC",
"- c #0000B0",
"; c #0000A4",
": c #000098",
"> c #000088",
", c #00007C",
"< c #000070",
"1 c #000064",
"2 c #000058",
"3 c #00004C",
"4 c #000040",
"5 c #FCCCB0",
"6 c #FCC4A4",
"7 c #FCB890",
"8 c #FCB080",
"9 c #FCA470",
"0 c #F0945C",
"q c #E88C58",
"w c #DC8854",
"e c #D08050",
"r c #C87C4C",
"t c #B47044",
"y c #A86840",
"u c #885830",
"i c #80502C",
"p c None",
"a c #FCBC9C",
"s c #FC9C60",
"d c black",
"f c #00002C",
"g c #A80000",
"h c #FC0000",
"j c #C80000",
"k c #A40000",
"l c #7C0000",
"z c #FCF400",
"x c black",
"c c black",
"v c black",
"b c black",
"n c black",
"m c black",
"M c black",
"N c black",
"B c black",
"V c black",
"C c black",
"Z c black",
"A c black",
"S c black",
"D c black",
"F c black",
/* pixels */
"ppppppppppppppppppppplllpppppppppppppppppppppppppppppp",
"ppppppppppppppppppppplllpppppppppppppppppppppppppppppp",
"ppppppppppppppppppppplllpppppppppppppppppppppppppppppp",
"pppppppppppppppppplllkkklllppppppppppppppppppppppppppp",
"pppppppppppppppppplllkkklllppppppppppppppppppppppppppp",
"pppppppppppppppppplllkkklllppppppppppppppppppppppppppp",
"ppppppppppppppppppkkkhhhkkkppppppppppppppppppppppppppp",
"ppppppppppppppppppkkkhhhkkkppppppppppppppppppppppppppp",
"ppppppppppppppppppkkkhhhkkkppppppppppppppppppppppppppp",
"ppppppppppppppphhhjjjzzzjjjhhhpppppppppppppppppppppppp",
"ppppppppppppppphhhjjjzzzjjjhhhpppppppppppppppppppppppp",
"ppppppppppppppphhhjjjzzzjjjhhhpppppppppppppppppppppppp",
"ppppppppppppppphhhhhhzzzhhhhhhpppppppppppppppppppppppp",
"ppppppppppppppphhhhhhzzzhhhhhhpppppppppppppppppppppppp",
"ppppppppppppppphhhhhhzzzhhhhhhpppppppppppppppppppppppp",
"pppppppppllljjjhhhzzz$$$zzzhhhjjjlllpppppppppppppppppp",
"pppppppppllljjjhhhzzz$$$zzzhhhjjjlllpppppppppppppppppp",
"pppppppppllljjjhhhzzz$$$zzzhhhjjjlllpppppppppppppppppp",
"ppppppkkkjjjhhhzzz@@@$$$<<<zzzhhhjjjgggppppppppppppppp",
"ppppppkkkjjjhhhzzz@@@$$$<<<zzzhhhjjjgggppppppppppppppp",
"ppppppkkkjjjhhhzzz@@@$$$<<<zzzhhhjjjgggppppppppppppppp",
"lllkkkjjjhhhzzz;;;+++$$$<<<<<<zzzhhhjjjggglllppppppppp",
"lllkkkjjjhhhzzz;;;+++$$$<<<<<<zzzhhhjjjggglllppppppppp",
"lllkkkjjjhhhzzz;;;+++$$$<<<<<<zzzhhhjjjggglllppppppppp",
"pppppplllkkkhhh>>>+++$$$<<<444hhhggglllppppppppppppppp",
"pppppplllkkkhhh>>>+++$$$<<<444hhhggglllppppppppppppppp",
"pppppplllkkkhhh>>>+++$$$<<<444hhhggglllppppppppppppppp",
"ppppppppppppkkk>>>OOO$$$<<<444kkkppppppppppppppppppppp",
"ppppppppppppkkk>>>OOO$$$<<<444kkkppppppppppppppppppppp",
"ppppppppppppkkk>>>OOO$$$<<<444kkkppppppppppppppppppppp",
"pppppppppppp$$$<<<ooo$$$>>>444===ppppppppppppppppppppp",
"pppppppppppp$$$<<<ooo$$$>>>444===ppppppppppppppppppppp",
"pppppppppppp$$$<<<ooo$$$>>>444===ppppppppppppppppppppp",
"pppppppppppp$$$<<<ooo###>>>444===ppppppppppppppppppppp",
"pppppppppppp$$$<<<ooo###>>>444===ppppppppppppppppppppp",
"pppppppppppp$$$<<<ooo###>>>444===ppppppppppppppppppppp",
"pppppppppppp$$$111ooo###;;;444===wwwpppppppppppppppppp",
"pppppppppppp$$$111ooo###;;;444===wwwpppppppppppppppppp",
"pppppppppppp$$$111ooo###;;;444===wwwpppppppppppppppppp",
"pppppppppppp$$$333XXX===;;;444===000wwwppppppppppppppp",
"pppppppppppp$$$333XXX===;;;444===000wwwppppppppppppppp",
"pppppppppppp$$$333XXX===;;;444===000wwwppppppppppppppp",
"pppppppppppp$$$444...===;;;444===qqq000eeepppppppppppp",
"pppppppppppp$$$444...===;;;444===qqq000eeepppppppppppp",
"pppppppppppp$$$444...===;;;444===qqq000eeepppppppppppp",
"pppppppppyyy$$$<<<XXX======444===wwwqqqwwwqqqppppppppp",
"pppppppppyyy$$$<<<XXX======444===wwwqqqwwwqqqppppppppp",
"pppppppppyyy$$$<<<XXX======444===wwwqqqwwwqqqppppppppp",
"ppppppeee999ooo>>>+++::::::,,,222yyywwwqqqwwwrrrpppppp",
"ppppppeee999ooo>>>+++::::::,,,222yyywwwqqqwwwrrrpppppp",
"ppppppeee999ooo>>>+++::::::,,,222yyywwwqqqwwwrrrpppppp",
"pppppp999999ooo+++@@@%%%***:::222yyywww999wwwrrrpppppp",
"pppppp999999ooo+++@@@%%%***:::222yyywww999wwwrrrpppppp",
"pppppp999999ooo+++@@@%%%***:::222yyywww999wwwrrrpppppp",
"pppppp777888OOO---&&&:::>>>333222yyyqqq000www999pppppp",
"pppppp777888OOO---&&&:::>>>333222yyyqqq000www999pppppp",
"pppppp777888OOO---&&&:::>>>333222yyyqqq000www999pppppp",
"pppppp999777@@@===   <<<>>>,,,222rrrwwwwwwwwwqqqpppppp",
"pppppp999777@@@===   <<<>>>,,,222rrrwwwwwwwwwqqqpppppp",
"pppppp999777@@@===   <<<>>>,,,222rrrwwwwwwwwwqqqpppppp",
"pppppp666555666888iiiuuuiiitttwwwqqqwwwqqqeeewwwpppppp",
"pppppp666555666888iiiuuuiiitttwwwqqqwwwqqqeeewwwpppppp",
"pppppp666555666888iiiuuuiiitttwwwqqqwwwqqqeeewwwpppppp",
"pppppp666555666666777999www000000000qqqwwweeerrrpppppp",
"pppppp666555666666777999www000000000qqqwwweeerrrpppppp",
"pppppp666555666666777999www000000000qqqwwweeerrrpppppp",
"pppppp999aaa777777777999000000000000qqqwwweeerrrpppppp",
"pppppp999aaa777777777999000000000000qqqwwweeerrrpppppp",
"pppppp999aaa777777777999000000000000qqqwwweeerrrpppppp",
"pppppprrr999999999999999999000000000wwwwwweeeppppppppp",
"pppppprrr999999999999999999000000000wwwwwweeeppppppppp",
"pppppprrr999999999999999999000000000wwwwwweeeppppppppp",
"pppppppppsss999999999999999999999000qqqeeeeeeppppppppp",
"pppppppppsss999999999999999999999000qqqeeeeeeppppppppp",
"pppppppppsss999999999999999999999000qqqeeeeeeppppppppp",
"ppppppppprrrssssssssssss999999sss000eeeeeerrrppppppppp",
"ppppppppprrrssssssssssss999999sss000eeeeeerrrppppppppp",
"ppppppppprrrssssssssssss999999sss000eeeeeerrrppppppppp",
"ppppppppppppyyysssssssss999999ssssssqqqeeeeeeppppppppp",
"ppppppppppppyyysssssssss999999ssssssqqqeeeeeeppppppppp",
"ppppppppppppyyysssssssss999999ssssssqqqeeeeeeppppppppp",
"ppppppppppppdddwww999999999888999888000000wwweeepppppp",
"ppppppppppppdddwww999999999888999888000000wwweeepppppp",
"ppppppppppppdddwww999999999888999888000000wwweeepppppp",
"pppppppppppp---222qqq777777888777777999999wwwwwwpppppp",
"pppppppppppp---222qqq777777888777777999999wwwwwwpppppp",
"pppppppppppp---222qqq777777888777777999999wwwwwwpppppp",
"pppppppppppp***---ttt888666666aaa777777999999wwweeeppp",
"pppppppppppp***---ttt888666666aaa777777999999wwweeeppp",
"pppppppppppp***---ttt888666666aaa777777999999wwweeeppp",
"pppppppppppp>>>fff222qqq777666666666777999999999wwwppp",
"pppppppppppp>>>fff222qqq777666666666777999999999wwwppp",
"pppppppppppp>>>fff222qqq777666666666777999999999wwwppp",
"pppppppppppppppppppppqqq888666666666777777999000qqqwww",
"pppppppppppppppppppppqqq888666666666777777999000qqqwww",
"pppppppppppppppppppppqqq888666666666777777999000qqqwww"
};
