/* XPM */
static char *_1335_f1a730a3004b7b4917e852a4bf08b936810b5ed552c75795ac0a73ee9723cb18[] = {
/* columns rows colors chars-per-pixel */
"64 64 41 1 ",
"  c black",
". c #101010",
"X c #131313",
"o c gray8",
"O c #161616",
"+ c gray9",
"@ c #181818",
"# c #191919",
"$ c gray10",
"% c #1B1B1B",
"& c gray11",
"* c #1D1D1D",
"= c #1E1E1E",
"- c gray12",
"; c #202020",
": c gray13",
"> c #222222",
", c #232323",
"< c gray14",
"1 c #252525",
"2 c gray15",
"3 c #272727",
"4 c #282828",
"5 c gray16",
"6 c #2A2A2A",
"7 c gray17",
"8 c #2D2D2D",
"9 c #2F2F2F",
"0 c gray19",
"q c #353535",
"w c gray21",
"e c #393939",
"r c #3C3C3C",
"t c gray24",
"y c #414141",
"u c gray28",
"i c #4E4E4E",
"p c #555555",
"a c #5F5F5F",
"s c #6A6A6A",
"d c #777777",
/* pixels */
"ttttttttttttytyttttttttyttttttttttyttttttttttttttytyttttttttyttt",
"ttttyttttttttytyttttttttyttttttttttytttttyttttttttytyttttttttytt",
"tttytytytttyttytttttyttttytttttyttttytttytytytttyttytttttyttttyt",
"ttttttytytytttttttttyyttyttttttyyttytttttttytytytttttttttyyttytt",
"0000000000000000000000000000000000000000000000000000000000000000",
"1244444444455666555667777777666677777777766666676665554444454443",
"2333443333334566556666767666666666676766765666656565554444444343",
"1233233223444555554555556666656655666666555554455555554433233433",
"2123222234455554443334566666554444566666554333445555544322223343",
"2232222233444444333344555555543345555554444333454444333322333332",
"2222211123344333333444445544333345555444333344344444322222333222",
"1222212224333333232334444443333333444433333233433333222222222221",
"2122222223333322112233333333222233333332222223333332211112222211",
"1111111113222221112233333222212233333222222232222222111112111111",
"1111111112121111222222222211111111222221111222222221111111111111",
"11111111111111111111112111<,>,,<11111111111111111111111111111111",
"11111<<11111111111111111<>:;-;;;:>,,1<1<111111111111<<<1111111<,",
"11<<<<<<<<111111111111,,>;-=**&=--:>>,<<1111111111<1<1<1<1<<<<,>",
"<<<,,,,<,,<<1111<<<<1<,:-&%$-79ee97-:,<<<<<111111<<<<<<<1<<<<<>:",
",,,>,,,,>,,,11<<<<<<<<>-*$@**379973**:,,,,<<<<<<<<,,,,,<<<<<,,>:",
"::::>>>,>,,,<<,,<,<<,>:-%#OO-79ee97-O>,1<<<,<,<,,,,,,,<<<,,,>>:;",
",:>>>>>>>>>,,,,>,>>>>:-=%+oX7  77  7X;,1<<<,,,>>>>>>>,,,,>>>>:;-",
">>>>>>:::>>>>>>>>>>>:;-=$+oX7X*,,*X7X-><1<<<,>>>:::>>>>>>>>>::;-",
">,,>>>>:>>,,,,>>>>>>>;-=%@oX3q9..9q3X::,,,<<,,>>>>>>>,,,,>>>>:;-",
",,,,>,>,,<<<<<<<<,,,>>:-*$+O-58OO85-O:<<<<<<<,,,,>,,<,<<<,,,>::-",
"<<<,,,,,,<<<<<<<<<,,,,,:-&#OO,9rr9,O:,<<<<<<<<,,,,<<<<<<<,,,,,>:",
"1<<<,,,<<11111<<<<<<<<<>:-%#+,-XX-,;><111111<<<<,<<111111<<,,,,<",
"11<<<,<<<11111111<<<<<<<,:-&$O####O><11111111<<<<11111111<<<<<<<",
"1<1111111111111111<<1111<,:--===-;><11111111111111111111111<<<<<",
"1<<11111111111111111111211<,>::::><122222211111111111111111<<<11",
"111<1111111222111111222221111,,<<1122222222211111222211111111111",
"1111111222222221111223333332111112223333332222122222222111111111",
"1111111122232221112233333333322122333333333322222333322221111111",
"1111111222332222233444444433322233344444433332333333332221112222",
"1111122233333333334444445443333445555555443333344444433221223222",
"1222222333333333344555555444443455555555444444544444433333332322",
"2222232334433333445555666544444566666666554444455555544333333333",
"2233323333433334556666656555556666666666555555666555443333344433",
"1112333343434455666667766655666677777766655566666565554434444433",
":,1,2222<1111144355555775655567777777776666677776665544555554433",
"pppppppppppppppppppppppppppppppppppppppppppppppppppppppppppppppp",
"ttyttyytttttttttytytytttttttyttyyttttttyttyytttttttttytytytttttt",
"tyttttytttttyttytttytytytttyttttytttttyttttytttttyttytttytytyttt",
"ttyttttttttytyttttttttytttttyttttttttttyttttttttytyttttttttytttt",
"tttyttttttttytyttttttttttttttyttttttttttyttttttttytytttttttttttt",
"tttytytytttyttytttttyttttytttttyttttytttytytytttyttytttttyttttyt",
"@@@@@@@@@@@@@@@@@@@@@@@@@@@@@@@@@@@@@@@@@@@@@@@@@@@@@@@@@@@@@@@@",
">>>>>>>>>>>>>>>>>>>>>>>>>>>>>>>>>>>>>>>>>>>>>>>>>>>>>>>>>>>>>>>>",
"1111111111111111111111111111111111111111111111111111111111111111",
"1yuuiaaaaaaaaaaaaaaaaaaaaaiuuy>11yuuiaaaaaaaaaaaaaaaaaaaaaiuuy>1",
"1wsaaiuasaauyupaasssppypiiiuwt>11wpaaapytypuipiwuyaiappppwtw0t>1",
"1wdppuppspayttpuaaaiupuiuiiy0t>11widaspuwiuuiittpyiupasauutwwt>1",
"1wspaipiaiiuytypapiipaiutpuw0t>11wiapaaiwtutiytiauiiassiputttt>1",
"1wapaspaupiiuyipapipppiytputwt>11wappasiyuyuiuyupiyiaasippywut>1",
"1waassspauatuuupsuipppauuptttt>11wappaiuuytpuiiiapypipppipuwtt>1",
"1wpaassspuatuuyiaypipuppiuutyt>11wappsiiutypuppuipyatuipiautyt>1",
"1wppssssuyiwpuupauupuypauiitut>11wdaaspuytuuippypuupyupipspiut>1",
"1wpsasaaituuipypitupupppppuwyt>11wsssaput0twiippayuiuuapadaayt>1",
"1wiaaasauyuiiiiputypiiippputut>11wssasuiiyt0piypputpuppuasaait>1",
"1wpsapaayupuuiiuywypuuiapputwt>11wssaaiiaiutyywppatiuippsapait>1",
"1wpaspsiiiuuuiput0ipipapppuyut>11wasapauaputyttppiiutiapaapput>1",
"100051>>>@@@@@@@@@@@@>>>>15000>1100051>>>@@@@@@@@@@@@>>>>15000>1",
"1@@@@@@@@@@@@@@@@@@@@@@@@@@@@@@11@@@@@@@@@@@@@@@@@@@@@@@@@@@@@@1",
"1111111111111111111111111111111111111111111111111111111111111111"
};
