/* XPM */
static char *_6365_378d7b132e7102bbfb05ba3da6fc3ec164f97cb83e3369d4059dd502c5e97c63[] = {
/* columns rows colors chars-per-pixel */
"64 64 36 1 ",
"  c black",
". c #0C0C0C",
"X c #0E0E0E",
"o c gray6",
"O c #101010",
"+ c #111111",
"@ c gray7",
"# c #131313",
"$ c gray8",
"% c #151515",
"& c #161616",
"* c gray9",
"= c #181818",
"- c #191919",
"; c gray10",
": c #1B1B1B",
"> c gray11",
", c #1D1D1D",
"< c #1E1E1E",
"1 c gray12",
"2 c #202020",
"3 c gray13",
"4 c #232323",
"5 c gray14",
"6 c #282828",
"7 c #2A2A2A",
"8 c #2C2C2C",
"9 c gray18",
"0 c #2F2F2F",
"q c #313131",
"w c #373737",
"e c #3C3C3C",
"r c #414141",
"t c #494949",
"y c #515151",
"u c #5B5B5B",
/* pixels */
"000000000000q0q00000000q0000000000q00000000000000q0q00000000q000",
"0000q00000000q0q00000000q0000000000q00000q00000000q0q00000000q00",
"000q0q0q000q00q00000q0000q00000q0000q000q0q0q000q00q00000q0000q0",
"000000q0q0q000000000qq00q000000qq00q0000000q0q0q000000000qq00q00",
"5555555555555555555555555555555555555555555555555555555555555555",
",,1111111111122211122333333322223333333332222223222111111111111<",
",<<<11<<<<<<1122112222323222222222232322321222212121111111111<1<",
",,<<,<<,,<1111111111111122222122112222221111111111111111<<,<<1<<",
",,,<,,,,<111111111<<<1122222111111122222111<<<111111111<,,,,<<1<",
",,<,,,,,<<111111<<<<1111111111<<11111111111<<<111111<<<<,,<<<<<,",
",,,,,,,,,<<11<<<<<<111111111<<<<11111111<<<<11<11111<,,,,,<<<,,,",
",,,,,,,,,1<<<<<<,<,<<111111<<<<<<<1111<<<<<,<<1<<<<<,,,,,,,,,,,,",
",,,,,,,,,<<<<<,,,,,,<<<<<<<<,,,,<<<<<<<,,,,,,<<<<<<,,,,,,,,,,,,,",
",,,,,>,,,<,,,,,,,,,,<<<<<,,,,,,,<<<<<,,,,,,,<,,,,,,,,,,,,,,,,,,>",
">,,>,>,,,,,,,,,,,,,,,,,,,,>>>>,,,,,,,,,,,,,,,,,,,,,,,>>>,,,,,,>>",
">,>>>>>>>,,,,,,,,,,>,,,,>>::;:::>>,,,,,>>>>,,,,,,,,,>>>>>,,,,,>>",
">>>>>::>>,,,>>>>>>>>,,>>:;--=----;::>:>:>>,,,,,,,>>>:::>,>>>>>::",
">>::::::::>>>>>>>>>>,>::;-**&&%**=-;;:::>>,,,,>>>>:>:>:>:>:::::;",
"::::::::::::>>>>::::>::-=%%$*358853*-::::::>>>>>>:::::::>:::::;-",
":::;::::;:::>>::::::::;=&$@&&<3553<&&-::::::::::::::::::::::::;-",
"----;;;:;::::::::::::;-*%#++*358853*+;:>::::::::::::::::::::;;--",
":-;;;;;;;;;::::;:;;;;-=*%@OX3  33  3X-:>::::::;;;;;;;::::;;;;--=",
";;;;;;---;;;;;;;;;;;--=*$@oX3X&::&X3X=;:>::::;;;---;;;;;;;;;---*",
";::;;;;-;;::::;;;;;;;-=*%@OX<65..56<X--:::::::;;;;;;;::::;;;;--*",
"::::;:;:::::::::::::;;-=&$@+*14++41*+-:::::::::::;::::::::::;--*",
":::::::::::::::::::::::-*%#++:5995:+-:::::::::::::::::::::::::;-",
">::::::::>>>>>:::::::::;-*%#@:*XX*:-;:>>>>>>:::::::>>>>>>:::::::",
">>:::::::>>>>>>>>::::::::-*%$+####+;:>,,,,,,>::::>>>>>>>>:::::::",
">:>>>>>>>>,,,,,>>>::>,,>::-=*****-;:>,,,,,,,>>>>>>>,,,,,,>>:::::",
">::>>>>>>,,,,,,>>>>>,,,,,>::;----;:>,,,,,,,,,>>>>,,,,,,,>>>:::>>",
">>>:>>>>,,,,,,,,,,,,,,,,,,,>>::::>,,,,,,,,,,,,>,,,,,,,,,,>>>>>,,",
">>>>>>,,,,,,,,,,,>,,,<<<<<<,,,,,,,,,<<<<<<,,,,,,,,,,,,,,,,>,,,,,",
",>,>>>>,,,,<,,,,,,,,<<<<<<<<<,,,,,<<<<<<<<<<,,,,,<<<<,,,,,,,,,,,",
",,>>>,,,,,<<,,,,,<<1111111<<<,,,<<<111111<<<<,<<<<<<<<,,,,,,,,,,",
",,,>,,,,<<<<<<<<<<111111111<<<<11111111111<<<<<111111<<,,,,,<,,,",
",,,,,,,<<<<<<<<<<1111111111111<1111111111111111111111<<<<<<<,<,,",
",,,,,<,<<11<<<<<111111222111111122222222111111111111111<<<<<<<<<",
",,<<<,<<<<1<<<<111222221211111222222222211111122211111<<<<<111<<",
">,,,<<<<1<1<11112222233222112222333333222111222221211111<11111<<",
"-:>:,,,,:>>,>,11<111113312111233333333322222333322211111111111<<",
"rrrrrrrrrrrrrrrrrrrrrrrrrrrrrrrrrrrrrrrrrrrrrrrrrrrrrrrrrrrrrrrr",
"00q00qq000000000q0q0q0000000q00qq000000q00qq000000000q0q0q000000",
"0q0000q00000q00q000q0q0q000q0000q00000q0000q00000q00q000q0q0q000",
"00q00000000q0q00000000q00000q0000000000q00000000q0q00000000q0000",
"000q00000000q0q00000000000000q0000000000q00000000q0q000000000000",
"000q0q0q000q00q00000q0000q00000q0000q000q0q0q000q00q00000q0000q0",
"@@@@@@@@@@@@@@@@@@@@@@@@@@@@@@@@@@@@@@@@@@@@@@@@@@@@@@@@@@@@@@@@",
";;;;;;;;;;;;;;;;;;;;;;;;;;;;;;;;;;;;;;;;;;;;;;;;;;;;;;;;;;;;;;;;",
",,,,,,,,,,,,,,,,,,,,,,,,,,,,,,,,,,,,,,,,,,,,,,,,,,,,,,,,,,,,,,,,",
",qwwetttttttttttttttttttttewwq;,,qwwetttttttttttttttttttttewwq;,",
",7yttewtyttwqwrttyyyrrqreeew70;,,7rtttrq0qrwere7wqtetrrrr70750;,",
",7urrwrryrtq00rwtttewrweweeq50;,,7eutyrw7ewwee00rqewrtytww0770;,",
",7yrtereteewq0qrtreertew0rw750;,,7etrtte70w0eq0etweetyyerw0000;,",
",7trtyrtwreewqertrerrreq0rw070;,,7trrtyeqwqwewqwreqettyerrq7w0;,",
",7ttyyyrtwt0wwwrywerrrtwwr0000;,,7trrtewwq0rweeetrqrerrrerw700;,",
",7rttyyyrwt0wwqetqrerwrreww0q0;,,7trryeew0qrwrrwerqt0weretw0q0;,",
",7rryyyywqe7rwwrtwwrwqrtwee0w0;,,7uttyrwq0wwerrqrwwrqwreryrew0;,",
",7rytytte0wwerqre0wrwrrrrrw7q0;,,7yyytrw0507eerrtqwewwtrtuttq0;,",
",7etttytwqweeeerw0qreeerrrw0w0;,,7yytyweeq05reqrrw0rwrrwtytte0;,",
",7rytrttqwrwweewq7qrwwetrrw070;,,7yytteetew0qq7rrt0ewerrytrte0;,",
",7rtyryeeewwwerw05erertrrrwqw0;,,7tytrtwtrw0q00rreew0etrttrrw0;,",
",5551,;;;@@@@@@@@@@@@;;;;,1555;,,5551,;;;@@@@@@@@@@@@;;;;,1555;,",
",@@@@@@@@@@@@@@@@@@@@@@@@@@@@@@,,@@@@@@@@@@@@@@@@@@@@@@@@@@@@@@,",
",,,,,,,,,,,,,,,,,,,,,,,,,,,,,,,,,,,,,,,,,,,,,,,,,,,,,,,,,,,,,,,,"
};
