/* XPM */
static char *_b90b99304184680d6844d0cb8eddd37_2[] = {
/* columns rows colors chars-per-pixel */
"51 84 64 1 ",
"  c #0000A8",
". c #D8D8FC",
"X c #B8BCFC",
"o c #9C9CFC",
"O c #7C80FC",
"+ c #5C60FC",
"@ c #4040FC",
"# c #2024FC",
"$ c #0000FC",
"% c #0000E0",
"& c #0000D4",
"* c #0000C8",
"= c #0000BC",
"- c #0000B0",
"; c #0000A4",
": c #000098",
"> c #000088",
", c #00007C",
"< c #000070",
"1 c #000064",
"2 c #000058",
"3 c #00004C",
"4 c #000040",
"5 c #FCCCB0",
"6 c #FCC4A4",
"7 c #FCB890",
"8 c #FCB080",
"9 c #FCA470",
"0 c #F0945C",
"q c #E88C58",
"w c #DC8854",
"e c #D08050",
"r c #C87C4C",
"t c #B47044",
"y c #A86840",
"u c #885830",
"i c #80502C",
"p c #000034",
"a c #FCBC9C",
"s c #FC9C60",
"d c black",
"f c #00002C",
"g c None",
"h c #FC0000",
"j c #C80000",
"k c #A40000",
"l c #7C0000",
"z c #FCF400",
"x c black",
"c c black",
"v c black",
"b c black",
"n c black",
"m c black",
"M c black",
"N c black",
"B c black",
"V c black",
"C c black",
"Z c black",
"A c black",
"S c black",
"D c black",
"F c black",
/* pixels */
"ggggggggggggggg$$$ggggggggggggggggggggggggggggggggg",
"ggggggggggggggg$$$ggggggggggggggggggggggggggggggggg",
"ggggggggggggggg$$$ggggggggggggggggggggggggggggggggg",
"gggggggggggg@@@$$$<<<gggggggggggggggggggggggggggggg",
"gggggggggggg@@@$$$<<<gggggggggggggggggggggggggggggg",
"gggggggggggg@@@$$$<<<gggggggggggggggggggggggggggggg",
"ggggggggg;;;+++$$$<<<<<<ggggggggggggggggggggggggggg",
"ggggggggg;;;+++$$$<<<<<<ggggggggggggggggggggggggggg",
"ggggggggg;;;+++$$$<<<<<<ggggggggggggggggggggggggggg",
"ggggggggg>>>+++$$$<<<444ggggggggggggggggggggggggggg",
"ggggggggg>>>+++$$$<<<444ggggggggggggggggggggggggggg",
"ggggggggg>>>+++$$$<<<444ggggggggggggggggggggggggggg",
"ggggggggg>>>OOO$$$<<<pppggggggggggggggggggggggggggg",
"ggggggggg>>>OOO$$$<<<pppggggggggggggggggggggggggggg",
"ggggggggg>>>OOO$$$<<<pppggggggggggggggggggggggggggg",
"gggggg$$$<<<ooo$$$<<<444===gggggggggggggggggggggggg",
"gggggg$$$<<<ooo$$$<<<444===gggggggggggggggggggggggg",
"gggggg$$$<<<ooo$$$<<<444===gggggggggggggggggggggggg",
"gggggg$$$<<<ooo###>>>444===gggggggggggggggggggggggg",
"gggggg$$$<<<ooo###>>>444===gggggggggggggggggggggggg",
"gggggg$$$<<<ooo###>>>444===gggggggggggggggggggggggg",
"gggggg$$$111ooo###;;;444===wwwggggggggggggggggggggg",
"gggggg$$$111ooo###;;;444===wwwggggggggggggggggggggg",
"gggggg$$$111ooo###;;;444===wwwggggggggggggggggggggg",
"gggggg$$$333XXX===;;;444===000wwwgggggggggggggggggg",
"gggggg$$$333XXX===;;;444===000wwwgggggggggggggggggg",
"gggggg$$$333XXX===;;;444===000wwwgggggggggggggggggg",
"gggggg$$$444...===;;;444===qqq000eeeggggggggggggggg",
"gggggg$$$444...===;;;444===qqq000eeeggggggggggggggg",
"gggggg$$$444...===;;;444===qqq000eeeggggggggggggggg",
"gggyyy$$$<<<XXX======444===wwwqqqwwwqqqgggggggggggg",
"gggyyy$$$<<<XXX======444===wwwqqqwwwqqqgggggggggggg",
"gggyyy$$$<<<XXX======444===wwwqqqwwwqqqgggggggggggg",
"eee999ooo>>>+++::::::,,,222yyywwwqqqwwwrrrggggggggg",
"eee999ooo>>>+++::::::,,,222yyywwwqqqwwwrrrggggggggg",
"eee999ooo>>>+++::::::,,,222yyywwwqqqwwwrrrggggggggg",
"999999ooo+++@@@%%%***:::222yyywww999wwwrrrggggggggg",
"999999ooo+++@@@%%%***:::222yyywww999wwwrrrggggggggg",
"999999ooo+++@@@%%%***:::222yyywww999wwwrrrggggggggg",
"777888OOO---&&&:::>>>333222yyyqqq000www999ggggggggg",
"777888OOO---&&&:::>>>333222yyyqqq000www999ggggggggg",
"777888OOO---&&&:::>>>333222yyyqqq000www999ggggggggg",
"999777@@@===   <<<>>>,,,222rrrwwwwwwwwwqqqggggggggg",
"999777@@@===   <<<>>>,,,222rrrwwwwwwwwwqqqggggggggg",
"999777@@@===   <<<>>>,,,222rrrwwwwwwwwwqqqggggggggg",
"666555666888iiiuuuiiitttwwwqqqwwwqqqeeewwwggggggggg",
"666555666888iiiuuuiiitttwwwqqqwwwqqqeeewwwggggggggg",
"666555666888iiiuuuiiitttwwwqqqwwwqqqeeewwwggggggggg",
"666555666666777999www000000000qqqwwweeerrrggggggggg",
"666555666666777999www000000000qqqwwweeerrrggggggggg",
"666555666666777999www000000000qqqwwweeerrrggggggggg",
"999aaa777777777999000000000000qqqwwweeerrrggggggggg",
"999aaa777777777999000000000000qqqwwweeerrrggggggggg",
"999aaa777777777999000000000000qqqwwweeerrrggggggggg",
"rrr999999999999999999000000000wwwwwweeegggggggggggg",
"rrr999999999999999999000000000wwwwwweeegggggggggggg",
"rrr999999999999999999000000000wwwwwweeegggggggggggg",
"gggsss999999999999999999999000qqqeeeeeegggggggggggg",
"gggsss999999999999999999999000qqqeeeeeegggggggggggg",
"gggsss999999999999999999999000qqqeeeeeegggggggggggg",
"gggrrrssssssssssss999999sss000eeeeeerrrgggggggggggg",
"gggrrrssssssssssss999999sss000eeeeeerrrgggggggggggg",
"gggrrrssssssssssss999999sss000eeeeeerrrgggggggggggg",
"ggggggyyysssssssss999999ssssssqqqeeeeeegggggggggggg",
"ggggggyyysssssssss999999ssssssqqqeeeeeegggggggggggg",
"ggggggyyysssssssss999999ssssssqqqeeeeeegggggggggggg",
"ggggggdddwww999999999888999888000000wwweeeggggggggg",
"ggggggdddwww999999999888999888000000wwweeeggggggggg",
"ggggggdddwww999999999888999888000000wwweeeggggggggg",
"gggggg---222qqq777777888777777999999wwwwwwggggggggg",
"gggggg---222qqq777777888777777999999wwwwwwggggggggg",
"gggggg---222qqq777777888777777999999wwwwwwggggggggg",
"gggggg***---ttt888666666aaa777777999999wwweeegggggg",
"gggggg***---ttt888666666aaa777777999999wwweeegggggg",
"gggggg***---ttt888666666aaa777777999999wwweeegggggg",
"gggggg>>>fff222qqq777666666666777999999999wwwgggggg",
"gggggg>>>fff222qqq777666666666777999999999wwwgggggg",
"gggggg>>>fff222qqq777666666666777999999999wwwgggggg",
"gggggggggggggggqqq888666666666777777999000qqqwwwggg",
"gggggggggggggggqqq888666666666777777999000qqqwwwggg",
"gggggggggggggggqqq888666666666777777999000qqqwwwggg",
"gggggggggggggggqqqqqq777666666666777777999000wwwqqq",
"gggggggggggggggqqqqqq777666666666777777999000wwwqqq",
"gggggggggggggggqqqqqq777666666666777777999000wwwqqq"
};
