/* XPM */
static char *_b90b99304184680d6844d0cb8eddd37_4[] = {
/* columns rows colors chars-per-pixel */
"42 48 64 1 ",
"  c #0000A8",
". c #D8D8FC",
"X c #B8BCFC",
"o c #9C9CFC",
"O c #7C80FC",
"+ c #5C60FC",
"@ c #4040FC",
"# c #2024FC",
"$ c #0000FC",
"% c #0000E0",
"& c #0000D4",
"* c #0000C8",
"= c #0000BC",
"- c #0000B0",
"; c #0000A4",
": c #000098",
"> c #000088",
", c #00007C",
"< c #000070",
"1 c #000064",
"2 c #000058",
"3 c #00004C",
"4 c #000040",
"5 c #FCCCB0",
"6 c #FCC4A4",
"7 c #FCB890",
"8 c #FCB080",
"9 c #FCA470",
"0 c #F0945C",
"q c #E88C58",
"w c #DC8854",
"e c #D08050",
"r c #C87C4C",
"t c #B47044",
"y c #A86840",
"u c #885830",
"i c #80502C",
"p c #000034",
"a c None",
"s c #FC9C60",
"d c black",
"f c #00002C",
"g c #A80000",
"h c #FC0000",
"j c #C80000",
"k c #A40000",
"l c #7C0000",
"z c #FCF400",
"x c black",
"c c black",
"v c black",
"b c black",
"n c black",
"m c black",
"M c black",
"N c black",
"B c black",
"V c black",
"C c black",
"Z c black",
"A c black",
"S c black",
"D c black",
"F c black",
/* pixels */
"aaaaaaaaaaaaaaa$$$aaaaaaaaaaaaaaaaaaaaaaaa",
"aaaaaaaaaaaaaaa$$$aaaaaaaaaaaaaaaaaaaaaaaa",
"aaaaaaaaaaaaaaa$$$aaaaaaaaaaaaaaaaaaaaaaaa",
"aaaaaaaaaaaa@@@$$$<<<aaaaaaaaaaaaaaaaaaaaa",
"aaaaaaaaaaaa@@@$$$<<<aaaaaaaaaaaaaaaaaaaaa",
"aaaaaaaaaaaa@@@$$$<<<aaaaaaaaaaaaaaaaaaaaa",
"aaaaaaaaa;;;+++$$$<<<<<<aaaaaaaaaaaaaaaaaa",
"aaaaaaaaa;;;+++$$$<<<<<<aaaaaaaaaaaaaaaaaa",
"aaaaaaaaa;;;+++$$$<<<<<<aaaaaaaaaaaaaaaaaa",
"aaaaaaaaa>>>+++$$$<<<444aaaaaaaaaaaaaaaaaa",
"aaaaaaaaa>>>+++$$$<<<444aaaaaaaaaaaaaaaaaa",
"aaaaaaaaa>>>+++$$$<<<444aaaaaaaaaaaaaaaaaa",
"aaaaaaaaa>>>OOO$$$<<<pppaaaaaaaaaaaaaaaaaa",
"aaaaaaaaa>>>OOO$$$<<<pppaaaaaaaaaaaaaaaaaa",
"aaaaaaaaa>>>OOO$$$<<<pppaaaaaaaaaaaaaaaaaa",
"aaaaaa$$$<<<ooo$$$<<<444===aaaaaaaaaaaaaaa",
"aaaaaa$$$<<<ooo$$$<<<444===aaaaaaaaaaaaaaa",
"aaaaaa$$$<<<ooo$$$<<<444===aaaaaaaaaaaaaaa",
"aaaaaa$$$<<<ooo###>>>444===aaaaaaaaaaaaaaa",
"aaaaaa$$$<<<ooo###>>>444===aaaaaaaaaaaaaaa",
"aaaaaa$$$<<<ooo###>>>444===aaaaaaaaaaaaaaa",
"aaaaaa$$$111ooo###;;;444===wwwaaaaaaaaaaaa",
"aaaaaa$$$111ooo###;;;444===wwwaaaaaaaaaaaa",
"aaaaaa$$$111ooo###;;;444===wwwaaaaaaaaaaaa",
"aaaaaa$$$333XXX===;;;444===000wwwaaaaaaaaa",
"aaaaaa$$$333XXX===;;;444===000wwwaaaaaaaaa",
"aaaaaa$$$333XXX===;;;444===000wwwaaaaaaaaa",
"aaaaaa$$$444...===;;;444===qqq000eeeaaaaaa",
"aaaaaa$$$444...===;;;444===qqq000eeeaaaaaa",
"aaaaaa$$$444...===;;;444===qqq000eeeaaaaaa",
"aaayyy$$$<<<XXX======444===wwwqqqwwwqqqaaa",
"aaayyy$$$<<<XXX======444===wwwqqqwwwqqqaaa",
"aaayyy$$$<<<XXX======444===wwwqqqwwwqqqaaa",
"eee999ooo>>>+++::::::,,,222yyywwwqqqwwwrrr",
"eee999ooo>>>+++::::::,,,222yyywwwqqqwwwrrr",
"eee999ooo>>>+++::::::,,,222yyywwwqqqwwwrrr",
"999999ooo+++@@@%%%***:::222yyywww999wwwrrr",
"999999ooo+++@@@%%%***:::222yyywww999wwwrrr",
"999999ooo+++@@@%%%***:::222yyywww999wwwrrr",
"777888OOO---&&&:::>>>333222yyyqqq000www999",
"777888OOO---&&&:::>>>333222yyyqqq000www999",
"777888OOO---&&&:::>>>333222yyyqqq000www999",
"999777@@@===   <<<>>>,,,222rrrwwwwwwwwwqqq",
"999777@@@===   <<<>>>,,,222rrrwwwwwwwwwqqq",
"999777@@@===   <<<>>>,,,222rrrwwwwwwwwwqqq",
"666555666888iiiuuuiiitttwwwqqqwwwqqqeeewww",
"666555666888iiiuuuiiitttwwwqqqwwwqqqeeewww",
"666555666888iiiuuuiiitttwwwqqqwwwqqqeeewww"
};
