/* XPM */
static char *_0507_5ee7a282cf0497b76428ae0da8214b09e95fdaff8542126d6f3f26e0091427f7[] = {
/* columns rows colors chars-per-pixel */
"64 64 119 2 ",
"   c black",
".  c #010101",
"X  c #020202",
"o  c gray1",
"O  c #040404",
"+  c gray2",
"@  c #060606",
"#  c #070707",
"$  c gray3",
"%  c #090909",
"&  c gray4",
"*  c #0B0B0B",
"=  c #0C0C0C",
"-  c gray5",
";  c #0E0E0E",
":  c gray6",
">  c #101010",
",  c #111111",
"<  c gray7",
"1  c #131313",
"2  c gray8",
"3  c #151515",
"4  c #161616",
"5  c gray9",
"6  c #181818",
"7  c #191919",
"8  c gray10",
"9  c #1B1B1B",
"0  c gray11",
"q  c #1D1D1D",
"w  c #1E1E1E",
"e  c gray12",
"r  c #202020",
"t  c gray13",
"y  c #222222",
"u  c #232323",
"i  c gray14",
"p  c #252525",
"a  c gray15",
"s  c #272727",
"d  c #282828",
"f  c gray16",
"g  c #2A2A2A",
"h  c gray17",
"j  c #2C2C2C",
"k  c #2D2D2D",
"l  c gray18",
"z  c #2F2F2F",
"x  c gray19",
"c  c #313131",
"v  c #323232",
"b  c gray20",
"n  c #343434",
"m  c #353535",
"M  c gray21",
"N  c #373737",
"B  c gray22",
"V  c #393939",
"C  c #3A3A3A",
"Z  c gray23",
"A  c #3C3C3C",
"S  c gray24",
"D  c #3E3E3E",
"F  c #3F3F3F",
"G  c gray25",
"H  c #414141",
"J  c gray26",
"K  c #434343",
"L  c #444444",
"P  c gray27",
"I  c #464646",
"U  c gray28",
"Y  c #484848",
"T  c #494949",
"R  c gray29",
"E  c #4B4B4B",
"W  c #4C4C4C",
"Q  c gray30",
"!  c #4E4E4E",
"~  c gray31",
"^  c #505050",
"/  c #515151",
"(  c gray32",
")  c #535353",
"_  c gray33",
"`  c #555555",
"'  c #565656",
"]  c gray34",
"[  c #585858",
"{  c gray35",
"}  c #5A5A5A",
"|  c #5B5B5B",
" . c gray36",
".. c #5D5D5D",
"X. c gray37",
"o. c #5F5F5F",
"O. c #606060",
"+. c gray38",
"@. c #626262",
"#. c gray39",
"$. c #646464",
"%. c #656565",
"&. c gray40",
"*. c #676767",
"=. c #6A6A6A",
"-. c #6C6C6C",
";. c gray43",
":. c #6F6F6F",
">. c gray44",
",. c #717171",
"<. c #727272",
"1. c gray45",
"2. c gray46",
"3. c #767676",
"4. c gray47",
"5. c #797979",
"6. c #7C7C7C",
"7. c gray51",
"8. c gray55",
/* pixels */
"Y Y Y Y Y Y Y Y Y Y Y Y W Y W Y Y Y Y Y Y Y Y W Y Y Y Y Y Y Y Y Y Y W Y Y Y Y Y Y Y Y Y Y Y Y Y Y W Y W Y Y Y Y Y Y Y Y W Y Y Y ",
"Y Y Y Y W Y Y Y Y Y Y Y Y W Y W Y Y Y Y Y Y Y Y W Y Y Y Y Y Y Y Y Y Y W Y Y Y Y Y W Y Y Y Y Y Y Y Y W Y W Y Y Y Y Y Y Y Y W Y Y ",
"Y Y Y W Y W Y W Y Y Y W Y Y W Y Y Y Y Y W Y Y Y Y W Y Y Y Y Y W Y Y Y Y W Y Y Y W Y W Y W Y Y Y W Y Y W Y Y Y Y Y W Y Y Y Y W Y ",
"Y Y Y Y Y Y W Y W Y W Y Y Y Y Y Y Y Y Y W W Y Y W Y Y Y Y Y Y W W Y Y W Y Y Y Y Y Y Y W Y W Y W Y Y Y Y Y Y Y Y Y W W Y Y W Y Y ",
"B B B B B B B B B B B B B B B B B B B B B B B B B B B B B B B B B B B B B B B B B B B B B B B B B B B B B B B B B B B B B B B B ",
"j k z z z z z z z z z x x c c c x x x c c v v v v v v v c c c c v v v v v v v v v c c c c c c v c c c x x x z z z z z x z z z l ",
"k l l l z z l l 7.4.,.>.1.1.<.<.<.1.1.1.1.1.1.<.<.<.1.1.1.1.<.<.<.1.1.1.1.1.1.<.<.<.1.1.1.1.<.<.1.2.,.-.| J z z z z z z z l z l ",
"j k l l k l l k 5.&.| X.$.#.o.X.@.&.&.%.%.%.#.+.O.+.%.&.&.$.O.X.O.%.&.%.%.%.%.+.O.+.#.&.&.%.@.O.#.&.#.o./ S z z l l k l l z l l ",
"k j k l k k k k >.[ P L T T T T T T T T T T T T T T T T T T T T T T T T T T T T T T T T T T T T Y T R Q U V z l k k k k l l z l ",
"k k l k k k k k ;.] D j a g M B k i i a p i f c m l a u u g n V c a i p p i a l m v f u y a l m x a g S I A l l k k l l l l l k ",
"k k k k k j j j ,.X.H q $ 2 c v 8 @ o # @ + > y g 0 & . o < j M u = o # # O % 9 g u , O X % 9 g w $ , v T G k k k k l l l k k k ",
"j k k k k j k k <.O.G 5 . 1 V A 7           % r d 6 X     ; c G s +         X 6 d t &     X 5 d 0 X % l T G k k k k k k k k k j ",
"k j k k k k k k <.O.F 3   8 E W e         . = s v w O   . , G ( c @         o q c f = .   O q v i O $ l T G j j j k k k k k j j ",
"j j j j j h j j <.O.F 2   t [ } p         . - k V u o   . 3 I { M #         o t B l ; .   O t V f @ # k T G j j j k j j j j j h ",
"h j j h j h j j <.O.F 2   t [ } p         . - k V y O   . < N G g @         o r B k - .   o r V f @ $ l Y F h h j j j j j j h h ",
"h j h h h h h h <.O.F 2   r ' [ i           = j B t O   . - 7 6 1 O         o r N j - .   o r B d @ # k T G h h h j j j j j h h ",
"h h h h h g g h <.O.F 2   r ' [ i           = j B t O   . # @ X o .         o 0 c f - .   o r B d @ @ h Y U g h j h h h h h g f ",
"h h g g g g g g <.O.F 2   r ' [ i           = j B t O   . o .               X > q q * .   o r B d @ # g R ~ U S g h g g g g f d ",
"g g g f f f f g <.O.F 2   r ' [ i           = j N t O     X                   o @ * # .   o r B d @ # g R ! Y D h g g g g g d s ",
"f f f d f f f f <.O.F 2   r ' [ i           * d c q O                             . o .   o r B d @ # h T Y A n g g g g f f d s ",
"s s s s d d d f <.O.F 2   r ' [ i           & 0 e < o                               . .   o r B d @ # g T R D m g f f f d d s a ",
"f s d d d d d d <.O.F 2   r ' [ i           @ * $ + .                                 .   o r B d @ @ d R ` _ Y f d d d d s a p ",
"d d d d d d s s <.O.F 2   r ' [ i           X .                                           o r B d @ + s E } O./ d d d d s s a i ",
"d f f d d d d s <.O.F 2   r ' [ i           .                                             o r B d @ @ f R ( ^ L f d d d d s a i ",
"f f f f d f d f <.O.F <   0 ` [ y                                                         o r B d @ # j T K b j g f f f d s s i ",
"g g g f f f f f ,...H y 5 c } | v - O .                                                   o r B d + $ z T D g g g f f f f f d s ",
"h g g g f f f g :.[ P H Y ` +.O.^ m 5 O                                                   o r B d + $ l T G h h h g g f f f f g ",
"h h g g g f g g ;._ U ( #.*.@.O.+.^ s @                                                   o r B d @ # k T G h h h g g g g g g g ",
"h g h h h h h h ;.` U Q } o... .X.Q s @                                                   o r B d @ # k T G j j j h h g g g g g ",
"h g g h h h h h :.] I P T T T W / L y +                                                   o r B d @ # k T G j j h h h g g g h h ",
"h h h g h h h h :.] I P P N s h H L p O                                                   o r B d @ # k T G j j j h h h h h j j ",
"h h h h h h j k :.] I T T h & ; M U f +                                                   o r B d @ # k T G k j j j h j j j j j ",
"j h j h h h h j :.] U R R g + $ n Y g +                                                   o r B d @ # k T G k k k j j j j j j j ",
"j j h h h j j k :.] I Y R v 4 8 Z U d +                                                   o r B d @ # k T G k k k j j j k k k k ",
"j j j h j k k k :.] I P Y F n M U I p +                                                   o r B d @ # k T G l k k j k k l k k k ",
"j k k k k k k l :.] P J U R ! / ( K t +                                                   o r B d @ # k T G l l l l l l k l k k ",
"k k k k k l k l :.] P G U ) X.+.} J e +                                                   o r B d @ # k T G z l l l l l l l l l ",
"k k l l l k l l :.] P H U /  ...] K r +                                                   o r B d @ # k T G l l l l l z z z l l ",
"h j j k l l l l :.] P J U T Q ~ / J t +                                                   o r B d @ # k T G z z l z z z z z l l ",
"s f h f k k k k :.] I I E T P T ( U i O                                                   o r B d @ # k T G z x x x x x z z l l ",
"$.$.$.$.$.$.$.$.:.] I Y ^ Q Y E ` W s +                                                   o r B d @ # k T G $.$.$.$.$.$.$.$.$.$.",
"Y Y W Y Y W W Y >.[ P F H K U T E S w O                                                   o r B d @ # k T G Y W Y W Y Y Y Y Y Y ",
"Y W Y Y Y Y W Y ,. .K f q f G K x 8 & X                                                   o r B d @ # k T G Y Y W Y W Y W Y Y Y ",
"Y Y W Y Y Y Y Y <.O.G 6 o 5 G K q                                                         o r B d @ # k T G Y Y Y Y Y W Y Y Y Y ",
"Y Y Y W Y Y Y Y <.O.F 2   7 T R q                                                         o r B d + $ l T F Y Y Y Y Y Y Y Y Y Y ",
"Y Y Y W Y W Y W <.O.F 2   e ) ` u                                                         o r B d + $ z T F Y Y Y W Y Y Y Y W Y ",
"0 0 0 0 0 0 0 0 <.O.F 2   t { | a                                                         o r B d @ # j Y U V l 0 0 0 0 0 0 0 0 ",
"d d d d d d d d <.O.F 2   t [ } p                                                         o r B d @ @ f E ) / I d d d d d d d d ",
"j j j j j j j j <.O.F 2   r ' [ i                                             .     .     o r B d @ + p E ..$.' j j j j j j j j ",
"j W _  ._ _ W d <.O.F 2   r ' [ i                                           . @ O o o .   o r B d @ + p E X.*.[ W _ _  ._ W d j ",
"j G 6. ._ G Y d <.O.F 2   r ' [ u                                           X , 4 < # .   o r B d @ + a E | O.( G $.>.>.B Y d j ",
"j G 8. .W B Y d <.O.F 2   r ' [ u                                           o 9 g y * .   o r B d @ @ d R ] [ W G  .8.>.G Y d j ",
"j G 6._ G B Y d <.O.F 2   r ' [ i               . o .                       o e n g = .   o r B d @ @ f E ( ~ L G  .>.$.Y Y d j ",
"j G >._ Y G Y d <.O.F 2   r ' [ i             . @ = o     .     . .         o r N j - .   o r B d @ # g T E H N G >.$.$._ Y d j ",
"j G >.Y Y Y Y d <.O.F 2   r ' [ i             + 1 3 o   . @ $ % * o         o r N j - .   o r B d @ # j T L v j G >.$.$.Y Y d j ",
"j G $._ Y W Y d <.O.F 2   r ' [ i           o , y 9 O   . - p l u +         o r N j - .   o r B d + $ l T G f j G >.$.$.W Y d j ",
"j G $. .Y _ Y d <.O.F 2   r ' [ i           # w l e O   . 1 F ^ b #         o r N j - .   o r B d @ # k Y F d j G 8.>.>._ Y d j ",
"j G $._ G W Y d <.O.F 2   r ' [ i           & s m r O   . 3 Y  .V #         o r N j - .   o r B d @ # k T G h j G 6.6.6.W Y d j ",
"j G  ._ Y _ Y d 2.O.F 1   t [ } p           = g N t O   . 3 E +.Z #         o e M j - .   o e N s O $ x W K j j G 6.6.>. .Y d j ",
"j G $._ Y G Y d 3.@.F 1   t [ } p     . . . - g M r +   . 3 E +.Z $   . .   O e m h ; .   O w M a + & b ~ L j j G 6.6.>. .Y d j ",
"j G $._ W _ Y d =.| J r > f ) _ j = % , ; - 9 b Z g 1 # % r T { A 5 % : > = 1 g Z b 0 = $ 1 f Z l 2 6 C / P j j G >.6.>._ Y d j ",
"j B B x B B B d [ / I B b A E W S c x b v c N F K A n x z V T ~ K m x v v c n A K G N c z n A K D n B T ~ H j j B B B x B B d j ",
"j 0 0 0 0 0 0 0 ~ E Y U Y Y Y Y Y Y Y Y Y Y Y Y Y Y Y Y Y Y Y Y Y Y Y Y Y Y Y Y Y Y Y Y Y Y Y Y U U E ( ! D h j 0 0 0 0 0 0 0 j ",
"j j j j j j j j j j j j j j j j j j j j j j j j j j j j j j j j j j j j j j j j j j j j j j j j j j j j j j j j j j j j j j j j "
};
