/* XPM */
static char *_093_7c9f201f54da305cde09fa9dd8e4ed0bf715d2782d296f3dde3bf275c2d06445[] = {
/* columns rows colors chars-per-pixel */
"146 90 42 1 ",
"  c black",
". c #170F07",
"X c #0B1707",
"o c #1B1B1B",
"O c #13230B",
"+ c #2B230F",
"@ c #332B13",
"# c #3F2F17",
"$ c #232323",
"% c #272727",
"& c #2F2F2F",
"* c #373737",
"= c gray23",
"- c #7F0000",
"; c #43331B",
": c #533F2F",
"> c #5B472B",
", c #574333",
"< c #675333",
"1 c #67533F",
"2 c #434343",
"3 c gray28",
"4 c gray31",
"5 c gray34",
"6 c #5B5B5B",
"7 c #5B6347",
"8 c #7B634F",
"9 c gray39",
"0 c gray42",
"q c #6F6F6F",
"w c gray50",
"e c red",
"r c #836B4B",
"t c #836B57",
"y c #8B735B",
"u c #937B63",
"i c #9B7F6B",
"p c #9F876F",
"a c #A78F77",
"s c #AF977F",
"d c #BFA78F",
"f c None",
/* pixels */
"ffffffffffffffffffffffffffffffffffffffffffffffffffffffffffffffffffffffffffffffffffffffffffffffffffffffffffffffffffffffffffffffffffffffffffffffffff",
"ffffffffffffffffffffffffffffffffffffffffffffffffffffffffffffffffffffffffffffffffffffffffffffffffffffffffffffffffffffffffffffffffffffffffffffffffff",
"ffffffffffffffffffffffffffffffffffffffffffffffffffffffffffffffffffffffffffffffffffffffffffffffffffffffffffffffffffffffffffffffffffffffffffffffffff",
"ffffffffffffffffffffffffffffffffffffffffffffffffffffffffffffffffffffffffffffffffffffffffffffffffffffffffffffffffffffffffffffffffffffffffffffffffff",
"ffffffffffffffffffffffffffffffffffffffffffffffffffffffffffffffffffffffffffffffffffffffffffffffffffffffffffffffffffffffffffffffffffffffffffffffffff",
"ffffffffffffffffffffffffffffffffffffffffffffffffffffffffffffffffffffffffffffffffffffffffffffffffffffffffffffffffffffffffffffffffffffffffffffffffff",
"ffffffffffffffffffffffffffffffffffffffffffffffffffffffffffffffffffffffffffffffffffffffffffffffffffffffffffffffffffffffffffffffffffffffffffffffffff",
"ffffffffffffffffffffffffffffffffffffffffffffffffffffffffffffffffffffffffffffffffffffffffffffffffffffffffffffffffffffffffffffffffffffffffffffffffff",
"ffffffffffffffffffffffffffffffffffffffffffffffffffffffffffffffffffffffffffffffffffffffffffffffffffffffffffffffffffffffffffffffffffffffffffffffffff",
"ffffffffffffffffffffffffffffffffffffffffffffffffffffffffffffffffffffffffffffffffffffffffffffffffffffffffffffffffffffffffffffffffffffffffffffffffff",
"ffffffffffffffffffffffffffffffffffffffffffffffffffffffffffffffffffffffffffffffffffffffffffffffffffffffffffffffffffffffffffffffffffffffffffffffffff",
"ffffffffffffffffffffffffffffffffffffffffffffffffffffffffffffffffffffffffffffffffffffffffffffffffffffffffffffffffffffffffffffffffffffffffffffffffff",
"ffffffffffffffffffffffffffffffffffffffffffffffffffffffffffffffffffffffffffffffffffffffffffffffffffffffffffffffffffffffffffffffffffffffffffffffffff",
"ffffffffffffffffffffffffffffffffffffffffffffffffffffffffffffffffffffffffffffffffffffffffffffffffffffffffffffffffffffffffffffffffffffffffffffffffff",
"ffffffffffffffffffffffffffffffffffffffffffffffffffffffffffffffffffffffffffffffffffffffffffffffffffffffffffffffffffffffffffffffffffffffffffffffffff",
"ffffffffffffffffffffffffffffffffffffffffffffffffffffffffffffffffffffffffffffffffffffffffffffffffffffffffffffffffffffffffffffffffffffffffffffffffff",
"ffffffffffffffffffffffffffffffffffffffffffffffffffffffffffffffffffffffffffffffffffffffffffffffffffffffffffffffffffffffffffffffffffffffffffffffffff",
"ffffffffffffffffffffffffffffffffffffffffffffffffffffffffffffffffffffffffffffffffffffffffffffffffffffffffffffffffffffffffffffffffffffffffffffffffff",
"ffffffffffffffffffffffffffffffffffffffffffffffffffffffffffffffffffffffffffffffffffffffffffffffffffffffffffffffffffffffffffffffffffffffffffffffffff",
"ffffffffffffffffffffffffffffffffffffffffffffffffffffffffffffffffffffffffffffffffffffffffffffffffffffffffffffffffffffffffffffffffffffffffffffffffff",
"ffffffffffffffffffffffffffffffffffffffffffffffffffffffffffffffffffffffffffffffffffffffffffffffffffffffffffffffffffffffffffffffffffffffffffffffffff",
"ffffffffffffffffffffffffffffffffffffffffffffffffffffffffffffffffffffffffffffffffffffffffffffffffffffffffffffffffffffffffffffffffffffffffffffffffff",
"ffffffffffffffffffffffffffffffffffffffffffffffffffffffffffffffffffffffffffffffffffffffffffffffffffffffffffffffffffffffffffffffffffffffffffffffffff",
"ffffffffffffffffffffffffffffffffffffffffffffffffffffffffffffffffffffffffffffffffffffffffffffffffffffffffffffffffffffffffffffffffffffffffffffffffff",
"ffffffffffffffffffffffffffffffffffffffffffffffffffffffffffffffffffffffffffffffffffffffffffffffffffffffffffffffffffffffffffffffffffffffffffffffffff",
"ffffffffffffffffffffffffffffffffffffffffffffffffffffffffffffffffffffffffffffffffffffffffffffffffffffffffffffffffffffffffffffffffffffffffffffffffff",
"ffffffffffffffffffffffffffffffffffffffffffffffffffffffffffffffffffffffffffffffffffffffffffffffffffffffffffffffffffffffffffffffffffffffffffffffffff",
"ffffffffffffffffffffffffffffffffffffffffffffffffffffffffffffffffffffffffffffffffffffffffffffffffffffffffffffffffffffffffffffffffffffffffffffffffff",
"ffffffffffffffffffffffffffffffffff========================**ffffffffffffffffffffffffffffffffffffffffffffffffffffffffffffffffffffffffffffffffffffff",
"ffffffffffffffffffffffffffffffffff========================**ffffffffffffffffffffffffffffffffffffffffffffffffffffffffffffffffffffffffffffffffffffff",
"ffffffffffffffffffffffffffffff$$$$$$$$66ffffffffffffff==$$$$ffffffffffffffffffffffffffffffffffffffffffffffffffffffffffffffffffffffffffffffffffffff",
"ffffffffffffffffffffffffffffff$$$$$$$$66ffffffffffffff==$$$$ffffffffffffffffffffffffffffffffffffffffffffffffffffffffffffffffffffffffffffffffffffff",
"ffffffffffffffffffffff$$$$$$$$$$$$$$==2266================22334455ffff88yy88yy88yy88yy88yyyyyyuuppssffff  $$%%&&$$44$$44%%qqffffffffffffffffffffff",
"ffffffffffffffffffffff$$$$$$$$$$$$$$==2266================22334455ffff88yy88yy88yy88yy88yyyyyyuuppssffff  $$%%&&$$44$$44%%qqffffffffffffffffffffff",
"ffffffffffffffffffff$$**44559999999955444422$$        $$22449999ww    77dd77ss77ppttppttuuiippaassss      **%%**$$**$$22%%00$$ffffffffffffffffffff",
"ffffffffffffffffffff$$**44559999999955444422$$        $$22449999ww    77dd77ss77ppttppttuuiippaassss      **%%**$$**$$22%%00$$ffffffffffffffffffff",
"ffffffffffffffffff$$22**==**&&%%$$$$oooooooo&&==4433==&&oooooo**00$$$$;;11;;11;;11;;11,,11,,111111rr$$$$  ==$$==$$==$$==$$66$$ffffffffffffffffffff",
"ffffffffffffffffff$$22**==**&&%%$$$$oooooooo&&==4433==&&oooooo**00$$$$;;11;;11;;11;;11,,11,,111111rr$$$$  ==$$==$$==$$==$$66$$ffffffffffffffffffff",
"ffffffffffffffffff$$      --ee--            oooooooooooo    oo**66    ##OO##OO##OO##OO##OO##OO::OO<<      22..&&  &&  &&  55$$ffffffffffffffffffff",
"ffffffffffffffffff$$      --ee--            oooooooooooo    oo**66    ##OO##OO##OO##OO##OO##OO::OO<<      22..&&  &&  &&  55$$ffffffffffffffffffff",
"ffffffffffffffffff$$      $$&&3355443322**&&&&&&&&&&&&==3355990000$$$$++  ++  ++  ++  ++  ++  @@  >>$$$$  2255qqqqqqqqqq5555ffffffffffffffffffffff",
"ffffffffffffffffff$$      $$&&3355443322**&&&&&&&&&&&&==3355990000$$$$++  ++  ++  ++  ++  ++  @@  >>$$$$  2255qqqqqqqqqq5555ffffffffffffffffffffff",
"ffffffffffffffffff$$    $$2222**&&&&%%$$$$++++++++++++++++$$$$**44    ..  ..  ..  ..  ..  ..  ..  ;;                      33ffffffffffffffffffffff",
"ffffffffffffffffff$$    $$2222**&&&&%%$$$$++++++++++++++++$$$$**44    ..  ..  ..  ..  ..  ..  ..  ;;                      33ffffffffffffffffffffff",
"ffffffffffffffffff$$    22&&$$&&**$$$$$$$$                  $$$$22$$$$..                          ++$$$$    $$%%&&==&&%%$$33ffffffffffffffffffffff",
"ffffffffffffffffff$$    22&&$$&&**$$$$$$$$                  $$$$22$$$$..                          ++$$$$    $$%%&&==&&%%$$33ffffffffffffffffffffff",
"ffffffffffffffffffff    **$$$$**==      ffffff              $$%%==    ..++..++..++..++..++..++..XX..                  $$%%==ffffffffffffffffffffff",
"ffffffffffffffffffff    **$$$$**==      ffffff              $$%%==    ..++..++..++..++..++..++..XX..                  $$%%==ffffffffffffffffffffff",
"ffffffffffffffffffff    **%%%%==22                          %%&&**ffff....  ..  ..  ..........  ....ffff  ....      $$%%&&**ffffffffffffffffffffff",
"ffffffffffffffffffff    **%%%%==22                          %%&&**ffff....  ..  ..  ..........  ....ffff  ....      $$%%&&**ffffffffffffffffffffff",
"ffffffffffffffffffffff  **$$&&22==ffffffffffffff  $$  $$  $$ffffffffffffffffffffffffffffffffffffffffffffffffffffffffffffffffffffffffffffffffffffff",
"ffffffffffffffffffffff  **$$&&22==ffffffffffffff  $$  $$  $$ffffffffffffffffffffffffffffffffffffffffffffffffffffffffffffffffffffffffffffffffffffff",
"ffffffffffffffffffffff  **$$&&==**ffffffffffffffff    $$  $$ffffffffffffffffffffffffffffffffffffffffffffffffffffffffffffffffffffffffffffffffffffff",
"ffffffffffffffffffffff  **$$&&==**ffffffffffffffff    $$  $$ffffffffffffffffffffffffffffffffffffffffffffffffffffffffffffffffffffffffffffffffffffff",
"ffffffffffffffffffffffff  $$&&****ffffffffffffffffff        ffffffffffffffffffffffffffffffffffffffffffffffffffffffffffffffffffffffffffffffffffffff",
"ffffffffffffffffffffffff  $$&&****ffffffffffffffffff        ffffffffffffffffffffffffffffffffffffffffffffffffffffffffffffffffffffffffffffffffffffff",
"ffffffffffffffffffffffff  $$&&&&**ffffffffffffffffffffffffffffffffffffffffffffffffffffffffffffffffffffffffffffffffffffffffffffffffffffffffffffffff",
"ffffffffffffffffffffffff  $$&&&&**ffffffffffffffffffffffffffffffffffffffffffffffffffffffffffffffffffffffffffffffffffffffffffffffffffffffffffffffff",
"ffffffffffffffffffffffffff    ****ffffffffffffffffffffffffffffffffffffffffffffffffffffffffffffffffffffffffffffffffffffffffffffffffffffffffffffffff",
"ffffffffffffffffffffffffff    ****ffffffffffffffffffffffffffffffffffffffffffffffffffffffffffffffffffffffffffffffffffffffffffffffffffffffffffffffff",
"ffffffffffffffffffffffffffffffffffffffffffffffffffffffffffffffffffffffffffffffffffffffffffffffffffffffffffffffffffffffffffffffffffffffffffffffffff",
"ffffffffffffffffffffffffffffffffffffffffffffffffffffffffffffffffffffffffffffffffffffffffffffffffffffffffffffffffffffffffffffffffffffffffffffffffff",
"ffffffffffffffffffffffffffffffffffffffffffffffffffffffffffffffffffffffffffffffffffffffffffffffffffffffffffffffffffffffffffffffffffffffffffffffffff",
"ffffffffffffffffffffffffffffffffffffffffffffffffffffffffffffffffffffffffffffffffffffffffffffffffffffffffffffffffffffffffffffffffffffffffffffffffff",
"ffffffffffffffffffffffffffffffffffffffffffffffffffffffffffffffffffffffffffffffffffffffffffffffffffffffffffffffffffffffffffffffffffffffffffffffffff",
"ffffffffffffffffffffffffffffffffffffffffffffffffffffffffffffffffffffffffffffffffffffffffffffffffffffffffffffffffffffffffffffffffffffffffffffffffff",
"ffffffffffffffffffffffffffffffffffffffffffffffffffffffffffffffffffffffffffffffffffffffffffffffffffffffffffffffffffffffffffffffffffffffffffffffffff",
"ffffffffffffffffffffffffffffffffffffffffffffffffffffffffffffffffffffffffffffffffffffffffffffffffffffffffffffffffffffffffffffffffffffffffffffffffff",
"ffffffffffffffffffffffffffffffffffffffffffffffffffffffffffffffffffffffffffffffffffffffffffffffffffffffffffffffffffffffffffffffffffffffffffffffffff",
"ffffffffffffffffffffffffffffffffffffffffffffffffffffffffffffffffffffffffffffffffffffffffffffffffffffffffffffffffffffffffffffffffffffffffffffffffff",
"ffffffffffffffffffffffffffffffffffffffffffffffffffffffffffffffffffffffffffffffffffffffffffffffffffffffffffffffffffffffffffffffffffffffffffffffffff",
"ffffffffffffffffffffffffffffffffffffffffffffffffffffffffffffffffffffffffffffffffffffffffffffffffffffffffffffffffffffffffffffffffffffffffffffffffff",
"ffffffffffffffffffffffffffffffffffffffffffffffffffffffffffffffffffffffffffffffffffffffffffffffffffffffffffffffffffffffffffffffffffffffffffffffffff",
"ffffffffffffffffffffffffffffffffffffffffffffffffffffffffffffffffffffffffffffffffffffffffffffffffffffffffffffffffffffffffffffffffffffffffffffffffff",
"ffffffffffffffffffffffffffffffffffffffffffffffffffffffffffffffffffffffffffffffffffffffffffffffffffffffffffffffffffffffffffffffffffffffffffffffffff",
"ffffffffffffffffffffffffffffffffffffffffffffffffffffffffffffffffffffffffffffffffffffffffffffffffffffffffffffffffffffffffffffffffffffffffffffffffff",
"ffffffffffffffffffffffffffffffffffffffffffffffffffffffffffffffffffffffffffffffffffffffffffffffffffffffffffffffffffffffffffffffffffffffffffffffffff",
"ffffffffffffffffffffffffffffffffffffffffffffffffffffffffffffffffffffffffffffffffffffffffffffffffffffffffffffffffffffffffffffffffffffffffffffffffff",
"ffffffffffffffffffffffffffffffffffffffffffffffffffffffffffffffffffffffffffffffffffffffffffffffffffffffffffffffffffffffffffffffffffffffffffffffffff",
"ffffffffffffffffffffffffffffffffffffffffffffffffffffffffffffffffffffffffffffffffffffffffffffffffffffffffffffffffffffffffffffffffffffffffffffffffff",
"ffffffffffffffffffffffffffffffffffffffffffffffffffffffffffffffffffffffffffffffffffffffffffffffffffffffffffffffffffffffffffffffffffffffffffffffffff",
"ffffffffffffffffffffffffffffffffffffffffffffffffffffffffffffffffffffffffffffffffffffffffffffffffffffffffffffffffffffffffffffffffffffffffffffffffff",
"ffffffffffffffffffffffffffffffffffffffffffffffffffffffffffffffffffffffffffffffffffffffffffffffffffffffffffffffffffffffffffffffffffffffffffffffffff",
"ffffffffffffffffffffffffffffffffffffffffffffffffffffffffffffffffffffffffffffffffffffffffffffffffffffffffffffffffffffffffffffffffffffffffffffffffff",
"ffffffffffffffffffffffffffffffffffffffffffffffffffffffffffffffffffffffffffffffffffffffffffffffffffffffffffffffffffffffffffffffffffffffffffffffffff",
"ffffffffffffffffffffffffffffffffffffffffffffffffffffffffffffffffffffffffffffffffffffffffffffffffffffffffffffffffffffffffffffffffffffffffffffffffff",
"ffffffffffffffffffffffffffffffffffffffffffffffffffffffffffffffffffffffffffffffffffffffffffffffffffffffffffffffffffffffffffffffffffffffffffffffffff",
"ffffffffffffffffffffffffffffffffffffffffffffffffffffffffffffffffffffffffffffffffffffffffffffffffffffffffffffffffffffffffffffffffffffffffffffffffff",
"ffffffffffffffffffffffffffffffffffffffffffffffffffffffffffffffffffffffffffffffffffffffffffffffffffffffffffffffffffffffffffffffffffffffffffffffffff",
"ffffffffffffffffffffffffffffffffffffffffffffffffffffffffffffffffffffffffffffffffffffffffffffffffffffffffffffffffffffffffffffffffffffffffffffffffff"
};
