/* XPM */
static char *_684_5bfe675e442606481cb7bad434b218072ca917bbbb483523ee825b1994f17ce1[] = {
/* columns rows colors chars-per-pixel */
"64 64 81 1 ",
"  c black",
". c #010101",
"X c #020202",
"o c gray1",
"O c #040404",
"+ c gray2",
"@ c #060606",
"# c #070707",
"$ c gray3",
"% c #090909",
"& c gray4",
"* c #0B0B0B",
"= c #0C0C0C",
"- c gray5",
"; c #0E0E0E",
": c gray6",
"> c #101010",
", c #111111",
"< c gray7",
"1 c #131313",
"2 c gray8",
"3 c #151515",
"4 c #161616",
"5 c gray9",
"6 c #181818",
"7 c #191919",
"8 c gray10",
"9 c #1B1B1B",
"0 c gray11",
"q c #1D1D1D",
"w c #1E1E1E",
"e c gray12",
"r c #202020",
"t c gray13",
"y c #222222",
"u c #232323",
"i c gray14",
"p c #252525",
"a c gray15",
"s c #272727",
"d c #282828",
"f c gray16",
"g c #2A2A2A",
"h c gray17",
"j c #2C2C2C",
"k c #2D2D2D",
"l c gray18",
"z c #2F2F2F",
"x c gray19",
"c c #313131",
"v c #323232",
"b c gray20",
"n c #343434",
"m c #353535",
"M c gray21",
"N c #373737",
"B c gray22",
"V c #393939",
"C c #3A3A3A",
"Z c gray23",
"A c #3C3C3C",
"S c gray24",
"D c #3E3E3E",
"F c #3F3F3F",
"G c gray25",
"H c #414141",
"J c gray26",
"K c #434343",
"L c gray27",
"P c #464646",
"I c #484848",
"U c #494949",
"Y c gray29",
"T c #4B4B4B",
"R c #4C4C4C",
"E c gray30",
"W c #4E4E4E",
"Q c gray31",
"! c #515151",
"~ c #555555",
"^ c #5B5B5B",
/* pixels */
"zzzzzzzzzzzzczczzzzzzzzczzzzzzzzzzczzzzzzzzzzzzzzczczzzzzzzzczzz",
"zzzzczzzzzzzzczczzzzzzzzczzzzzzzzzzczzzzzczzzzzzzzczczzzzzzzzczz",
"zzzczczczzzczzczzzzzczzzzczzzzzczzzzczzzczczczzzczzczzzzzczzzzcz",
"zzzzzzczczczzzzzzzzzcczzczzzzzzcczzczzzzzzzczczczzzzzzzzzcczzczz",
"iiiiiiiiiiiiiiiiiiiiiiiiiiiiiiiiiiiiiiiiiiiiiiiiiiiiiiiiiiiiiiii",
"qqeeeeeeeeeeerrreeerrtttttttrrrrtttttttttrrrrrrtrrreeeeeeeeeeeew",
"qwwweeww~WYUTTYYYTTTTTTYYYTTTTYYYTTTTTTYYYTTTTYYTRYPZheeeeeeewew",
"qqwwqwwqQJZSHGDSGJJJJJGFDFJJJHDSDJJJJJJFDFGJJJGDGJGDmdeewwqwweww",
"qqqwqqqqUVkjxxxxxxxxxxxxxxxxxxxxxxxxxxxxxxxxxxxxzxxvlpewqqqqwwew",
"qqwqqqqqIVdq79uiq557659ruw7559ypr756657wut9547wue79dlswwqqwwwwwq",
"qqqqqqqqYSg1+-rt,OX+Oo&49<#.X=qu5$X++o@<95*o.@<92+*txgqqqqwwwqqq",
"qqqqqqqqYDg:.=ps>     @38>.  %rg7o    .>83#  .:8<.@wxgqqqqqqqqqq",
"qqqqqqqqYDf; ,cc2    .$7t2o .*gMtO    X1r9$. o1t5o+wxgqqqqqqqqqq",
"qqqqq0qqYDf- 3VZ6    .$qp5X .;cGa+    X3iw%. o3p9O+qxgqqqqqqqqq0",
"0qq0q0qqYDf- 3VZ6    .$qp4o .;cGa+    X3iq$. X3p9O+wzf00qqqqqq00",
"0q000000YDf- 3BV5     $qi3o .;xDa+    X3iq$. X3i8O+qxg000qqqqq00",
"00000990YDf- 3BV5     $qi3o .;xDa+    X3iq$. X3i8OO0zl90q0000099",
"00999999YDf- 3BV5     $qi3o .;xDa+    X3iq$. X3i8O+9xbld90999998",
"99999999YDf- 3BV5     $qi3o .;xDa+    X3iq$. X3i8O+9xbzd09999987",
"99989999YDf- 3BV5     $qi3o .;xDa+    X3iq$. X3i8O+0xzsy99999987",
"77778889YDf- 3BV5     $qi3o .;xDa+    X3iq$. X3i8O+9xxdu99998877",
"97888888YDf- 3BV5     $qi3o .;xDa+    X3iq$. X3i8OO8xNNz98888776",
"88888877YDf- 3BV5     $qi3o .;xDa+    X3iq$. X3i8Oo7cZDm88887775",
"89988887YDf- 3BV5     $qi3o .;xDa+    X3iq$. X3i8OO9xmnj98888775",
"99998989YDf= <NV4     $qi3o .;xDa+    X3iq$. X3i8O+qxjtq99998775",
"99999999YSg4:rZZt$o.  $qi3o .;xDa+    X3iq$. X3i8o+exd9999999987",
"09999999IVkgzNFDnu:o  $qi3o .;xDa+    X3iq$. X3i8o+wxg0009999999",
"00999999INlmGKGDFn7O  $qi3o .;xDa+    X3iq$. X3i8O+qxg0009999999",
"09000000INlvZDSASv7O  $qi3o .;xDa+    X3iq$. X3i8O+qxgqqq0099999",
"09900000IVlkxxxcmj4o  $qi3o .;xDa+    X3iq$. X3i8O+qxgqq00099900",
"00090000IVlkki70gj6o  $qi3o .;xDa+    X3iq$. X3i8O+qxgqqq00000qq",
"000000qqIVlxx0#%ul9o  $qi3o .;xDa+    X3iq$. X3i8O+qxgqqqq0qqqqq",
"q0q0000qIVlxx9o+yz9o  $qi3o .;xDa+    X3iq$. X3i8O+qxgqqqqqqqqqq",
"qq000qqqIVlzxt;,al8o  $qi3o .;xDa+    X3iq$. X3i8O+qxgqqqqqqqqqq",
"qqq0qqqqIVlkzfyull6o  $qi3o .;xDa+    X3iq$. X3i8O+qxgwqqqqqwqqq",
"qqqqqqqwIVkhlxbmmj3o  $qi3o .;xDa+    X3iq$. X3i8O+qxgwwwwwwqwqq",
"qqqqqwqwIVkglMSFZh2o  $qi3o .;xDa+    X3iq$. X3i8O+qxgewwwwwwwww",
"qqwwwqwwIVkglmASVj3o  $qi3o .;xDa+    X3iq$. X3i8O+qxgwwwwweeeww",
"0qqqwwwwIVkhlxvbmh3o  $qi3o .;xDa+    X3iq$. X3i8O+qxgeeweeeeeww",
"7909qqqqIVllcxkxml5o  $qi3o .;xDa+    X3iq$. X3i8O+qxgeeeeeeeeww",
"HHHHHHHHIVlznvzcNc7o  $qi3o .;xDa+    X3iq$. X3i8O+qxgHHHHHHHHHH",
"zzczzcczUVkfgjlxcd2o  $qi3o .;xDa+    X3iq$. X3i8O+qxgzczczzzzzz",
"zczzzzczYAj919gje,#.  $qi3o .;xDa+    X3iq$. X3i8O+qxgzzczczczzz",
"zzczzzzzYDg>X:gj1     $qi3o .;xDa+    X3iq$. X3i8O+qxgzzzzzczzzz",
"zzzczzzzYDf- >xx1     $qi3o .;xDa+    X3iq$. X3i8o+wxfzzzzzzzzzz",
"zzzczczcYDf- 2MN5     $qi3o .;xDa+    X3iq$. X3i8o+exfzzzczzzzcz",
"<<<<<<<<YDf- 3CZ7     $qi3o .;xDa+    X3iq$. X3i8O+qzlpw<<<<<<<<",
"88888888YDf- 3VZ6     $qi3o .;xDa+    X3iq$. X3i8OO9cMml88888888",
"qqqqqqqqYDf- 3BV5     $qi3o .;xDa+    X3iq$. X3i8Oo6cSHBqqqqqqqq",
"qcNANNc8YDf- 3BV5     $qi3o .;xDa+    X3iq$. X3i8Oo6cSKVcNNANc8q",
"qg!ANgz8YDf- 3BV5     $qi3o .;xDa+    X3iq$. X3i8Oo7cZDmgHUUiz8q",
"qg^Aciz8YDf- 3BV5     $qi3o .;xDa+    X3iq$. X3i8OO8xVVcgA^Ugz8q",
"qg!Ngiz8YDf- 3BV5     $qi3o .;xDa+    X3iq$. X3i8OO9cmbjgAUHzz8q",
"qgUNzgz8YDf- 3BV5     $qi3o .;xDa+    X3iq$. X3i8O+9xcgigUHHNz8q",
"qgUzzzz8YDf- 3BV5     $qi3o .;xDa+    X3iq$. X3i8O+qxjtqgUHHzz8q",
"qgHNzcz8YDf- 3BV5     $qi3o .;xDa+    X3iq$. X3i8o+wxg9qgUHHcz8q",
"qgHAzNz8YDf- 3BV5     $qi3o .;xDa+    X3iq$. X3i8O+qzf8qg^UUNz8q",
"qgHNgcz8YDf- 3BV5     $qi3o .;xDa+    X3iq$. X3i8O+qxg0qg!!!cz8q",
"qgANzNz8RDf= 3VZ6     $0i3o .;cFa+    X2uq$. X2i7o+ecjqqg!!UAz8q",
"qgHNzgz8EGf= 3VZ6  ...$9u3o .;cFa+ .. o2u0%. o2u7o#tbjqqg!!UAz8q",
"qgHNcNz8LZh3&9MNq$@*%$<ta9=+@3xCs:@&&$=9at<$+=9aw->amkqqgU!UNz8q",
"qiieiii8Vmlitsccdrettrifjsyeepxbjuettrysjgireysjdyixbgqqiiieii8q",
"q<<<<<<<bczlzzzzzzzzzzzzzzzzzzzzzzzzzzzzzzzzzzzzllcmbd0q<<<<<<<q",
"qqqqqqqqqqqqqqqqqqqqqqqqqqqqqqqqqqqqqqqqqqqqqqqqqqqqqqqqqqqqqqqq"
};
