/* XPM */
static char *_553_f0418f47a28489589bff708ddcc51c5edc2d3bae1a71c30df986ef20d2520a9a[] = {
/* columns rows colors chars-per-pixel */
"64 64 118 2 ",
"   c black",
".  c #010101",
"X  c #020202",
"o  c gray1",
"O  c #040404",
"+  c gray2",
"@  c #060606",
"#  c #070707",
"$  c gray3",
"%  c #090909",
"&  c gray4",
"*  c #0C0C0C",
"=  c gray5",
"-  c #0E0E0E",
";  c gray6",
":  c #101010",
">  c #111111",
",  c gray7",
"<  c #131313",
"1  c gray8",
"2  c #151515",
"3  c #161616",
"4  c gray9",
"5  c #181818",
"6  c #191919",
"7  c gray10",
"8  c #1B1B1B",
"9  c gray11",
"0  c #1D1D1D",
"q  c #1E1E1E",
"w  c gray12",
"e  c #202020",
"r  c gray13",
"t  c #222222",
"y  c #232323",
"u  c gray14",
"i  c #252525",
"p  c gray15",
"a  c #272727",
"s  c #282828",
"d  c gray16",
"f  c #2A2A2A",
"g  c gray17",
"h  c #2C2C2C",
"j  c #2D2D2D",
"k  c gray18",
"l  c #2F2F2F",
"z  c gray19",
"x  c #313131",
"c  c #323232",
"v  c gray20",
"b  c #343434",
"n  c #353535",
"m  c gray21",
"M  c #373737",
"N  c gray22",
"B  c #393939",
"V  c #3A3A3A",
"C  c gray23",
"Z  c #3C3C3C",
"A  c gray24",
"S  c #3E3E3E",
"D  c #3F3F3F",
"F  c gray25",
"G  c #414141",
"H  c gray26",
"J  c #434343",
"K  c #444444",
"L  c gray27",
"P  c #464646",
"I  c gray28",
"U  c #484848",
"Y  c #494949",
"T  c gray29",
"R  c #4B4B4B",
"E  c #4C4C4C",
"W  c gray30",
"Q  c #4E4E4E",
"!  c gray31",
"~  c #505050",
"^  c #515151",
"/  c gray32",
"(  c #535353",
")  c gray33",
"_  c #555555",
"`  c #565656",
"'  c gray34",
"]  c #585858",
"[  c gray35",
"{  c #5A5A5A",
"}  c #5B5B5B",
"|  c gray36",
" . c #5D5D5D",
".. c gray37",
"X. c #5F5F5F",
"o. c #606060",
"O. c gray38",
"+. c #626262",
"@. c gray39",
"#. c #646464",
"$. c #656565",
"%. c gray40",
"&. c #676767",
"*. c #6A6A6A",
"=. c #6C6C6C",
"-. c gray43",
";. c #6F6F6F",
":. c gray44",
">. c #717171",
",. c #727272",
"<. c gray45",
"1. c gray46",
"2. c #767676",
"3. c gray47",
"4. c #797979",
"5. c #7C7C7C",
"6. c gray51",
"7. c gray55",
/* pixels */
"U U U U U U U U U U U U E U E U U U U U U U U E U U U U U U U U U U E U U U U U U U U U U U U U U E U E U U U U U U U U E U U U ",
"U U U U E U U U U U U U U E U E U U U U U U U U E U U U U U U U U U U E U U U U U E U U U U U U U U E U E U U U U U U U U E U U ",
"U U U E U E U E U U U E U U E U U U U U E U U U U E U U U U U E U U U U E U U U E U E U E U U U E U U E U U U U U E U U U U E U ",
"U U U U U U E U E U E U U U U U U U U U E E U U E U U U U U U E E U U E U U U U U U U E U E U E U U U U U U U U U E E U U E U U ",
"N N N N N N N N N N N N N N N N N N N N N N N N N N N N N N N N N N N N N N N N N N N N N N N N N N N N N N N N N N N N N N N N ",
"h j l l l l l l l l l z z x x x z z z x x c c c c c c c x x x x c c c c c c c c c x x x x x x c x x x z z z l l l l l z l l l k ",
"j k k k l l k k 6.3.>.:.<.<.,.,.,.<.<.<.<.<.<.,.,.,.<.<.<.<.,.,.,.<.<.<.<.<.<.,.,.,.<.<.<.<.,.,.<.1.>.=.} H l l l l l l l k l k ",
"h j k k j k k j 4.%.} ..#.@.X...+.%.%.$.$.$.@.O.o.O.$.%.%.#.o...o.$.%.$.$.$.$.O.o.O.@.%.%.$.+.o.@.%.@.X.^ A l l k k j k k l k k ",
"j h j k j j j j :.] L K Y Y Y Y Y Y Y Y Y Y Y Y Y Y Y Y Y Y Y Y Y Y Y Y Y Y Y Y Y Y Y Y Y Y Y Y U Y T W I B l k j j j j k k l k ",
"j j k j j j j j -.' S h p f m N j u u p i u d x n k p y y f b B x p u i i u p k n c d y t p k n z p f A P Z k k j j k k k k k j ",
"j j j j j h h h >...G 0 $ 1 x c 7 @ o # @ + : t f 9 & . o , h m y * o # # O % 8 f y > O X % 8 f q $ > c Y F j j j j k k k j j j ",
"h j j j j h j j ,.o.F 4 . < B Z 6           % e s 5 X     - x F a +         X 5 s r &     X 4 s 9 X % k Y F j j j j j j j j j h ",
"j h j j j j j j ,.o.D 2   7 R E w         . * a c q O   . > G ( c @         o 0 x d * .   O 0 c u O $ k Y F h h h j j j j j h h ",
"h h h h h g h h ,.o.D 1   r ] { i         . = j B y o   . 3 E +.C #         o r N k - .   O r B d @ # j Y F h h h j h h h h h g ",
"g h h g h g h h ,.o.D 1   r ] { i         . = j B t O   . 2 E +.C #         o e N j = .   o e B d @ $ k U D g g h h h h h h g g ",
"g h g g g g g g ,.o.D 1   e ` ] u           * h N r O   . 2 T X.V #         o e M h = .   o e N s @ # j Y F g g g h h h h h g g ",
"g g g g g f f g ,.o.D 1   e ` ] u           * h N r O   . 2 T X.V #         o e M h = .   o e N s @ @ g U I f g h g g g g g f d ",
"g g f f f f f f ,.o.D 1   e ` ] u           * h N r O   . 2 T X.V #         o e M h = .   o e N s @ # f T ! I A f g f f f f d s ",
"f f f d d d d f ,.o.D 1   e ` ] u           * h N r O   . 2 T X.V #         o e M h = .   o e N s @ # f T Q U S g f f f f f s a ",
"d d d s d d d d ,.o.D 1   e ` ] u           * h N r O   . 2 T X.V #         o e M h = .   o e N s @ # g Y U Z b f f f f d d s a ",
"a a a a s s s d ,.o.D 1   e ` ] u           * h N r O   . 2 T X.V #         o e M h = .   o e N s @ # f Y T S n f d d d s s a p ",
"d a s s s s s s ,.o.D 1   e ` ] u           * h N r O   . 2 T X.V #         o e M h = .   o e N s @ @ s T _ ) U d s s s s a p i ",
"s s s s s s a a ,.o.D 1   e ` ] u           * h N r O   . 2 T X.V #         o e M h = .   o e N s @ + a R { o.^ s s s s a a p u ",
"s d d s s s s a ,.o.D 1   e ` ] u           * h N r O   . 2 T X.V #         o e M h = .   o e N s @ @ d T / ~ K d s s s s a p u ",
"d d d d s d s d ,.o.D ,   9 _ ] t           * h N r O   . 2 T X.V #         o e M h = .   o e N s @ # h Y J v h f d d d s a a u ",
"f f f d d d d d >. .G t 4 x { } c = O .     * h N r O   . 2 T X.V #         o e M h = .   o e N s + $ l Y S f f f d d d d d s a ",
"g f f f d d d f ;.] L G U _ O.o.~ n 4 O     * h N r O   . 2 T X.V #         o e M h = .   o e N s + $ k Y F g g g f f d d d d f ",
"g g f f f d f f -.) I / @.&.+.o.O.~ a @     * h N r O   . 2 T X.V #         o e M h = .   o e N s @ # j Y F g g g f f f f f f f ",
"g f g g g g g g -._ I W { X. .| ..W a @     * h N r O   . 2 T X.V #         o e M h = .   o e N s @ # j Y F h h h g g f f f f f ",
"g f f g g g g g ;.' P L Y Y Y E ^ K t +     * h N r O   . 2 T X.V #         o e M h = .   o e N s @ # j Y F h h g g g f f f g g ",
"g g g f g g g g ;.' P L L M a g G K i O     * h N r O   . 2 T X.V #         o e M h = .   o e N s @ # j Y F h h h g g g g g h h ",
"g g g g g g h j ;.' P Y Y g & - m I d +     * h N r O   . 2 T X.V #         o e M h = .   o e N s @ # j Y F j h h h g h h h h h ",
"h g h g g g g h ;.' I T T f + $ b U f +     * h N r O   . 2 T X.V #         o e M h = .   o e N s @ # j Y F j j j h h h h h h h ",
"h h g g g h h j ;.' P U T c 3 7 C I s +     * h N r O   . 2 T X.V #         o e M h = .   o e N s @ # j Y F j j j h h h j j j j ",
"h h h g h j j j ;.' P L U D b m I P i +     * h N r O   . 2 T X.V #         o e M h = .   o e N s @ # j Y F k j j h j j k j j j ",
"h j j j j j j k ;.' L H I T Q ^ / J r +     * h N r O   . 2 T X.V #         o e M h = .   o e N s @ # j Y F k k k k k k j k j j ",
"j j j j j k j k ;.' L F I ( ..O.{ H w +     * h N r O   . 2 T X.V #         o e M h = .   o e N s @ # j Y F l k k k k k k k k k ",
"j j k k k j k k ;.' L G I ^ |  .' J e +     * h N r O   . 2 T X.V #         o e M h = .   o e N s @ # j Y F k k k k k l l l k k ",
"g h h j k k k k ;.' L H I Y W ! ^ H r +     * h N r O   . 2 T X.V #         o e M h = .   o e N s @ # j Y F l l k l l l l l k k ",
"a d g d j j j j ;.' P P R Y L Y / I u O     * h N r O   . 2 T X.V #         o e M h = .   o e N s @ # j Y F l z z z z z l l k k ",
"#.#.#.#.#.#.#.#.;.' P U ~ W U R _ E a +     * h N r O   . 2 T X.V #         o e M h = .   o e N s @ # j Y F #.#.#.#.#.#.#.#.#.#.",
"U U E U U E E U :.] L D G J I Y R A q O     * h N r O   . 2 T X.V #         o e M h = .   o e N s @ # j Y F U E U E U U U U U U ",
"U E U U U U E U >.| J d 0 d F J z 7 & X     * h N r O   . 2 T X.V #         o e M h = .   o e N s @ # j Y F U U E U E U E U U U ",
"U U E U U U U U ,.o.F 5 o 4 F J 0           * h N r O   . 2 T X.V #         o e M h = .   o e N s @ # j Y F U U U U U E U U U U ",
"U U U E U U U U ,.o.D 1   6 Y T 0           * h N r O   . 2 T X.V #         o e M h = .   o e N s + $ k Y D U U U U U U U U U U ",
"U U U E U E U E ,.o.D 1   w ( _ y           * h N r O   . 2 T X.V #         o e M h = .   o e N s + $ l Y D U U U E U U U U E U ",
"9 9 9 9 9 9 9 9 ,.o.D 1   r [ } p           * h N r O   . 2 T X.V #         o e M h = .   o e N s @ # h U I B k 9 9 9 9 9 9 9 9 ",
"s s s s s s s s ,.o.D 1   r ] { i           * h N r O   . 2 T X.V #         o e M h = .   o e N s @ @ d R ( ^ P s s s s s s s s ",
"h h h h h h h h ,.o.D 1   e ` ] u           * h N r O   . 2 T X.V #         o e M h = .   o e N s @ + i R  .#.` h h h h h h h h ",
"h E ) | ) ) E s ,.o.D 1   e ` ] u           * h N r O   . 2 T X.V #         o e M h = .   o e N s @ + i R ..&.] E ) ) | ) E s h ",
"h F 5.| ) F U s ,.o.D 1   e ` ] u           * h N r O   . 2 T X.V #         o e M h = .   o e N s @ + p R } o./ F #.:.:.N U s h ",
"h F 7.| E N U s ,.o.D 1   e ` ] u           * h N r O   . 2 T X.V #         o e M h = .   o e N s @ @ s T ' ] E F | 7.:.F U s h ",
"h F 5.) F N U s ,.o.D 1   e ` ] u           * h N r O   . 2 T X.V #         o e M h = .   o e N s @ @ d R / ! K F | :.#.U U s h ",
"h F :.) U F U s ,.o.D 1   e ` ] u           * h N r O   . 2 T X.V #         o e M h = .   o e N s @ # f Y R G M F :.#.#.) U s h ",
"h F :.U U U U s ,.o.D 1   e ` ] u           * h N r O   . 2 T X.V #         o e M h = .   o e N s @ # h Y K c h F :.#.#.U U s h ",
"h F #.) U E U s ,.o.D 1   e ` ] u           * h N r O   . 2 T X.V #         o e M h = .   o e N s + $ k Y F d h F :.#.#.E U s h ",
"h F #.| U ) U s ,.o.D 1   e ` ] u           * h N r O   . 2 T X.V #         o e M h = .   o e N s @ # j U D s h F 7.:.:.) U s h ",
"h F #.) F E U s ,.o.D 1   e ` ] u           * h N r O   . 2 T X.V #         o e M h = .   o e N s @ # j Y F g h F 5.5.5.E U s h ",
"h F | ) U ) U s 1.o.D <   r ] { i           * g M r O   . 2 R O.C #         o w m h = .   o w M a O $ z E J h h F 5.5.:.| U s h ",
"h F #.) U F U s 2.+.D <   r ] { i     . . . = f m e +   . 2 R O.C $   . .   O w n g - .   O q m p + & v ! K h h F 5.5.:.| U s h ",
"h F #.) E ) U s *.} H e : d ( ) h * % > - = 8 v C f < # % e Y [ Z 4 % ; : * < f C v 9 * $ < d C k 1 5 V ^ L h h F :.5.:.) U s h ",
"h N N z N N N s ] ^ P N v Z R E A x z v c x M D J Z b z l B Y ! J n z c c x b Z J F M x l b Z J S b N Y ! G h h N N N z N N s h ",
"h 9 9 9 9 9 9 9 ! R U I U U U U U U U U U U U U U U U U U U U U U U U U U U U U U U U U U U U U I I R / Q S g h 9 9 9 9 9 9 9 h ",
"h h h h h h h h h h h h h h h h h h h h h h h h h h h h h h h h h h h h h h h h h h h h h h h h h h h h h h h h h h h h h h h h "
};
