/* XPM */
static char *_1614_6ae30c14d209ab0f9f15edf8a0c72007e592bff04836614ce249df2669acc716[] = {
/* columns rows colors chars-per-pixel */
"64 64 102 2 ",
"   c black",
".  c #010101",
"X  c #020202",
"o  c gray1",
"O  c #040404",
"+  c gray2",
"@  c #060606",
"#  c #070707",
"$  c gray3",
"%  c #090909",
"&  c gray4",
"*  c #0B0B0B",
"=  c #0C0C0C",
"-  c gray5",
";  c #0E0E0E",
":  c gray6",
">  c #101010",
",  c #111111",
"<  c gray7",
"1  c #131313",
"2  c gray8",
"3  c #151515",
"4  c #161616",
"5  c gray9",
"6  c #181818",
"7  c #191919",
"8  c gray10",
"9  c #1B1B1B",
"0  c gray11",
"q  c #1D1D1D",
"w  c #1E1E1E",
"e  c gray12",
"r  c #202020",
"t  c gray13",
"y  c #222222",
"u  c #232323",
"i  c gray14",
"p  c #252525",
"a  c gray15",
"s  c #272727",
"d  c #282828",
"f  c gray16",
"g  c #2A2A2A",
"h  c gray17",
"j  c #2C2C2C",
"k  c #2D2D2D",
"l  c gray18",
"z  c #2F2F2F",
"x  c gray19",
"c  c #313131",
"v  c #323232",
"b  c gray20",
"n  c #343434",
"m  c #353535",
"M  c gray21",
"N  c #373737",
"B  c gray22",
"V  c #393939",
"C  c #3A3A3A",
"Z  c gray23",
"A  c #3C3C3C",
"S  c gray24",
"D  c #3E3E3E",
"F  c #3F3F3F",
"G  c gray25",
"H  c #414141",
"J  c gray26",
"K  c #434343",
"L  c #444444",
"P  c gray27",
"I  c #464646",
"U  c gray28",
"Y  c #484848",
"T  c #494949",
"R  c gray29",
"E  c #4B4B4B",
"W  c #4C4C4C",
"Q  c gray30",
"!  c #4E4E4E",
"~  c gray31",
"^  c #505050",
"/  c #515151",
"(  c gray32",
")  c #535353",
"_  c gray33",
"`  c #555555",
"'  c #565656",
"]  c gray34",
"[  c #585858",
"{  c #5A5A5A",
"}  c gray36",
"|  c gray37",
" . c #5F5F5F",
".. c #606060",
"X. c gray38",
"o. c #626262",
"O. c #646464",
"+. c gray40",
"@. c #676767",
"#. c #6A6A6A",
"$. c #6F6F6F",
"%. c #777777",
/* pixels */
"S S S S S S S S S S S S H S H S S S S S S S S H S S S S S S S S S S H S S S S S S S S S S S S S S H S H S S S S S S S S H S S S ",
"S S S S H S S S S S S S S H S H S S S S S S S S H S S S S S S S S S S H S S S S S H S S S S S S S S H S H S S S S S S S S H S S ",
"S S S H S H S H S S S H S S H S S S S S H S S S S H S S S S S H S S S S H S S S H S H S H S S S H S S H S S S S S H S S S S H S ",
"S S S S S S H S H S H S S S S S S S S S H H S S H S S S S S S H H S S H S S S S S S S H S H S H S S S S S S S S S H H S S H S S ",
"x x x x x x x x x x x x x x x x x x x x x x x x x x x x x x x x x x x x x x x x x x x x x x x x x x x x x x x x x x x x x x x x ",
"p a d d d d d d d d d f f g g g f f f g g h h h h h h h g g g g h h h h h h h h h g g g g g g h g g g f f f d d d d d f d d d s ",
"a s s s d d s s $.+... .o.o.X.X.X.o.o.o.o.o.o.X.X.X.o.o.o.o.X.X.X.o.o.o.o.o.o.X.X.X.o.o.o.o.X.X.o.O...} Q B d d d d d d d s d s ",
"p a s s a s s a @.] Q ^ ` _ / ^ ) ] ] ' ' ' _ ) ( ) ' ] ] ` ( ^ ( ' ] ' ' ' ' ) ( ) _ ] ] ' ) ( _ ] _ / P n d d s s a s s d s s ",
"a p a s a a a a  .E Z C D D D D D D D D D D D D D D D D D D D D D D D D D D D D D D D D D D D D S D F J A c d s a a a a s s d s ",
"a a s a a a a a | R m p r i l x a e e r e e u g k s r w w i j c g r e e e e r s k h u w q r s k f r i n A b s s a a s s s s s a ",
"a a a a a p p p ..^ N 7 # , g h 4 + o @ + O ; q i 6 % . o : p l w & o @ @ o $ 5 i w ; o X $ 5 i 8 # ; h D M a a a a s s s a a a ",
"p a a a a p a a X.( M 2 . > c b 3           $ 9 y 2 X     = g M t O         X 2 y 0 %     X 2 y 6 X $ s D M a a a a a a a a a p ",
"a p a a a a a a X.( M <   4 G H 8         . & t h 8 o   . ; N U h +         o 7 g u & .   o 7 h e o # s D M p p p a a a a a p p ",
"p p p p p p p p X.( M ,   0 E Q e         . * a c w o   . 1 H ) v @         o 0 x s = .   o 0 c u + @ a D M p p p a p p p p p p ",
"p p p p p p p p X.( M ,   0 E Q e         . * a c q o   . < H ) v @         o 9 x a * .   o 9 c u + # s S M p p p p p p p p p p ",
"p p p p p p p p X.( M ,   9 T E e           & p x 0 o   . < F / c @         o 9 z p * .   o 9 x y + @ a D M p p p p p p p p p p ",
"p p p p p i i p X.( M ,   9 T E e           & p x 0 o   . < F / c @         o 9 z p * .   o 9 x y + + p S A i p p p p p p p i u ",
"p p i i i i i i X.( M ,   9 T E e           & p x 0 o   . < F / c @         o 9 z p * .   o 9 x y + @ i F K A n i p i i i i u y ",
"i i i u u u u i X.( M ,   9 T E e           & p x 0 o   . < F / c @         o 9 z p * .   o 9 x y + @ i F J S m p i i i i i y t ",
"u u u y u u u u X.( M ,   9 T E e           & p x 0 o   . < F / c @         o 9 z p * .   o 9 x y + @ p D S b j i i i i u u y t ",
"t t t t y y y u X.( M ,   9 T E e           & p x 0 o   . < F / c @         o 9 z p * .   o 9 x y + @ i D F m k i u u u y y t r ",
"u t y y y y y y X.( M ,   9 T E e           & p x 0 o   . < F / c @         o 9 z p * .   o 9 x y + + y F Y U S u y y y y t r e ",
"y y y y y y t t X.( M ,   9 T E e           & p x 0 o   . < F / c @         o 9 z p * .   o 9 x y + O t G Q ( P y y y y t t r e ",
"y u u y y y y t X.( M ,   9 T E e           & p x 0 o   . < F / c @         o 9 z p * .   o 9 x y + + u F I L C u y y y y t r e ",
"u u u u y u y u X.( M :   6 Y E q           & p x 0 o   . < F / c @         o 9 z p * .   o 9 x y + @ p D V h p i u u u y t t e ",
"i i i u u u u u ..~ N q 2 g Q Q h * o .     & p x 0 o   . < F / c @         o 9 z p * .   o 9 x y O # d D m i i i u u u u u y t ",
"p i i i u u u i | E Z N S Y ) ( L k 2 o     & p x 0 o   . < F / c @         o 9 z p * .   o 9 x y O # s D M p p p i i u u u u i ",
"p p i i i u i i | U A I _ [ ) ( ) L t +     & p x 0 o   . < F / c @         o 9 z p * .   o 9 x y + @ a D M p p p i i i i i i i ",
"p i p p p p p p | Y A J Q / ~ ! ^ J t +     & p x 0 o   . < F / c @         o 9 z p * .   o 9 x y + @ a D M p p p p p i i i i i ",
"p i i p p p p p | R A Z D D D H P C q O     & p x 0 o   . < F / c @         o 9 z p * .   o 9 x y + @ a D M p p p p p i i i p p ",
"p p p i p p p p | R A Z Z z t p N C e o     & p x 0 o   . < F / c @         o 9 z p * .   o 9 x y + @ a D M p p p p p p p p p p ",
"p p p p p p p a | R A D D p % = l A u O     & p x 0 o   . < F / c @         o 9 z p * .   o 9 x y + @ a D M a p p p p p p p p p ",
"p p p p p p p p | R A F F i O # j S i O     & p x 0 o   . < F / c @         o 9 z p * .   o 9 x y + @ a D M a a a p p p p p p p ",
"p p p p p p p a | R A S F h 1 4 v A y O     & p x 0 o   . < F / c @         o 9 z p * .   o 9 x y + @ a D M a a a p p p a a a a ",
"p p p p p a a a | R A Z S M j l A A e O     & p x 0 o   . < F / c @         o 9 z p * .   o 9 x y + @ a D M s a a p a a s a a a ",
"p a a a a a a s | R Z B A F J P I V 0 O     & p x 0 o   . < F / c @         o 9 z p * .   o 9 x y + @ a D M s s s s s s a s a a ",
"a a a a a s a s | R Z M A U ^ ) Q B 8 O     & p x 0 o   . < F / c @         o 9 z p * .   o 9 x y + @ a D M d s s s s s s s s s ",
"a a s s s a s s | R Z N A P ! ~ R V 9 O     & p x 0 o   . < F / c @         o 9 z p * .   o 9 x y + @ a D M s s s s s d d d s s ",
"p p p a s s s s | R Z B A D J K P B 0 O     & p x 0 o   . < F / c @         o 9 z p * .   o 9 x y + @ a D M d d s d d d d d s s ",
"t u p u a a a a | R A A G D Z D I A e o     & p x 0 o   . < F / c @         o 9 z p * .   o 9 x y + @ a D M d f f f f f d d s s ",
"` ` ` ` ` ` ` ` | R A S L J S G Y H t O     & p x 0 o   . < F / c @         o 9 z p * .   o 9 x y + @ a D M ` ` ` ` ` ` ` ` ` ` ",
"S S H S S H H S  .E Z M N V A D G n 8 o     & p x 0 o   . < F / c @         o 9 z p * .   o 9 x y + @ a D M S H S H S S S S S S ",
"S H S S S S H S ..! V u 7 u M V f 4 % X     & p x 0 o   . < F / c @         o 9 z p * .   o 9 x y + @ a D M S S H S H S H S S S ",
"S S H S S S S S X.( M 2 o 2 M V 7           & p x 0 o   . < F / c @         o 9 z p * .   o 9 x y + @ a D M S S S S S H S S S S ",
"S S S H S S S S X.( M ,   3 D F 7           & p x 0 o   . < F / c @         o 9 z p * .   o 9 x y O # s D M S S S S S S S S S S ",
"S S S H S H S H X.( M ,   8 U Y w           & p x 0 o   . < F / c @         o 9 z p * .   o 9 x y O # d D M S S S H S S S S H S ",
"6 6 6 6 6 6 6 6 X.( M ,   0 W Q r           & p x 0 o   . < F / c @         o 9 z p * .   o 9 x y + @ p S A c s 6 6 6 6 6 6 6 6 ",
"y y y y y y y y X.( M ,   0 E Q e           & p x 0 o   . < F / c @         o 9 z p * .   o 9 x y + + u G U P A y y y y y y y y ",
"p p p p p p p p X.( M ,   9 T E e           & p x 0 o   . < F / c @         o 9 z p * .   o 9 x y + O e G ~ ` T p p p p p p p p ",
"p H U ! U U H y X.( M ,   9 T E e           & p x 0 o   . < F / c @         o 9 z p * .   o 9 x y + O e G ^ [ E H U U ! U H y p ",
"p M #.! U M S y X.( M ,   9 T E e           & p x 0 o   . < F / c @         o 9 z p * .   o 9 x y + O r G Q ( I M `  . .x S y p ",
"p M %.! H x S y X.( M ,   9 T E e           & p x 0 o   . < F / c @         o 9 z p * .   o 9 x y + + y F R E H M ! %. .M S y p ",
"p M #.U M x S y X.( M ,   9 T E e           & p x 0 o   . < F / c @         o 9 z p * .   o 9 x y + + u G I K C M !  .` S S y p ",
"p M  .U S M S y X.( M ,   9 T E e           & p x 0 o   . < F / c @         o 9 z p * .   o 9 x y + @ i D G N z M  .` ` U S y p ",
"p M  .S S S S y X.( M ,   9 T E e           & p x 0 o   . < F / c @         o 9 z p * .   o 9 x y + @ p D C h p M  .` ` S S y p ",
"p M ` U S H S y X.( M ,   9 T E e           & p x 0 o   . < F / c @         o 9 z p * .   o 9 x y O # s D M u p M  .` ` H S y p ",
"p M ` ! S U S y X.( M ,   9 T E e           & p x 0 o   . < F / c @         o 9 z p * .   o 9 x y + @ a S M y p M %. . .U S y p ",
"p M ` U M H S y X.( M ,   9 T E e           & p x 0 o   . < F / c @         o 9 z p * .   o 9 x y + @ a D M p p M #.#.#.H S y p ",
"p M ! U S U S y O.( M >   0 E Q e           & p z 0 o   . < G ) v @         o 8 l p * .   o 8 z t o # f H V p p M #.#. .! S y p ",
"p M ` U S M S y O.) M >   0 E Q e     . . . * i l 9 O   . < G ) v #   . .   o 8 k p = .   o 8 l r O % h K C p p M #.#. .! S y p ",
"p M ` U H U S y { Q B 9 ; u U U p & $ ; = * 5 h v i > @ $ 9 D W b 2 $ - ; & > i v h 6 & # > u v s , 2 c P Z p p M  .#. .U S y p ",
"p x x f x x x y E P A x h b G H n g f h h g z M V b j f d c D K V k f h h g j b V M z g d j b V m j x D K N p p x x x f x x y p ",
"p 6 6 6 6 6 6 6 K G S A S S S S S S S S S S S S S S S S S S S S S S S S S S S S S S S S S S S S A A G I J m p p 6 6 6 6 6 6 6 p ",
"p p p p p p p p p p p p p p p p p p p p p p p p p p p p p p p p p p p p p p p p p p p p p p p p p p p p p p p p p p p p p p p p "
};
