/* XPM */
static char *_8003839bd484964963510d1ec7407d5_1[] = {
/* columns rows colors chars-per-pixel */
"63 63 64 1 ",
"  c gray66",
". c gray33",
"X c gray99",
"o c #ECECEC",
"O c #D0D0D0",
"+ c #C0C0C0",
"@ c #B4B4B4",
"# c #989898",
"$ c gray55",
"% c #7C7C7C",
"& c gray44",
"* c #646464",
"= c #484848",
"- c gray22",
"; c #202020",
": c #282828",
"> c gray11",
", c gray36",
"< c gray25",
"1 c #343434",
"2 c gainsboro",
"3 c #FCE0D0",
"4 c #FCD8C4",
"5 c #FCD4BC",
"6 c #FCCCB0",
"7 c #FCC4A4",
"8 c #FCBC9C",
"9 c #FCB890",
"0 c #FCB080",
"q c #FCA470",
"w c #E88C58",
"e c #DC8854",
"r c #D08050",
"t c #C87C4C",
"y c #BC7848",
"u c #A86840",
"i c #B47044",
"p c None",
"a c black",
"s c black",
"d c black",
"f c black",
"g c black",
"h c black",
"j c black",
"k c black",
"l c black",
"z c black",
"x c black",
"c c black",
"v c black",
"b c black",
"n c black",
"m c black",
"M c black",
"N c black",
"B c black",
"V c black",
"C c black",
"Z c black",
"A c black",
"S c black",
"D c black",
"F c black",
/* pixels */
"XXX...ppppppppppppppppppppppppppppppppppppppppppppppppppppppppp",
"XXX...ppppppppppppppppppppppppppppppppppppppppppppppppppppppppp",
"XXX...ppppppppppppppppppppppppppppppppppppppppppppppppppppppppp",
"XXX111@@@pppppppppppppppppppppppppppppppppppppppppppppppppppppp",
"XXX111@@@pppppppppppppppppppppppppppppppppppppppppppppppppppppp",
"XXX111@@@pppppppppppppppppppppppppppppppppppppppppppppppppppppp",
"ooo---%%%+++ppppppppppppppppppppppppppppppppppppppppppppppppppp",
"ooo---%%%+++ppppppppppppppppppppppppppppppppppppppppppppppppppp",
"ooo---%%%+++ppppppppppppppppppppppppppppppppppppppppppppppppppp",
"OOO===***###@@@pppppppppppppppppppppppppppppppppppppppppppppppp",
"OOO===***###@@@pppppppppppppppppppppppppppppppppppppppppppppppp",
"OOO===***###@@@pppppppppppppppppppppppppppppppppppppppppppppppp",
"@@@<<<===###%%%@@@ppppppppppppppppppppppppppppppppppppppppppppp",
"@@@<<<===###%%%@@@ppppppppppppppppppppppppppppppppppppppppppppp",
"@@@<<<===###%%%@@@ppppppppppppppppppppppppppppppppppppppppppppp",
"   +++---111%%%###OOOpppppppppppppppppppppppppppppppppppppppppp",
"   +++---111%%%###OOOpppppppppppppppppppppppppppppppppppppppppp",
"   +++---111%%%###OOOpppppppppppppppppppppppppppppppppppppppppp",
"%%%XXX%%%;;;>>>:::...OOOppppppppppppppppppppppppppppppppppppppp",
"%%%XXX%%%;;;>>>:::...OOOppppppppppppppppppppppppppppppppppppppp",
"%%%XXX%%%;;;>>>:::...OOOppppppppppppppppppppppppppppppppppppppp",
"ppp@@@ooo&&&------>>>---@@@pppppppppppppppppppppppppppppppppppp",
"ppp@@@ooo&&&------>>>---@@@pppppppppppppppppppppppppppppppppppp",
"ppp@@@ooo&&&------>>>---@@@pppppppppppppppppppppppppppppppppppp",
"ppppppooo@@@,,,$$$%%%;;;:::###ppppppppppppppppppppppppppppppppp",
"ppppppooo@@@,,,$$$%%%;;;:::###ppppppppppppppppppppppppppppppppp",
"ppppppooo@@@,,,$$$%%%;;;:::###ppppppppppppppppppppppppppppppppp",
"pppppp,,,oooOOO***###...===$$$222555555pppppppppppppppppppppppp",
"pppppp,,,oooOOO***###...===$$$222555555pppppppppppppppppppppppp",
"pppppp,,,oooOOO***###...===$$$222555555pppppppppppppppppppppppp",
"ppppppppp***OOO$$$<<<$$$@@@444444555777000ppppppppppppppppppppp",
"ppppppppp***OOO$$$<<<$$$@@@444444555777000ppppppppppppppppppppp",
"ppppppppp***OOO$$$<<<$$$@@@444444555777000ppppppppppppppppppppp",
"pppppppppppp###===***666444444666555999rrrrrrpppppppppppppppppp",
"pppppppppppp###===***666444444666555999rrrrrrpppppppppppppppppp",
"pppppppppppp###===***666444444666555999rrrrrrpppppppppppppppppp",
"ppppppppppppppp%%%XXX444666666666777000eeeyyywwwppppppppppppppp",
"ppppppppppppppp%%%XXX444666666666777000eeeyyywwwppppppppppppppp",
"ppppppppppppppp%%%XXX444666666666777000eeeyyywwwppppppppppppppp",
"ppppppppppppppp333777888777999888777000eeeyyyyyyrrrpppppppppppp",
"ppppppppppppppp333777888777999888777000eeeyyyyyyrrrpppppppppppp",
"ppppppppppppppp333777888777999888777000eeeyyyyyyrrrpppppppppppp",
"pppppppppppppppqqq888777999888999888000wwwrrryyyrrrpppppppppppp",
"pppppppppppppppqqq888777999888999888000wwwrrryyyrrrpppppppppppp",
"pppppppppppppppqqq888777999888999888000wwwrrryyyrrrpppppppppppp",
"ppppppppppppppptttqqq888777999999999000qqqrrrrrruuupppppppppppp",
"ppppppppppppppptttqqq888777999999999000qqqrrrrrruuupppppppppppp",
"ppppppppppppppptttqqq888777999999999000qqqrrrrrruuupppppppppppp",
"ppppppppppppppppppwww000999qqq888777000qqqrrryyyuuupppppppppppp",
"ppppppppppppppppppwww000999qqq888777000qqqrrryyyuuupppppppppppp",
"ppppppppppppppppppwww000999qqq888777000qqqrrryyyuuupppppppppppp",
"pppppppppppppppppppppeeeeee000888666444777qqqeeeuuupppppppppppp",
"pppppppppppppppppppppeeeeee000888666444777qqqeeeuuupppppppppppp",
"pppppppppppppppppppppeeeeee000888666444777qqqeeeuuupppppppppppp",
"pppppppppppppppppppppppprrruuu000555555444777qqqtttyyyppppppppp",
"pppppppppppppppppppppppprrruuu000555555444777qqqtttyyyppppppppp",
"pppppppppppppppppppppppprrruuu000555555444777qqqtttyyyppppppppp",
"ppppppppppppppppppppppppppppppyyy000555444666888999qqqrrriiippp",
"ppppppppppppppppppppppppppppppyyy000555444666888999qqqrrriiippp",
"ppppppppppppppppppppppppppppppyyy000555444666888999qqqrrriiippp",
"ppppppppppppppppppppppppppppppeeeeee999666444444777999qqqrrrrrr",
"ppppppppppppppppppppppppppppppeeeeee999666444444777999qqqrrrrrr",
"ppppppppppppppppppppppppppppppeeeeee999666444444777999qqqrrrrrr"
};
