/* XPM */
static char *_8003839bd484964963510d1ec7407d5_2[] = {
/* columns rows colors chars-per-pixel */
"84 78 64 1 ",
"  c gray66",
". c gray33",
"X c gray99",
"o c #ECECEC",
"O c #D0D0D0",
"+ c #C0C0C0",
"@ c #B4B4B4",
"# c #989898",
"$ c gray55",
"% c #7C7C7C",
"& c gray44",
"* c #646464",
"= c #484848",
"- c gray22",
"; c #202020",
": c #282828",
"> c gray11",
", c gray36",
"< c gray25",
"1 c #343434",
"2 c gainsboro",
"3 c #FCE0D0",
"4 c #FCD8C4",
"5 c #FCD4BC",
"6 c #FCCCB0",
"7 c #FCC4A4",
"8 c #FCBC9C",
"9 c #FCB890",
"0 c #FCB080",
"q c #FCA470",
"w c #E88C58",
"e c #DC8854",
"r c #D08050",
"t c #C87C4C",
"y c #BC7848",
"u c #A86840",
"i c #B47044",
"p c #885830",
"a c None",
"s c black",
"d c black",
"f c black",
"g c black",
"h c black",
"j c black",
"k c black",
"l c black",
"z c black",
"x c black",
"c c black",
"v c black",
"b c black",
"n c black",
"m c black",
"M c black",
"N c black",
"B c black",
"V c black",
"C c black",
"Z c black",
"A c black",
"S c black",
"D c black",
"F c black",
/* pixels */
"XXX...aaaaaaaaaaaaaaaaaaaaaaaaaaaaaaaaaaaaaaaaaaaaaaaaaaaaaaaaaaaaaaaaaaaaaaaaaaaaaa",
"XXX...aaaaaaaaaaaaaaaaaaaaaaaaaaaaaaaaaaaaaaaaaaaaaaaaaaaaaaaaaaaaaaaaaaaaaaaaaaaaaa",
"XXX...aaaaaaaaaaaaaaaaaaaaaaaaaaaaaaaaaaaaaaaaaaaaaaaaaaaaaaaaaaaaaaaaaaaaaaaaaaaaaa",
"XXX111@@@aaaaaaaaaaaaaaaaaaaaaaaaaaaaaaaaaaaaaaaaaaaaaaaaaaaaaaaaaaaaaaaaaaaaaaaaaaa",
"XXX111@@@aaaaaaaaaaaaaaaaaaaaaaaaaaaaaaaaaaaaaaaaaaaaaaaaaaaaaaaaaaaaaaaaaaaaaaaaaaa",
"XXX111@@@aaaaaaaaaaaaaaaaaaaaaaaaaaaaaaaaaaaaaaaaaaaaaaaaaaaaaaaaaaaaaaaaaaaaaaaaaaa",
"ooo---%%%+++aaaaaaaaaaaaaaaaaaaaaaaaaaaaaaaaaaaaaaaaaaaaaaaaaaaaaaaaaaaaaaaaaaaaaaaa",
"ooo---%%%+++aaaaaaaaaaaaaaaaaaaaaaaaaaaaaaaaaaaaaaaaaaaaaaaaaaaaaaaaaaaaaaaaaaaaaaaa",
"ooo---%%%+++aaaaaaaaaaaaaaaaaaaaaaaaaaaaaaaaaaaaaaaaaaaaaaaaaaaaaaaaaaaaaaaaaaaaaaaa",
"OOO===***###@@@aaaaaaaaaaaaaaaaaaaaaaaaaaaaaaaaaaaaaaaaaaaaaaaaaaaaaaaaaaaaaaaaaaaaa",
"OOO===***###@@@aaaaaaaaaaaaaaaaaaaaaaaaaaaaaaaaaaaaaaaaaaaaaaaaaaaaaaaaaaaaaaaaaaaaa",
"OOO===***###@@@aaaaaaaaaaaaaaaaaaaaaaaaaaaaaaaaaaaaaaaaaaaaaaaaaaaaaaaaaaaaaaaaaaaaa",
"@@@<<<===###%%%@@@aaaaaaaaaaaaaaaaaaaaaaaaaaaaaaaaaaaaaaaaaaaaaaaaaaaaaaaaaaaaaaaaaa",
"@@@<<<===###%%%@@@aaaaaaaaaaaaaaaaaaaaaaaaaaaaaaaaaaaaaaaaaaaaaaaaaaaaaaaaaaaaaaaaaa",
"@@@<<<===###%%%@@@aaaaaaaaaaaaaaaaaaaaaaaaaaaaaaaaaaaaaaaaaaaaaaaaaaaaaaaaaaaaaaaaaa",
"   +++---111%%%###OOOaaaaaaaaaaaaaaaaaaaaaaaaaaaaaaaaaaaaaaaaaaaaaaaaaaaaaaaaaaaaaaa",
"   +++---111%%%###OOOaaaaaaaaaaaaaaaaaaaaaaaaaaaaaaaaaaaaaaaaaaaaaaaaaaaaaaaaaaaaaaa",
"   +++---111%%%###OOOaaaaaaaaaaaaaaaaaaaaaaaaaaaaaaaaaaaaaaaaaaaaaaaaaaaaaaaaaaaaaaa",
"%%%XXX%%%;;;>>>:::...OOOaaaaaaaaaaaaaaaaaaaaaaaaaaaaaaaaaaaaaaaaaaaaaaaaaaaaaaaaaaaa",
"%%%XXX%%%;;;>>>:::...OOOaaaaaaaaaaaaaaaaaaaaaaaaaaaaaaaaaaaaaaaaaaaaaaaaaaaaaaaaaaaa",
"%%%XXX%%%;;;>>>:::...OOOaaaaaaaaaaaaaaaaaaaaaaaaaaaaaaaaaaaaaaaaaaaaaaaaaaaaaaaaaaaa",
"aaa@@@ooo&&&------>>>---@@@aaaaaaaaaaaaaaaaaaaaaaaaaaaaaaaaaaaaaaaaaaaaaaaaaaaaaaaaa",
"aaa@@@ooo&&&------>>>---@@@aaaaaaaaaaaaaaaaaaaaaaaaaaaaaaaaaaaaaaaaaaaaaaaaaaaaaaaaa",
"aaa@@@ooo&&&------>>>---@@@aaaaaaaaaaaaaaaaaaaaaaaaaaaaaaaaaaaaaaaaaaaaaaaaaaaaaaaaa",
"aaaaaaooo@@@,,,$$$%%%;;;:::###aaaaaaaaaaaaaaaaaaaaaaaaaaaaaaaaaaaaaaaaaaaaaaaaaaaaaa",
"aaaaaaooo@@@,,,$$$%%%;;;:::###aaaaaaaaaaaaaaaaaaaaaaaaaaaaaaaaaaaaaaaaaaaaaaaaaaaaaa",
"aaaaaaooo@@@,,,$$$%%%;;;:::###aaaaaaaaaaaaaaaaaaaaaaaaaaaaaaaaaaaaaaaaaaaaaaaaaaaaaa",
"aaaaaa,,,oooOOO***###...===$$$222555555aaaaaaaaaaaaaaaaaaaaaaaaaaaaaaaaaaaaaaaaaaaaa",
"aaaaaa,,,oooOOO***###...===$$$222555555aaaaaaaaaaaaaaaaaaaaaaaaaaaaaaaaaaaaaaaaaaaaa",
"aaaaaa,,,oooOOO***###...===$$$222555555aaaaaaaaaaaaaaaaaaaaaaaaaaaaaaaaaaaaaaaaaaaaa",
"aaaaaaaaa***OOO$$$<<<$$$@@@444444555777000aaaaaaaaaaaaaaaaaaaaaaaaaaaaaaaaaaaaaaaaaa",
"aaaaaaaaa***OOO$$$<<<$$$@@@444444555777000aaaaaaaaaaaaaaaaaaaaaaaaaaaaaaaaaaaaaaaaaa",
"aaaaaaaaa***OOO$$$<<<$$$@@@444444555777000aaaaaaaaaaaaaaaaaaaaaaaaaaaaaaaaaaaaaaaaaa",
"aaaaaaaaaaaa###===***666444444666555999rrrrrraaaaaaaaaaaaaaaaaaaaaaaaaaaaaaaaaaaaaaa",
"aaaaaaaaaaaa###===***666444444666555999rrrrrraaaaaaaaaaaaaaaaaaaaaaaaaaaaaaaaaaaaaaa",
"aaaaaaaaaaaa###===***666444444666555999rrrrrraaaaaaaaaaaaaaaaaaaaaaaaaaaaaaaaaaaaaaa",
"aaaaaaaaaaaaaaa%%%XXX444666666666777000eeeyyywwwaaaaaaaaaaaaaaaaaaaaaaaaaaaaaaaaaaaa",
"aaaaaaaaaaaaaaa%%%XXX444666666666777000eeeyyywwwaaaaaaaaaaaaaaaaaaaaaaaaaaaaaaaaaaaa",
"aaaaaaaaaaaaaaa%%%XXX444666666666777000eeeyyywwwaaaaaaaaaaaaaaaaaaaaaaaaaaaaaaaaaaaa",
"aaaaaaaaaaaaaaa333777888777999888777000eeeyyyyyyrrraaaaaaaaaaaaaaaaaaaaaaaaaaaaaaaaa",
"aaaaaaaaaaaaaaa333777888777999888777000eeeyyyyyyrrraaaaaaaaaaaaaaaaaaaaaaaaaaaaaaaaa",
"aaaaaaaaaaaaaaa333777888777999888777000eeeyyyyyyrrraaaaaaaaaaaaaaaaaaaaaaaaaaaaaaaaa",
"aaaaaaaaaaaaaaaqqq888777999888999888000wwwrrryyyrrraaaaaaaaaaaaaaaaaaaaaaaaaaaaaaaaa",
"aaaaaaaaaaaaaaaqqq888777999888999888000wwwrrryyyrrraaaaaaaaaaaaaaaaaaaaaaaaaaaaaaaaa",
"aaaaaaaaaaaaaaaqqq888777999888999888000wwwrrryyyrrraaaaaaaaaaaaaaaaaaaaaaaaaaaaaaaaa",
"aaaaaaaaaaaaaaatttqqq888777999999999000qqqrrrrrruuuaaaaaaaaaaaaaaaaaaaaaaaaaaaaaaaaa",
"aaaaaaaaaaaaaaatttqqq888777999999999000qqqrrrrrruuuaaaaaaaaaaaaaaaaaaaaaaaaaaaaaaaaa",
"aaaaaaaaaaaaaaatttqqq888777999999999000qqqrrrrrruuuaaaaaaaaaaaaaaaaaaaaaaaaaaaaaaaaa",
"aaaaaaaaaaaaaaaaaawww000999qqq888777000qqqrrryyyuuuaaaaaaaaaaaaaaaaaaaaaaaaaaaaaaaaa",
"aaaaaaaaaaaaaaaaaawww000999qqq888777000qqqrrryyyuuuaaaaaaaaaaaaaaaaaaaaaaaaaaaaaaaaa",
"aaaaaaaaaaaaaaaaaawww000999qqq888777000qqqrrryyyuuuaaaaaaaaaaaaaaaaaaaaaaaaaaaaaaaaa",
"aaaaaaaaaaaaaaaaaaaaaeeeeee000888666444777qqqeeeuuupppaaaaaaaaaaaaaaaaaaaaaaaaaaaaaa",
"aaaaaaaaaaaaaaaaaaaaaeeeeee000888666444777qqqeeeuuupppaaaaaaaaaaaaaaaaaaaaaaaaaaaaaa",
"aaaaaaaaaaaaaaaaaaaaaeeeeee000888666444777qqqeeeuuupppaaaaaaaaaaaaaaaaaaaaaaaaaaaaaa",
"aaaaaaaaaaaaaaaaaaaaaaaaaaauuu000555555444777qqqtttyyyuuuaaaaaaaaaaaaaaaaaaaaaaaaaaa",
"aaaaaaaaaaaaaaaaaaaaaaaaaaauuu000555555444777qqqtttyyyuuuaaaaaaaaaaaaaaaaaaaaaaaaaaa",
"aaaaaaaaaaaaaaaaaaaaaaaaaaauuu000555555444777qqqtttyyyuuuaaaaaaaaaaaaaaaaaaaaaaaaaaa",
"aaaaaaaaaaaaaaaaaaaaaaaaaaaaaayyy000555444666888999qqqrrriiiaaaaaaaaaaaaaaaaaaaaaaaa",
"aaaaaaaaaaaaaaaaaaaaaaaaaaaaaayyy000555444666888999qqqrrriiiaaaaaaaaaaaaaaaaaaaaaaaa",
"aaaaaaaaaaaaaaaaaaaaaaaaaaaaaayyy000555444666888999qqqrrriiiaaaaaaaaaaaaaaaaaaaaaaaa",
"aaaaaaaaaaaaaaaaaaaaaaaaaaaaaaaaaqqq999666444444777999qqqrrrrrraaaaaaaaaaaaaaaaaaaaa",
"aaaaaaaaaaaaaaaaaaaaaaaaaaaaaaaaaqqq999666444444777999qqqrrrrrraaaaaaaaaaaaaaaaaaaaa",
"aaaaaaaaaaaaaaaaaaaaaaaaaaaaaaaaaqqq999666444444777999qqqrrrrrraaaaaaaaaaaaaaaaaaaaa",
"aaaaaaaaaaaaaaaaaaaaaaaaaaaaaaaaauuu000666444444444666999qqqqqqwwwyyyaaaaaaaaaaaaaaa",
"aaaaaaaaaaaaaaaaaaaaaaaaaaaaaaaaauuu000666444444444666999qqqqqqwwwyyyaaaaaaaaaaaaaaa",
"aaaaaaaaaaaaaaaaaaaaaaaaaaaaaaaaauuu000666444444444666999qqqqqqwwwyyyaaaaaaaaaaaaaaa",
"aaaaaaaaaaaaaaaaaaaaaaaaaaaaaaaaaaaaqqq666444444444444555777999999qqqeeeaaaaaaaaaaaa",
"aaaaaaaaaaaaaaaaaaaaaaaaaaaaaaaaaaaaqqq666444444444444555777999999qqqeeeaaaaaaaaaaaa",
"aaaaaaaaaaaaaaaaaaaaaaaaaaaaaaaaaaaaqqq666444444444444555777999999qqqeeeaaaaaaaaaaaa",
"aaaaaaaaaaaaaaaaaaaaaaaaaaaaaaaaaaaauuuqqq666444444444444666777999999999eeeaaaaaaaaa",
"aaaaaaaaaaaaaaaaaaaaaaaaaaaaaaaaaaaauuuqqq666444444444444666777999999999eeeaaaaaaaaa",
"aaaaaaaaaaaaaaaaaaaaaaaaaaaaaaaaaaaauuuqqq666444444444444666777999999999eeeaaaaaaaaa",
"aaaaaaaaaaaaaaaaaaaaaaaaaaaaaaaaaaaaaaaqqq777666444444444444444666888999qqqeeeeeeaaa",
"aaaaaaaaaaaaaaaaaaaaaaaaaaaaaaaaaaaaaaaqqq777666444444444444444666888999qqqeeeeeeaaa",
"aaaaaaaaaaaaaaaaaaaaaaaaaaaaaaaaaaaaaaaqqq777666444444444444444666888999qqqeeeeeeaaa",
"aaaaaaaaaaaaaaaaaaaaaaaaaaaaaaaaaaaaaaauuuqqq666444444444444444444888888999qqqeeerrr",
"aaaaaaaaaaaaaaaaaaaaaaaaaaaaaaaaaaaaaaauuuqqq666444444444444444444888888999qqqeeerrr",
"aaaaaaaaaaaaaaaaaaaaaaaaaaaaaaaaaaaaaaauuuqqq666444444444444444444888888999qqqeeerrr"
};
