/* XPM */
static char *_8003839bd484964963510d1ec7407d5_0[] = {
/* columns rows colors chars-per-pixel */
"54 48 64 1 ",
"  c gray66",
". c gray33",
"X c gray99",
"o c #ECECEC",
"O c #D0D0D0",
"+ c #C0C0C0",
"@ c #B4B4B4",
"# c #989898",
"$ c gray55",
"% c #7C7C7C",
"& c gray44",
"* c #646464",
"= c #484848",
"- c gray22",
"; c #202020",
": c #282828",
"> c gray11",
", c gray36",
"< c gray25",
"1 c #343434",
"2 c gainsboro",
"3 c #FCE0D0",
"4 c #FCD8C4",
"5 c #FCD4BC",
"6 c #FCCCB0",
"7 c #FCC4A4",
"8 c #FCBC9C",
"9 c #FCB890",
"0 c #FCB080",
"q c #FCA470",
"w c #E88C58",
"e c #DC8854",
"r c #D08050",
"t c #C87C4C",
"y c #BC7848",
"u c #A86840",
"i c None",
"p c #885830",
"a c black",
"s c black",
"d c black",
"f c black",
"g c black",
"h c black",
"j c black",
"k c black",
"l c black",
"z c black",
"x c black",
"c c black",
"v c black",
"b c black",
"n c black",
"m c black",
"M c black",
"N c black",
"B c black",
"V c black",
"C c black",
"Z c black",
"A c black",
"S c black",
"D c black",
"F c black",
/* pixels */
"XXX...&&&iiiiiiiiiiiiiiiiiiiiiiiiiiiiiiiiiiiiiiiiiiiii",
"XXX...&&&iiiiiiiiiiiiiiiiiiiiiiiiiiiiiiiiiiiiiiiiiiiii",
"XXX...&&&iiiiiiiiiiiiiiiiiiiiiiiiiiiiiiiiiiiiiiiiiiiii",
"XXX111@@@...iiiiiiiiiiiiiiiiiiiiiiiiiiiiiiiiiiiiiiiiii",
"XXX111@@@...iiiiiiiiiiiiiiiiiiiiiiiiiiiiiiiiiiiiiiiiii",
"XXX111@@@...iiiiiiiiiiiiiiiiiiiiiiiiiiiiiiiiiiiiiiiiii",
"ooo---%%%+++...iiiiiiiiiiiiiiiiiiiiiiiiiiiiiiiiiiiiiii",
"ooo---%%%+++...iiiiiiiiiiiiiiiiiiiiiiiiiiiiiiiiiiiiiii",
"ooo---%%%+++...iiiiiiiiiiiiiiiiiiiiiiiiiiiiiiiiiiiiiii",
"OOO===***###@@@...iiiiiiiiiiiiiiiiiiiiiiiiiiiiiiiiiiii",
"OOO===***###@@@...iiiiiiiiiiiiiiiiiiiiiiiiiiiiiiiiiiii",
"OOO===***###@@@...iiiiiiiiiiiiiiiiiiiiiiiiiiiiiiiiiiii",
"@@@<<<===###%%%@@@...iiiiiiiiiiiiiiiiiiiiiiiiiiiiiiiii",
"@@@<<<===###%%%@@@...iiiiiiiiiiiiiiiiiiiiiiiiiiiiiiiii",
"@@@<<<===###%%%@@@...iiiiiiiiiiiiiiiiiiiiiiiiiiiiiiiii",
"   +++---111%%%###OOO...iiiiiiiiiiiiiiiiiiiiiiiiiiiiii",
"   +++---111%%%###OOO...iiiiiiiiiiiiiiiiiiiiiiiiiiiiii",
"   +++---111%%%###OOO...iiiiiiiiiiiiiiiiiiiiiiiiiiiiii",
"%%%XXX%%%;;;>>>:::...OOO...iiiiiiiiiiiiiiiiiiiiiiiiiii",
"%%%XXX%%%;;;>>>:::...OOO...iiiiiiiiiiiiiiiiiiiiiiiiiii",
"%%%XXX%%%;;;>>>:::...OOO...iiiiiiiiiiiiiiiiiiiiiiiiiii",
"iii@@@ooo&&&------>>>---@@@...iiiiiiiiiiiiiiiiiiiiiiii",
"iii@@@ooo&&&------>>>---@@@...iiiiiiiiiiiiiiiiiiiiiiii",
"iii@@@ooo&&&------>>>---@@@...iiiiiiiiiiiiiiiiiiiiiiii",
"iiiiiiooo@@@,,,$$$%%%;;;:::###...iiiiiiiiiiiiiiiiiiiii",
"iiiiiiooo@@@,,,$$$%%%;;;:::###...iiiiiiiiiiiiiiiiiiiii",
"iiiiiiooo@@@,,,$$$%%%;;;:::###...iiiiiiiiiiiiiiiiiiiii",
"iiiiii,,,oooOOO***###...===$$$222555555iiiiiiiiiiiiiii",
"iiiiii,,,oooOOO***###...===$$$222555555iiiiiiiiiiiiiii",
"iiiiii,,,oooOOO***###...===$$$222555555iiiiiiiiiiiiiii",
"iiiiiiiii***OOO$$$<<<$$$@@@444444555777000iiiiiiiiiiii",
"iiiiiiiii***OOO$$$<<<$$$@@@444444555777000iiiiiiiiiiii",
"iiiiiiiii***OOO$$$<<<$$$@@@444444555777000iiiiiiiiiiii",
"iiiiiiiiiiii###===***666444444666555999rrrrrriiiiiiiii",
"iiiiiiiiiiii###===***666444444666555999rrrrrriiiiiiiii",
"iiiiiiiiiiii###===***666444444666555999rrrrrriiiiiiiii",
"iiiiiiiiiiiiiii%%%XXX444666666666777000eeeyyywwwiiiiii",
"iiiiiiiiiiiiiii%%%XXX444666666666777000eeeyyywwwiiiiii",
"iiiiiiiiiiiiiii%%%XXX444666666666777000eeeyyywwwiiiiii",
"iiiiiiiiiiiiiii333777888777999888777000eeeyyyyyyiiiiii",
"iiiiiiiiiiiiiii333777888777999888777000eeeyyyyyyiiiiii",
"iiiiiiiiiiiiiii333777888777999888777000eeeyyyyyyiiiiii",
"iiiiiiiiiiiiiiiqqq888777999888999888000wwwrrryyyrrriii",
"iiiiiiiiiiiiiiiqqq888777999888999888000wwwrrryyyrrriii",
"iiiiiiiiiiiiiiiqqq888777999888999888000wwwrrryyyrrriii",
"iiiiiiiiiiiiiiitttqqq888777999999999000qqqrrrrrruuuyyy",
"iiiiiiiiiiiiiiitttqqq888777999999999000qqqrrrrrruuuyyy",
"iiiiiiiiiiiiiiitttqqq888777999999999000qqqrrrrrruuuyyy"
};
