/* XPM */
static char *_3470_17410dcca8980ea5bab0ac7a703d434650658e4babe16142290482c8cb83e63f[] = {
/* columns rows colors chars-per-pixel */
"146 90 29 1 ",
"  c black",
". c #171F07",
"X c #131313",
"o c #1B1B1B",
"O c #2F1B0B",
"+ c #13230B",
"@ c #2B230F",
"# c #372313",
"$ c #332B13",
"% c #3F2F17",
"& c #2F371F",
"* c #272727",
"= c #2F2F2F",
"- c #373F27",
"; c #373737",
": c gray23",
"> c #4B371B",
", c #533F1F",
"< c #3F472B",
"1 c #5F4323",
"2 c #6B4727",
"3 c #774F2B",
"4 c #7F532F",
"5 c #434343",
"6 c gray31",
"7 c #875733",
"8 c #8F5F37",
"9 c #979797",
"0 c None",
/* pixels */
"00000000000000000000000000000000000000000000000000000000000000000000000000000000000000000000000000000000000000000000000000000000000000000000000000",
"00000000000000000000000000000000000000000000000000000000000000000000000000000000000000000000000000000000000000000000000000000000000000000000000000",
"00000000000000000000000000000000000000000000000000000000000000000000000000000000000000000000000000000000000000000000000000000000000000000000000000",
"00000000000000000000000000000000000000000000000000000000000000000000000000000000000000000000000000000000000000000000000000000000000000000000000000",
"00000000000000000000000000000000000000000000000000000000000000000000000000000000000000000000000000000000000000000000000000000000000000000000000000",
"00000000000000000000000000000000000000000000000000000000000000000000000000000000000000000000000000000000000000000000000000000000000000000000000000",
"00000000000000000000000000000000000000000000000000000000000000000000000000000000000000000000000000000000000000000000000000000000000000000000000000",
"00000000000000000000000000000000000000000000000000000000000000000000000000000000000000000000000000000000000000000000000000000000000000000000000000",
"00000000000000000000000000000000000000000000000000000000000000000000000000000000000000000000000000000000000000000000000000000000000000000000000000",
"00000000000000000000000000000000000000000000000000000000000000000000000000000000000000000000000000000000000000000000000000000000000000000000000000",
"00000000000000000000000000000000000000000000000000000000000000000000000000000000000000000000000000000000000000000000000000000000000000000000000000",
"00000000000000000000000000000000000000000000000000000000000000000000000000000000000000000000000000000000000000000000000000000000000000000000000000",
"00000000000000000000000000000000000000000000000000000000000000000000000000000000000000000000000000000000000000000000000000000000000000000000000000",
"00000000000000000000000000000000000000000000000000000000000000000000000000000000000000000000000000000000000000000000000000000000000000000000000000",
"00000000000000000000000000000000000000000000000000000000000000000000000000000000000000000000000000000000000000000000000000000000000000000000000000",
"00000000000000000000000000000000000000000000000000000000000000000000000000000000000000000000000000000000000000000000000000000000000000000000000000",
"00000000000000000000000000000000000000000000000000000000000000000000000000000000000000000000000000000000000000000000000000000000000000000000000000",
"00000000000000000000000000000000000000000000000000000000000000000000000000000000000000000000000000000000000000000000000000000000000000000000000000",
"00000000000000000000000000000000000000000000000000000000000000000000000000000000000000000000000000000000000000000000000000000000000000000000000000",
"00000000000000000000000000000000000000000000000000000000000000000000000000000000000000000000000000000000000000000000000000000000000000000000000000",
"00000000000000000000000000000000000000000000000000000000000000000000000000000000000000000000000000000000000000000000000000000000000000000000000000",
"00000000000000000000000000000000000000000000000000000000000000000000000000000000000000000000000000000000000000000000000000000000000000000000000000",
"00000000000000000000000000000000000000000000000000000000000000000000000000000000000000000000000000000000000000000000000000000000000000000000000000",
"00000000000000000000000000000000000000000000000000000000000000000000000000000000000000000000000000000000000000000000000000000000000000000000000000",
"00000000000000000000000000000000000000000000000000000000000000000000000000000000000000000000000000000000000000000000000000000000000000000000000000",
"00000000000000000000000000000000000000000000000000000000000000000000000000000000000000000000000000000000000000000000000000000000000000000000000000",
"00000000000000000000000000000000000000000000000000000000000000000000000000000000000000000000000000000000000000000000000000000000000000000000000000",
"00000000000000000000000000000000000000000000000000000000000000000000000000000000000000000000000000000000000000000000000000000000000000000000000000",
"00000000000000000000000000000000000000000000000000000000000000000000000000000000000000000000000000000000000000000000000000000000000000000000000000",
"00000000000000000000000000000000000000000000000000000000000000000000000000000000000000000000000000000000000000000000000000000000000000000000000000",
"0000000000000000000000000000000000000000000000000000000000000000$$6699        **;;::55555555;;==********==============::::::6600000000000000000000",
"0000000000000000000000000000000000000000000000000000000000000000$$6699        **;;::55555555;;==********==============::::::6600000000000000000000",
"000000000000000000000000000000000000000000000000000000000000$$$$>>......++++++++                                          **;;00000000000000000000",
"000000000000000000000000000000000000000000000000000000000000$$$$>>......++++++++                                          **;;00000000000000000000",
"000000000000000000$$33333333333333333333333333110000000000$$>>22,,$$....&&--<<--  334477887733333333333333333333333311@@  ****00000000000000000000",
"000000000000000000$$33333333333333333333333333110000000000$$>>22,,$$....&&--<<--  334477887733333333333333333333333311@@  ****00000000000000000000",
"000000000000000000$$$$44443344444444444444443333222211>>>>>>>>>>,,$$....&&--<<--  33,,>>$$####################OO@@%%>>0000000000000000000000000000",
"000000000000000000$$$$44443344444444444444443333222211>>>>>>>>>>,,$$....&&--<<--  33,,>>$$####################OO@@%%>>0000000000000000000000000000",
"00000000000000000000oo$$4433444444444444444433333333333311>>>>>>$$************    ,,,,,,,,,,,,,,,,,,,,,,,,,,,,,,,,,,000000000000000000000000000000",
"00000000000000000000oo$$4433444444444444444433333333333311>>>>>>$$************    ,,,,,,,,,,,,,,,,,,,,,,,,,,,,,,,,,,000000000000000000000000000000",
"0000000000000000000000oo$$222222222222221111>>,,2233222211,,oooooo000000XXXX0000000000000000000000000000000000000000000000000000000000000000000000",
"0000000000000000000000oo$$222222222222221111>>,,2233222211,,oooooo000000XXXX0000000000000000000000000000000000000000000000000000000000000000000000",
"0000000000000000000000oo$$>>>>>>>>>>>>>>>>>>>>>>,,22>>>>22oo0000XX0000XXXX000000000000000000000000000000000000000000000000000000000000000000000000",
"0000000000000000000000oo$$>>>>>>>>>>>>>>>>>>>>>>,,22>>>>22oo0000XX0000XXXX000000000000000000000000000000000000000000000000000000000000000000000000",
"0000000000000000000000oooo%%%%%%%%%%%%%%2222,,>>>>>>>>22oo000000XXXXXX0000000000000000000000000000000000000000000000000000000000000000000000000000",
"0000000000000000000000oooo%%%%%%%%%%%%%%2222,,>>>>>>>>22oo000000XXXXXX0000000000000000000000000000000000000000000000000000000000000000000000000000",
"0000000000000000000000oooo$$$$$$%%>>>>>>oooooo,,%%%%22oo0000000000XX000000000000000000000000000000000000000000000000000000000000000000000000000000",
"0000000000000000000000oooo$$$$$$%%>>>>>>oooooo,,%%%%22oo0000000000XX000000000000000000000000000000000000000000000000000000000000000000000000000000",
"0000000000000000000000oooo$$$$%%>>>>oooo000000oo,,$$oo00000000000000000000000000000000000000000000000000000000000000000000000000000000000000000000",
"0000000000000000000000oooo$$$$%%>>>>oooo000000oo,,$$oo00000000000000000000000000000000000000000000000000000000000000000000000000000000000000000000",
"0000000000000000000000@@@@@@>>>>oooo000000000000oooo0000000000000000000000000000000000000000000000000000000000000000000000000000000000000000000000",
"0000000000000000000000@@@@@@>>>>oooo000000000000oooo0000000000000000000000000000000000000000000000000000000000000000000000000000000000000000000000",
"00000000000000000000oooo%%%%oooo000000000000000000000000000000000000000000000000000000000000000000000000000000000000000000000000000000000000000000",
"00000000000000000000oooo%%%%oooo000000000000000000000000000000000000000000000000000000000000000000000000000000000000000000000000000000000000000000",
"00000000000000000000oo%%oooo0000000000000000000000000000000000000000000000000000000000000000000000000000000000000000000000000000000000000000000000",
"00000000000000000000oo%%oooo0000000000000000000000000000000000000000000000000000000000000000000000000000000000000000000000000000000000000000000000",
"00000000000000000000oooo00000000000000000000000000000000000000000000000000000000000000000000000000000000000000000000000000000000000000000000000000",
"00000000000000000000oooo00000000000000000000000000000000000000000000000000000000000000000000000000000000000000000000000000000000000000000000000000",
"00000000000000000000000000000000000000000000000000000000000000000000000000000000000000000000000000000000000000000000000000000000000000000000000000",
"00000000000000000000000000000000000000000000000000000000000000000000000000000000000000000000000000000000000000000000000000000000000000000000000000",
"00000000000000000000000000000000000000000000000000000000000000000000000000000000000000000000000000000000000000000000000000000000000000000000000000",
"00000000000000000000000000000000000000000000000000000000000000000000000000000000000000000000000000000000000000000000000000000000000000000000000000",
"00000000000000000000000000000000000000000000000000000000000000000000000000000000000000000000000000000000000000000000000000000000000000000000000000",
"00000000000000000000000000000000000000000000000000000000000000000000000000000000000000000000000000000000000000000000000000000000000000000000000000",
"00000000000000000000000000000000000000000000000000000000000000000000000000000000000000000000000000000000000000000000000000000000000000000000000000",
"00000000000000000000000000000000000000000000000000000000000000000000000000000000000000000000000000000000000000000000000000000000000000000000000000",
"00000000000000000000000000000000000000000000000000000000000000000000000000000000000000000000000000000000000000000000000000000000000000000000000000",
"00000000000000000000000000000000000000000000000000000000000000000000000000000000000000000000000000000000000000000000000000000000000000000000000000",
"00000000000000000000000000000000000000000000000000000000000000000000000000000000000000000000000000000000000000000000000000000000000000000000000000",
"00000000000000000000000000000000000000000000000000000000000000000000000000000000000000000000000000000000000000000000000000000000000000000000000000",
"00000000000000000000000000000000000000000000000000000000000000000000000000000000000000000000000000000000000000000000000000000000000000000000000000",
"00000000000000000000000000000000000000000000000000000000000000000000000000000000000000000000000000000000000000000000000000000000000000000000000000",
"00000000000000000000000000000000000000000000000000000000000000000000000000000000000000000000000000000000000000000000000000000000000000000000000000",
"00000000000000000000000000000000000000000000000000000000000000000000000000000000000000000000000000000000000000000000000000000000000000000000000000",
"00000000000000000000000000000000000000000000000000000000000000000000000000000000000000000000000000000000000000000000000000000000000000000000000000",
"00000000000000000000000000000000000000000000000000000000000000000000000000000000000000000000000000000000000000000000000000000000000000000000000000",
"00000000000000000000000000000000000000000000000000000000000000000000000000000000000000000000000000000000000000000000000000000000000000000000000000",
"00000000000000000000000000000000000000000000000000000000000000000000000000000000000000000000000000000000000000000000000000000000000000000000000000",
"00000000000000000000000000000000000000000000000000000000000000000000000000000000000000000000000000000000000000000000000000000000000000000000000000",
"00000000000000000000000000000000000000000000000000000000000000000000000000000000000000000000000000000000000000000000000000000000000000000000000000",
"00000000000000000000000000000000000000000000000000000000000000000000000000000000000000000000000000000000000000000000000000000000000000000000000000",
"00000000000000000000000000000000000000000000000000000000000000000000000000000000000000000000000000000000000000000000000000000000000000000000000000",
"00000000000000000000000000000000000000000000000000000000000000000000000000000000000000000000000000000000000000000000000000000000000000000000000000",
"00000000000000000000000000000000000000000000000000000000000000000000000000000000000000000000000000000000000000000000000000000000000000000000000000",
"00000000000000000000000000000000000000000000000000000000000000000000000000000000000000000000000000000000000000000000000000000000000000000000000000",
"00000000000000000000000000000000000000000000000000000000000000000000000000000000000000000000000000000000000000000000000000000000000000000000000000",
"00000000000000000000000000000000000000000000000000000000000000000000000000000000000000000000000000000000000000000000000000000000000000000000000000",
"00000000000000000000000000000000000000000000000000000000000000000000000000000000000000000000000000000000000000000000000000000000000000000000000000",
"00000000000000000000000000000000000000000000000000000000000000000000000000000000000000000000000000000000000000000000000000000000000000000000000000",
"00000000000000000000000000000000000000000000000000000000000000000000000000000000000000000000000000000000000000000000000000000000000000000000000000"
};
